<ttFont>
<head>
    <!-- Most of this table will be recalculated by the compiler -->
    <tableVersion value="1.0"/>
    <fontRevision value="1.0"/>
    <checkSumAdjustment value="0x30bd094b"/>
    <magicNumber value="0x5f0f3cf5"/>
    <flags value="00000000 00011011"/>
    <unitsPerEm value="1000"/>
    <created value="Sat Dec  6 13:43:36 2025"/>
    <modified value="Sat Dec  6 13:50:59 2025"/>
    <xMin value="-59"/>
    <yMin value="-250"/>
    <xMax value="1235"/>
    <yMax value="750"/>
    <macStyle value="00000000 00000001"/>
    <lowestRecPPEM value="6"/>
    <fontDirectionHint value="2"/>
    <indexToLocFormat value="0"/>
    <glyphDataFormat value="0"/>
  </head>
    <TTGlyph name="A" xMin="45" yMin="0" xMax="876" yMax="701">
      <contour>
        <pt x="778" y="52" on="1"/>
        <pt x="876" y="52" on="1"/>
        <pt x="876" y="0" on="1"/>
        <pt x="828" y="2" on="0"/>
        <pt x="737" y="3" on="0"/>
        <pt x="708" y="3" on="1"/>
        <pt x="692" y="3" on="0"/>
        <pt x="643" y="3" on="0"/>
        <pt x="591" y="2" on="0"/>
        <pt x="544" y="1" on="0"/>
        <pt x="530" y="0" on="1"/>
        <pt x="530" y="52" on="1"/>
        <pt x="623" y="52" on="1"/>
        <pt x="562" y="191" on="1"/>
        <pt x="275" y="191" on="1"/>
        <pt x="224" y="75" on="1"/>
        <pt x="219" y="61" on="1"/>
        <pt x="241" y="54" on="0"/>
        <pt x="287" y="52" on="0"/>
        <pt x="307" y="52" on="1"/>
        <pt x="307" y="0" on="1"/>
        <pt x="277" y="1" on="0"/>
        <pt x="243" y="2" on="0"/>
        <pt x="217" y="3" on="0"/>
        <pt x="192" y="3" on="0"/>
        <pt x="171" y="3" on="1"/>
        <pt x="137" y="3" on="0"/>
        <pt x="83" y="2" on="0"/>
        <pt x="45" y="0" on="1"/>
        <pt x="45" y="52" on="1"/>
        <pt x="69" y="52" on="1"/>
        <pt x="86" y="52" on="0"/>
        <pt x="101" y="53" on="0"/>
        <pt x="120" y="55" on="1"/>
        <pt x="138" y="57" on="0"/>
        <pt x="147" y="63" on="0"/>
        <pt x="152" y="74" on="1"/>
        <pt x="413" y="675" on="1"/>
        <pt x="421" y="695" on="0"/>
        <pt x="444" y="701" on="0"/>
        <pt x="461" y="701" on="1"/>
        <pt x="477" y="701" on="0"/>
        <pt x="500" y="695" on="0"/>
        <pt x="508" y="675" on="1"/>
      </contour>
      <contour>
        <pt x="298" y="243" on="1"/>
        <pt x="540" y="243" on="1"/>
        <pt x="419" y="522" on="1"/>
      </contour>
    </TTGlyph>
    <TTGlyph name="AE" xMin="46" yMin="0" xMax="1073" yMax="686">
      <contour>
        <pt x="1024" y="0" on="1"/>
        <pt x="431" y="0" on="1"/>
        <pt x="431" y="52" on="1"/>
        <pt x="512" y="52" on="1"/>
        <pt x="512" y="304" on="1"/>
        <pt x="329" y="304" on="1"/>
        <pt x="226" y="76" on="1"/>
        <pt x="221" y="61" on="1"/>
        <pt x="243" y="54" on="0"/>
        <pt x="286" y="52" on="0"/>
        <pt x="308" y="52" on="1"/>
        <pt x="308" y="0" on="1"/>
        <pt x="278" y="1" on="0"/>
        <pt x="244" y="2" on="0"/>
        <pt x="218" y="3" on="0"/>
        <pt x="193" y="3" on="0"/>
        <pt x="172" y="3" on="1"/>
        <pt x="137" y="3" on="0"/>
        <pt x="83" y="2" on="0"/>
        <pt x="46" y="0" on="1"/>
        <pt x="46" y="52" on="1"/>
        <pt x="69" y="52" on="1"/>
        <pt x="96" y="52" on="0"/>
        <pt x="121" y="55" on="1"/>
        <pt x="139" y="57" on="0"/>
        <pt x="148" y="63" on="0"/>
        <pt x="153" y="74" on="1"/>
        <pt x="405" y="634" on="1"/>
        <pt x="336" y="634" on="1"/>
        <pt x="336" y="686" on="1"/>
        <pt x="1006" y="686" on="1"/>
        <pt x="1039" y="443" on="1"/>
        <pt x="983" y="443" on="1"/>
        <pt x="977" y="487" on="0"/>
        <pt x="959" y="558" on="0"/>
        <pt x="917" y="608" on="0"/>
        <pt x="845" y="634" on="0"/>
        <pt x="786" y="634" on="1"/>
        <pt x="652" y="634" on="1"/>
        <pt x="652" y="356" on="1"/>
        <pt x="719" y="356" on="1"/>
        <pt x="754" y="356" on="0"/>
        <pt x="798" y="369" on="0"/>
        <pt x="822" y="397" on="0"/>
        <pt x="831" y="441" on="0"/>
        <pt x="831" y="471" on="1"/>
        <pt x="887" y="471" on="1"/>
        <pt x="887" y="189" on="1"/>
        <pt x="831" y="189" on="1"/>
        <pt x="831" y="219" on="0"/>
        <pt x="822" y="263" on="0"/>
        <pt x="798" y="291" on="0"/>
        <pt x="754" y="304" on="0"/>
        <pt x="719" y="304" on="1"/>
        <pt x="652" y="304" on="1"/>
        <pt x="652" y="52" on="1"/>
        <pt x="789" y="52" on="1"/>
        <pt x="855" y="52" on="0"/>
        <pt x="937" y="83" on="0"/>
        <pt x="985" y="142" on="0"/>
        <pt x="1008" y="224" on="0"/>
        <pt x="1017" y="275" on="1"/>
        <pt x="1073" y="275" on="1"/>
      </contour>
      <contour>
        <pt x="353" y="356" on="1"/>
        <pt x="512" y="356" on="1"/>
        <pt x="512" y="634" on="1"/>
        <pt x="478" y="634" on="1"/>
      </contour>
    </TTGlyph>
    <TTGlyph name="B" xMin="47" yMin="0" xMax="800" yMax="686">
      <contour>
        <pt x="47" y="634" on="1"/>
        <pt x="47" y="686" on="1"/>
        <pt x="502" y="686" on="1"/>
        <pt x="565" y="686" on="0"/>
        <pt x="663" y="658" on="0"/>
        <pt x="731" y="611" on="0"/>
        <pt x="766" y="548" on="0"/>
        <pt x="766" y="513" on="1"/>
        <pt x="766" y="484" on="0"/>
        <pt x="740" y="434" on="0"/>
        <pt x="693" y="394" on="0"/>
        <pt x="628" y="366" on="0"/>
        <pt x="588" y="359" on="1"/>
        <pt x="641" y="353" on="0"/>
        <pt x="720" y="322" on="0"/>
        <pt x="773" y="275" on="0"/>
        <pt x="800" y="218" on="0"/>
        <pt x="800" y="187" on="1"/>
        <pt x="800" y="149" on="0"/>
        <pt x="765" y="81" on="0"/>
        <pt x="698" y="30" on="0"/>
        <pt x="599" y="0" on="0"/>
        <pt x="535" y="0" on="1"/>
        <pt x="47" y="0" on="1"/>
        <pt x="47" y="52" on="1"/>
        <pt x="155" y="52" on="1"/>
        <pt x="155" y="634" on="1"/>
      </contour>
      <contour>
        <pt x="462" y="378" on="1"/>
        <pt x="536" y="378" on="0"/>
        <pt x="618" y="453" on="0"/>
        <pt x="618" y="513" on="1"/>
        <pt x="618" y="532" on="0"/>
        <pt x="607" y="575" on="0"/>
        <pt x="578" y="611" on="0"/>
        <pt x="528" y="634" on="0"/>
        <pt x="489" y="634" on="1"/>
        <pt x="291" y="634" on="1"/>
        <pt x="291" y="378" on="1"/>
      </contour>
      <contour>
        <pt x="492" y="52" on="1"/>
        <pt x="567" y="52" on="0"/>
        <pt x="646" y="127" on="0"/>
        <pt x="646" y="189" on="1"/>
        <pt x="646" y="211" on="0"/>
        <pt x="634" y="262" on="0"/>
        <pt x="603" y="306" on="0"/>
        <pt x="547" y="336" on="0"/>
        <pt x="502" y="336" on="1"/>
        <pt x="291" y="336" on="1"/>
        <pt x="291" y="52" on="1"/>
      </contour>
    </TTGlyph>
    <TTGlyph name="C" xMin="68" yMin="-14" xMax="816" yMax="700">
      <contour>
        <pt x="816" y="454" on="1"/>
        <pt x="816" y="431" on="0"/>
        <pt x="805" y="423" on="0"/>
        <pt x="783" y="423" on="1"/>
        <pt x="766" y="423" on="0"/>
        <pt x="752" y="428" on="0"/>
        <pt x="750" y="443" on="1"/>
        <pt x="741" y="496" on="0"/>
        <pt x="693" y="574" on="0"/>
        <pt x="628" y="624" on="0"/>
        <pt x="551" y="648" on="0"/>
        <pt x="513" y="648" on="1"/>
        <pt x="496" y="648" on="0"/>
        <pt x="442" y="643" on="0"/>
        <pt x="381" y="626" on="0"/>
        <pt x="318" y="593" on="0"/>
        <pt x="291" y="564" on="1"/>
        <pt x="268" y="539" on="0"/>
        <pt x="243" y="476" on="0"/>
        <pt x="231" y="414" on="0"/>
        <pt x="228" y="360" on="0"/>
        <pt x="228" y="343" on="1"/>
        <pt x="228" y="265" on="0"/>
        <pt x="259" y="158" on="0"/>
        <pt x="293" y="121" on="1"/>
        <pt x="322" y="89" on="0"/>
        <pt x="433" y="38" on="0"/>
        <pt x="516" y="38" on="1"/>
        <pt x="566" y="38" on="0"/>
        <pt x="652" y="66" on="0"/>
        <pt x="718" y="116" on="0"/>
        <pt x="757" y="183" on="0"/>
        <pt x="760" y="222" on="1"/>
        <pt x="761" y="241" on="0"/>
        <pt x="769" y="251" on="0"/>
        <pt x="788" y="251" on="1"/>
        <pt x="801" y="251" on="0"/>
        <pt x="816" y="245" on="0"/>
        <pt x="816" y="227" on="1"/>
        <pt x="816" y="181" on="0"/>
        <pt x="771" y="95" on="0"/>
        <pt x="687" y="27" on="0"/>
        <pt x="568" y="-14" on="0"/>
        <pt x="494" y="-14" on="1"/>
        <pt x="390" y="-14" on="0"/>
        <pt x="231" y="42" on="0"/>
        <pt x="123" y="140" on="0"/>
        <pt x="68" y="270" on="0"/>
        <pt x="68" y="343" on="1"/>
        <pt x="68" y="417" on="0"/>
        <pt x="124" y="547" on="0"/>
        <pt x="232" y="644" on="0"/>
        <pt x="391" y="700" on="0"/>
        <pt x="493" y="700" on="1"/>
        <pt x="532" y="700" on="0"/>
        <pt x="596" y="687" on="0"/>
        <pt x="647" y="668" on="0"/>
        <pt x="689" y="644" on="0"/>
        <pt x="705" y="632" on="1"/>
        <pt x="771" y="690" on="1"/>
        <pt x="779" y="698" on="0"/>
        <pt x="787" y="700" on="0"/>
        <pt x="794" y="700" on="1"/>
        <pt x="811" y="700" on="0"/>
        <pt x="816" y="683" on="0"/>
        <pt x="816" y="669" on="1"/>
      </contour>
    </TTGlyph>
    <TTGlyph name="D" xMin="47" yMin="0" xMax="869" yMax="686">
      <contour>
        <pt x="47" y="634" on="1"/>
        <pt x="47" y="686" on="1"/>
        <pt x="500" y="686" on="1"/>
        <pt x="580" y="686" on="0"/>
        <pt x="715" y="638" on="0"/>
        <pt x="813" y="548" on="0"/>
        <pt x="869" y="418" on="0"/>
        <pt x="869" y="337" on="1"/>
        <pt x="869" y="259" on="0"/>
        <pt x="814" y="134" on="0"/>
        <pt x="716" y="47" on="0"/>
        <pt x="581" y="0" on="0"/>
        <pt x="501" y="0" on="1"/>
        <pt x="47" y="0" on="1"/>
        <pt x="47" y="52" on="1"/>
        <pt x="155" y="52" on="1"/>
        <pt x="155" y="634" on="1"/>
      </contour>
      <contour>
        <pt x="459" y="52" on="1"/>
        <pt x="523" y="52" on="0"/>
        <pt x="611" y="81" on="0"/>
        <pt x="668" y="129" on="0"/>
        <pt x="698" y="190" on="0"/>
        <pt x="713" y="253" on="0"/>
        <pt x="715" y="315" on="0"/>
        <pt x="715" y="339" on="1"/>
        <pt x="715" y="363" on="0"/>
        <pt x="713" y="425" on="0"/>
        <pt x="698" y="491" on="0"/>
        <pt x="667" y="554" on="0"/>
        <pt x="610" y="604" on="0"/>
        <pt x="522" y="634" on="0"/>
        <pt x="458" y="634" on="1"/>
        <pt x="298" y="634" on="1"/>
        <pt x="298" y="52" on="1"/>
      </contour>
    </TTGlyph>
    <TTGlyph name="E" xMin="47" yMin="0" xMax="768" yMax="680">
      <contour>
        <pt x="719" y="0" on="1"/>
        <pt x="47" y="0" on="1"/>
        <pt x="47" y="52" on="1"/>
        <pt x="155" y="52" on="1"/>
        <pt x="155" y="628" on="1"/>
        <pt x="47" y="628" on="1"/>
        <pt x="47" y="680" on="1"/>
        <pt x="701" y="680" on="1"/>
        <pt x="734" y="437" on="1"/>
        <pt x="678" y="437" on="1"/>
        <pt x="671" y="490" on="0"/>
        <pt x="644" y="563" on="0"/>
        <pt x="595" y="608" on="0"/>
        <pt x="521" y="628" on="0"/>
        <pt x="467" y="628" on="1"/>
        <pt x="304" y="628" on="1"/>
        <pt x="304" y="379" on="1"/>
        <pt x="364" y="379" on="1"/>
        <pt x="399" y="379" on="0"/>
        <pt x="443" y="392" on="0"/>
        <pt x="467" y="421" on="0"/>
        <pt x="475" y="464" on="0"/>
        <pt x="475" y="494" on="1"/>
        <pt x="531" y="494" on="1"/>
        <pt x="531" y="212" on="1"/>
        <pt x="475" y="212" on="1"/>
        <pt x="475" y="242" on="0"/>
        <pt x="467" y="285" on="0"/>
        <pt x="443" y="314" on="0"/>
        <pt x="399" y="327" on="0"/>
        <pt x="364" y="327" on="1"/>
        <pt x="304" y="327" on="1"/>
        <pt x="304" y="52" on="1"/>
        <pt x="470" y="52" on="1"/>
        <pt x="538" y="52" on="0"/>
        <pt x="624" y="81" on="0"/>
        <pt x="676" y="138" on="0"/>
        <pt x="703" y="221" on="0"/>
        <pt x="712" y="275" on="1"/>
        <pt x="768" y="275" on="1"/>
      </contour>
    </TTGlyph>
    <TTGlyph name="F" xMin="47" yMin="0" xMax="717" yMax="680">
      <contour>
        <pt x="717" y="437" on="1"/>
        <pt x="661" y="437" on="1"/>
        <pt x="655" y="486" on="0"/>
        <pt x="631" y="558" on="0"/>
        <pt x="586" y="605" on="0"/>
        <pt x="513" y="628" on="0"/>
        <pt x="457" y="628" on="1"/>
        <pt x="304" y="628" on="1"/>
        <pt x="304" y="366" on="1"/>
        <pt x="360" y="366" on="1"/>
        <pt x="396" y="366" on="0"/>
        <pt x="439" y="381" on="0"/>
        <pt x="461" y="410" on="0"/>
        <pt x="468" y="453" on="0"/>
        <pt x="468" y="481" on="1"/>
        <pt x="524" y="481" on="1"/>
        <pt x="524" y="199" on="1"/>
        <pt x="468" y="199" on="1"/>
        <pt x="468" y="227" on="0"/>
        <pt x="461" y="270" on="0"/>
        <pt x="439" y="299" on="0"/>
        <pt x="396" y="314" on="0"/>
        <pt x="360" y="314" on="1"/>
        <pt x="304" y="314" on="1"/>
        <pt x="304" y="52" on="1"/>
        <pt x="439" y="52" on="1"/>
        <pt x="439" y="0" on="1"/>
        <pt x="425" y="1" on="0"/>
        <pt x="371" y="2" on="0"/>
        <pt x="310" y="3" on="0"/>
        <pt x="253" y="3" on="0"/>
        <pt x="236" y="3" on="1"/>
        <pt x="220" y="3" on="0"/>
        <pt x="167" y="3" on="0"/>
        <pt x="112" y="2" on="0"/>
        <pt x="61" y="1" on="0"/>
        <pt x="47" y="0" on="1"/>
        <pt x="47" y="52" on="1"/>
        <pt x="155" y="52" on="1"/>
        <pt x="155" y="628" on="1"/>
        <pt x="47" y="628" on="1"/>
        <pt x="47" y="680" on="1"/>
        <pt x="684" y="680" on="1"/>
      </contour>
    </TTGlyph>
    <TTGlyph name="G" xMin="68" yMin="-14" xMax="901" yMax="700">
      <contour>
        <pt x="816" y="31" on="1"/>
        <pt x="816" y="20" on="0"/>
        <pt x="812" y="0" on="0"/>
        <pt x="799" y="0" on="1"/>
        <pt x="796" y="0" on="0"/>
        <pt x="774" y="8" on="0"/>
        <pt x="746" y="21" on="0"/>
        <pt x="717" y="37" on="0"/>
        <pt x="706" y="45" on="1"/>
        <pt x="681" y="17" on="0"/>
        <pt x="576" y="-14" on="0"/>
        <pt x="497" y="-14" on="1"/>
        <pt x="388" y="-14" on="0"/>
        <pt x="226" y="45" on="0"/>
        <pt x="120" y="144" on="0"/>
        <pt x="68" y="273" on="0"/>
        <pt x="68" y="343" on="1"/>
        <pt x="68" y="417" on="0"/>
        <pt x="124" y="547" on="0"/>
        <pt x="232" y="644" on="0"/>
        <pt x="391" y="700" on="0"/>
        <pt x="493" y="700" on="1"/>
        <pt x="532" y="700" on="0"/>
        <pt x="596" y="687" on="0"/>
        <pt x="647" y="668" on="0"/>
        <pt x="689" y="644" on="0"/>
        <pt x="705" y="632" on="1"/>
        <pt x="771" y="690" on="1"/>
        <pt x="779" y="698" on="0"/>
        <pt x="787" y="700" on="0"/>
        <pt x="794" y="700" on="1"/>
        <pt x="811" y="700" on="0"/>
        <pt x="816" y="683" on="0"/>
        <pt x="816" y="669" on="1"/>
        <pt x="816" y="454" on="1"/>
        <pt x="816" y="431" on="0"/>
        <pt x="805" y="423" on="0"/>
        <pt x="783" y="423" on="1"/>
        <pt x="766" y="423" on="0"/>
        <pt x="752" y="428" on="0"/>
        <pt x="750" y="443" on="1"/>
        <pt x="741" y="496" on="0"/>
        <pt x="693" y="574" on="0"/>
        <pt x="628" y="624" on="0"/>
        <pt x="551" y="648" on="0"/>
        <pt x="513" y="648" on="1"/>
        <pt x="496" y="648" on="0"/>
        <pt x="442" y="643" on="0"/>
        <pt x="381" y="626" on="0"/>
        <pt x="318" y="593" on="0"/>
        <pt x="291" y="564" on="1"/>
        <pt x="269" y="539" on="0"/>
        <pt x="243" y="477" on="0"/>
        <pt x="231" y="416" on="0"/>
        <pt x="228" y="361" on="0"/>
        <pt x="228" y="344" on="1"/>
        <pt x="228" y="296" on="0"/>
        <pt x="239" y="224" on="0"/>
        <pt x="259" y="169" on="0"/>
        <pt x="286" y="129" on="0"/>
        <pt x="302" y="113" on="1"/>
        <pt x="331" y="85" on="0"/>
        <pt x="441" y="38" on="0"/>
        <pt x="523" y="38" on="1"/>
        <pt x="537" y="38" on="0"/>
        <pt x="591" y="43" on="0"/>
        <pt x="620" y="56" on="1"/>
        <pt x="638" y="64" on="0"/>
        <pt x="657" y="82" on="0"/>
        <pt x="666" y="100" on="0"/>
        <pt x="667" y="119" on="0"/>
        <pt x="667" y="126" on="1"/>
        <pt x="667" y="224" on="1"/>
        <pt x="514" y="224" on="1"/>
        <pt x="514" y="276" on="1"/>
        <pt x="528" y="275" on="0"/>
        <pt x="585" y="274" on="0"/>
        <pt x="648" y="273" on="0"/>
        <pt x="707" y="273" on="0"/>
        <pt x="724" y="273" on="1"/>
        <pt x="757" y="273" on="0"/>
        <pt x="799" y="273" on="0"/>
        <pt x="835" y="274" on="0"/>
        <pt x="873" y="275" on="0"/>
        <pt x="901" y="276" on="1"/>
        <pt x="901" y="224" on="1"/>
        <pt x="816" y="224" on="1"/>
      </contour>
    </TTGlyph>
    <TTGlyph name="Gamma" xMin="47" yMin="0" xMax="683" yMax="680">
      <contour>
        <pt x="683" y="437" on="1"/>
        <pt x="627" y="437" on="1"/>
        <pt x="621" y="481" on="0"/>
        <pt x="603" y="552" on="0"/>
        <pt x="562" y="601" on="0"/>
        <pt x="490" y="628" on="0"/>
        <pt x="431" y="628" on="1"/>
        <pt x="304" y="628" on="1"/>
        <pt x="304" y="52" on="1"/>
        <pt x="439" y="52" on="1"/>
        <pt x="439" y="0" on="1"/>
        <pt x="425" y="1" on="0"/>
        <pt x="371" y="2" on="0"/>
        <pt x="310" y="3" on="0"/>
        <pt x="253" y="3" on="0"/>
        <pt x="236" y="3" on="1"/>
        <pt x="220" y="3" on="0"/>
        <pt x="167" y="3" on="0"/>
        <pt x="112" y="2" on="0"/>
        <pt x="61" y="1" on="0"/>
        <pt x="47" y="0" on="1"/>
        <pt x="47" y="52" on="1"/>
        <pt x="155" y="52" on="1"/>
        <pt x="155" y="628" on="1"/>
        <pt x="47" y="628" on="1"/>
        <pt x="47" y="680" on="1"/>
        <pt x="650" y="680" on="1"/>
      </contour>
    </TTGlyph>
    <TTGlyph name="H" xMin="47" yMin="0" xMax="907" yMax="686">
      <contour>
        <pt x="799" y="52" on="1"/>
        <pt x="907" y="52" on="1"/>
        <pt x="907" y="0" on="1"/>
        <pt x="893" y="1" on="0"/>
        <pt x="844" y="2" on="0"/>
        <pt x="791" y="3" on="0"/>
        <pt x="741" y="3" on="0"/>
        <pt x="725" y="3" on="1"/>
        <pt x="709" y="3" on="0"/>
        <pt x="658" y="3" on="0"/>
        <pt x="605" y="2" on="0"/>
        <pt x="556" y="1" on="0"/>
        <pt x="542" y="0" on="1"/>
        <pt x="542" y="52" on="1"/>
        <pt x="650" y="52" on="1"/>
        <pt x="650" y="331" on="1"/>
        <pt x="304" y="331" on="1"/>
        <pt x="304" y="52" on="1"/>
        <pt x="412" y="52" on="1"/>
        <pt x="412" y="0" on="1"/>
        <pt x="398" y="1" on="0"/>
        <pt x="349" y="2" on="0"/>
        <pt x="296" y="3" on="0"/>
        <pt x="246" y="3" on="0"/>
        <pt x="230" y="3" on="1"/>
        <pt x="214" y="3" on="0"/>
        <pt x="163" y="3" on="0"/>
        <pt x="110" y="2" on="0"/>
        <pt x="61" y="1" on="0"/>
        <pt x="47" y="0" on="1"/>
        <pt x="47" y="52" on="1"/>
        <pt x="155" y="52" on="1"/>
        <pt x="155" y="634" on="1"/>
        <pt x="47" y="634" on="1"/>
        <pt x="47" y="686" on="1"/>
        <pt x="61" y="685" on="0"/>
        <pt x="110" y="684" on="0"/>
        <pt x="163" y="683" on="0"/>
        <pt x="214" y="683" on="0"/>
        <pt x="230" y="683" on="1"/>
        <pt x="246" y="683" on="0"/>
        <pt x="296" y="683" on="0"/>
        <pt x="349" y="684" on="0"/>
        <pt x="398" y="685" on="0"/>
        <pt x="412" y="686" on="1"/>
        <pt x="412" y="634" on="1"/>
        <pt x="304" y="634" on="1"/>
        <pt x="304" y="383" on="1"/>
        <pt x="650" y="383" on="1"/>
        <pt x="650" y="634" on="1"/>
        <pt x="542" y="634" on="1"/>
        <pt x="542" y="686" on="1"/>
        <pt x="556" y="685" on="0"/>
        <pt x="605" y="684" on="0"/>
        <pt x="658" y="683" on="0"/>
        <pt x="709" y="683" on="0"/>
        <pt x="725" y="683" on="1"/>
        <pt x="741" y="683" on="0"/>
        <pt x="791" y="683" on="0"/>
        <pt x="844" y="684" on="0"/>
        <pt x="893" y="685" on="0"/>
        <pt x="907" y="686" on="1"/>
        <pt x="907" y="634" on="1"/>
        <pt x="799" y="634" on="1"/>
      </contour>
    </TTGlyph>
    <TTGlyph name="I" xMin="42" yMin="0" xMax="417" yMax="686">
      <contour>
        <pt x="304" y="52" on="1"/>
        <pt x="417" y="52" on="1"/>
        <pt x="417" y="0" on="1"/>
        <pt x="403" y="1" on="0"/>
        <pt x="353" y="2" on="0"/>
        <pt x="298" y="3" on="0"/>
        <pt x="245" y="3" on="0"/>
        <pt x="229" y="3" on="1"/>
        <pt x="213" y="3" on="0"/>
        <pt x="161" y="3" on="0"/>
        <pt x="106" y="2" on="0"/>
        <pt x="56" y="1" on="0"/>
        <pt x="42" y="0" on="1"/>
        <pt x="42" y="52" on="1"/>
        <pt x="155" y="52" on="1"/>
        <pt x="155" y="634" on="1"/>
        <pt x="42" y="634" on="1"/>
        <pt x="42" y="686" on="1"/>
        <pt x="56" y="685" on="0"/>
        <pt x="106" y="684" on="0"/>
        <pt x="162" y="683" on="0"/>
        <pt x="214" y="683" on="0"/>
        <pt x="230" y="683" on="1"/>
        <pt x="246" y="683" on="0"/>
        <pt x="298" y="683" on="0"/>
        <pt x="353" y="684" on="0"/>
        <pt x="403" y="685" on="0"/>
        <pt x="417" y="686" on="1"/>
        <pt x="417" y="634" on="1"/>
        <pt x="304" y="634" on="1"/>
      </contour>
    </TTGlyph>
    <TTGlyph name="J" xMin="25" yMin="-14" xMax="556" yMax="686">
      <contour>
        <pt x="475" y="150" on="1"/>
        <pt x="475" y="111" on="0"/>
        <pt x="440" y="50" on="0"/>
        <pt x="377" y="8" on="0"/>
        <pt x="287" y="-14" on="0"/>
        <pt x="233" y="-14" on="1"/>
        <pt x="136" y="-14" on="0"/>
        <pt x="25" y="54" on="0"/>
        <pt x="25" y="114" on="1"/>
        <pt x="25" y="150" on="0"/>
        <pt x="71" y="195" on="0"/>
        <pt x="106" y="195" on="1"/>
        <pt x="141" y="195" on="0"/>
        <pt x="187" y="150" on="0"/>
        <pt x="187" y="114" on="1"/>
        <pt x="187" y="92" on="0"/>
        <pt x="167" y="55" on="0"/>
        <pt x="148" y="44" on="1"/>
        <pt x="175" y="32" on="0"/>
        <pt x="222" y="28" on="0"/>
        <pt x="228" y="28" on="1"/>
        <pt x="272" y="28" on="0"/>
        <pt x="332" y="84" on="0"/>
        <pt x="332" y="149" on="1"/>
        <pt x="332" y="634" on="1"/>
        <pt x="192" y="634" on="1"/>
        <pt x="192" y="686" on="1"/>
        <pt x="206" y="685" on="0"/>
        <pt x="258" y="684" on="0"/>
        <pt x="317" y="683" on="0"/>
        <pt x="372" y="683" on="0"/>
        <pt x="388" y="683" on="1"/>
        <pt x="420" y="683" on="0"/>
        <pt x="458" y="683" on="0"/>
        <pt x="490" y="684" on="0"/>
        <pt x="526" y="685" on="0"/>
        <pt x="556" y="686" on="1"/>
        <pt x="556" y="634" on="1"/>
        <pt x="475" y="634" on="1"/>
      </contour>
    </TTGlyph>
    <TTGlyph name="K" xMin="47" yMin="0" xMax="904" yMax="686">
      <contour>
        <pt x="806" y="69" on="1"/>
        <pt x="810" y="64" on="0"/>
        <pt x="817" y="58" on="0"/>
        <pt x="830" y="54" on="0"/>
        <pt x="852" y="52" on="0"/>
        <pt x="871" y="52" on="1"/>
        <pt x="904" y="52" on="1"/>
        <pt x="904" y="0" on="1"/>
        <pt x="826" y="3" on="0"/>
        <pt x="749" y="3" on="1"/>
        <pt x="733" y="3" on="0"/>
        <pt x="685" y="3" on="0"/>
        <pt x="635" y="2" on="0"/>
        <pt x="589" y="1" on="0"/>
        <pt x="575" y="0" on="1"/>
        <pt x="575" y="52" on="1"/>
        <pt x="583" y="52" on="0"/>
        <pt x="606" y="52" on="0"/>
        <pt x="627" y="54" on="0"/>
        <pt x="642" y="58" on="0"/>
        <pt x="642" y="61" on="1"/>
        <pt x="642" y="63" on="0"/>
        <pt x="636" y="70" on="0"/>
        <pt x="635" y="72" on="1"/>
        <pt x="415" y="338" on="1"/>
        <pt x="304" y="251" on="1"/>
        <pt x="304" y="52" on="1"/>
        <pt x="412" y="52" on="1"/>
        <pt x="412" y="0" on="1"/>
        <pt x="398" y="1" on="0"/>
        <pt x="349" y="2" on="0"/>
        <pt x="296" y="3" on="0"/>
        <pt x="246" y="3" on="0"/>
        <pt x="230" y="3" on="1"/>
        <pt x="214" y="3" on="0"/>
        <pt x="163" y="3" on="0"/>
        <pt x="110" y="2" on="0"/>
        <pt x="61" y="1" on="0"/>
        <pt x="47" y="0" on="1"/>
        <pt x="47" y="52" on="1"/>
        <pt x="155" y="52" on="1"/>
        <pt x="155" y="634" on="1"/>
        <pt x="47" y="634" on="1"/>
        <pt x="47" y="686" on="1"/>
        <pt x="61" y="685" on="0"/>
        <pt x="110" y="684" on="0"/>
        <pt x="163" y="683" on="0"/>
        <pt x="214" y="683" on="0"/>
        <pt x="230" y="683" on="1"/>
        <pt x="246" y="683" on="0"/>
        <pt x="296" y="683" on="0"/>
        <pt x="349" y="684" on="0"/>
        <pt x="398" y="685" on="0"/>
        <pt x="412" y="686" on="1"/>
        <pt x="412" y="634" on="1"/>
        <pt x="304" y="634" on="1"/>
        <pt x="304" y="322" on="1"/>
        <pt x="692" y="625" on="1"/>
        <pt x="672" y="632" on="0"/>
        <pt x="642" y="634" on="0"/>
        <pt x="628" y="634" on="1"/>
        <pt x="628" y="686" on="1"/>
        <pt x="652" y="685" on="0"/>
        <pt x="699" y="684" on="0"/>
        <pt x="738" y="683" on="0"/>
        <pt x="767" y="683" on="0"/>
        <pt x="772" y="683" on="1"/>
        <pt x="781" y="683" on="0"/>
        <pt x="811" y="683" on="0"/>
        <pt x="844" y="684" on="0"/>
        <pt x="876" y="685" on="0"/>
        <pt x="887" y="686" on="1"/>
        <pt x="887" y="634" on="1"/>
        <pt x="866" y="634" on="1"/>
        <pt x="844" y="634" on="0"/>
        <pt x="791" y="630" on="0"/>
        <pt x="775" y="618" on="1"/>
        <pt x="518" y="418" on="1"/>
      </contour>
    </TTGlyph>
    <TTGlyph name="L" xMin="47" yMin="0" xMax="683" yMax="686">
      <contour>
        <pt x="650" y="0" on="1"/>
        <pt x="47" y="0" on="1"/>
        <pt x="47" y="52" on="1"/>
        <pt x="155" y="52" on="1"/>
        <pt x="155" y="634" on="1"/>
        <pt x="47" y="634" on="1"/>
        <pt x="47" y="686" on="1"/>
        <pt x="61" y="685" on="0"/>
        <pt x="112" y="684" on="0"/>
        <pt x="168" y="683" on="0"/>
        <pt x="221" y="683" on="0"/>
        <pt x="237" y="683" on="1"/>
        <pt x="254" y="683" on="0"/>
        <pt x="310" y="683" on="0"/>
        <pt x="371" y="684" on="0"/>
        <pt x="425" y="685" on="0"/>
        <pt x="439" y="686" on="1"/>
        <pt x="439" y="634" on="1"/>
        <pt x="304" y="634" on="1"/>
        <pt x="304" y="52" on="1"/>
        <pt x="414" y="52" on="1"/>
        <pt x="484" y="52" on="0"/>
        <pt x="566" y="102" on="0"/>
        <pt x="609" y="173" on="0"/>
        <pt x="624" y="249" on="0"/>
        <pt x="627" y="275" on="1"/>
        <pt x="683" y="275" on="1"/>
      </contour>
    </TTGlyph>
    <TTGlyph name="Lambda" xMin="44" yMin="0" xMax="809" yMax="701">
      <contour>
        <pt x="723" y="52" on="1"/>
        <pt x="809" y="52" on="1"/>
        <pt x="809" y="0" on="1"/>
        <pt x="779" y="1" on="0"/>
        <pt x="743" y="2" on="0"/>
        <pt x="712" y="3" on="0"/>
        <pt x="676" y="3" on="0"/>
        <pt x="646" y="3" on="1"/>
        <pt x="630" y="3" on="0"/>
        <pt x="581" y="3" on="0"/>
        <pt x="530" y="2" on="0"/>
        <pt x="483" y="1" on="0"/>
        <pt x="469" y="0" on="1"/>
        <pt x="469" y="52" on="1"/>
        <pt x="562" y="52" on="1"/>
        <pt x="382" y="501" on="1"/>
        <pt x="211" y="76" on="1"/>
        <pt x="209" y="71" on="0"/>
        <pt x="208" y="66" on="0"/>
        <pt x="206" y="60" on="1"/>
        <pt x="229" y="54" on="0"/>
        <pt x="281" y="52" on="0"/>
        <pt x="295" y="52" on="1"/>
        <pt x="295" y="0" on="1"/>
        <pt x="265" y="1" on="0"/>
        <pt x="231" y="2" on="0"/>
        <pt x="206" y="3" on="0"/>
        <pt x="182" y="3" on="0"/>
        <pt x="162" y="3" on="1"/>
        <pt x="152" y="3" on="0"/>
        <pt x="124" y="3" on="0"/>
        <pt x="92" y="2" on="0"/>
        <pt x="59" y="1" on="0"/>
        <pt x="44" y="0" on="1"/>
        <pt x="44" y="52" on="1"/>
        <pt x="63" y="52" on="1"/>
        <pt x="86" y="52" on="0"/>
        <pt x="108" y="55" on="1"/>
        <pt x="125" y="57" on="0"/>
        <pt x="133" y="62" on="0"/>
        <pt x="138" y="73" on="1"/>
        <pt x="380" y="673" on="1"/>
        <pt x="388" y="691" on="0"/>
        <pt x="404" y="701" on="0"/>
        <pt x="427" y="701" on="1"/>
        <pt x="443" y="701" on="0"/>
        <pt x="466" y="694" on="0"/>
        <pt x="474" y="673" on="1"/>
      </contour>
    </TTGlyph>
    <TTGlyph name="M" xMin="50" yMin="0" xMax="1108" yMax="686">
      <contour>
        <pt x="831" y="657" on="1"/>
        <pt x="842" y="678" on="0"/>
        <pt x="863" y="686" on="0"/>
        <pt x="880" y="686" on="1"/>
        <pt x="1108" y="686" on="1"/>
        <pt x="1108" y="634" on="1"/>
        <pt x="1000" y="634" on="1"/>
        <pt x="1000" y="52" on="1"/>
        <pt x="1108" y="52" on="1"/>
        <pt x="1108" y="0" on="1"/>
        <pt x="1093" y="1" on="0"/>
        <pt x="1047" y="2" on="0"/>
        <pt x="999" y="3" on="0"/>
        <pt x="952" y="3" on="0"/>
        <pt x="935" y="3" on="1"/>
        <pt x="918" y="3" on="0"/>
        <pt x="871" y="3" on="0"/>
        <pt x="823" y="2" on="0"/>
        <pt x="777" y="1" on="0"/>
        <pt x="762" y="0" on="1"/>
        <pt x="762" y="52" on="1"/>
        <pt x="870" y="52" on="1"/>
        <pt x="870" y="632" on="1"/>
        <pt x="869" y="632" on="1"/>
        <pt x="581" y="29" on="1"/>
        <pt x="576" y="20" on="0"/>
        <pt x="561" y="0" on="0"/>
        <pt x="542" y="0" on="1"/>
        <pt x="526" y="0" on="0"/>
        <pt x="509" y="16" on="0"/>
        <pt x="502" y="30" on="1"/>
        <pt x="221" y="619" on="1"/>
        <pt x="220" y="619" on="1"/>
        <pt x="220" y="79" on="1"/>
        <pt x="220" y="64" on="0"/>
        <pt x="227" y="57" on="0"/>
        <pt x="247" y="55" on="1"/>
        <pt x="264" y="53" on="0"/>
        <pt x="281" y="52" on="0"/>
        <pt x="300" y="52" on="1"/>
        <pt x="328" y="52" on="1"/>
        <pt x="328" y="0" on="1"/>
        <pt x="298" y="1" on="0"/>
        <pt x="264" y="2" on="0"/>
        <pt x="237" y="3" on="0"/>
        <pt x="211" y="3" on="0"/>
        <pt x="189" y="3" on="1"/>
        <pt x="167" y="3" on="0"/>
        <pt x="141" y="3" on="0"/>
        <pt x="114" y="2" on="0"/>
        <pt x="80" y="1" on="0"/>
        <pt x="50" y="0" on="1"/>
        <pt x="50" y="52" on="1"/>
        <pt x="78" y="52" on="1"/>
        <pt x="85" y="52" on="0"/>
        <pt x="119" y="53" on="0"/>
        <pt x="129" y="54" on="1"/>
        <pt x="150" y="56" on="0"/>
        <pt x="158" y="63" on="0"/>
        <pt x="158" y="79" on="1"/>
        <pt x="158" y="634" on="1"/>
        <pt x="50" y="634" on="1"/>
        <pt x="50" y="686" on="1"/>
        <pt x="278" y="686" on="1"/>
        <pt x="295" y="686" on="0"/>
        <pt x="317" y="679" on="0"/>
        <pt x="328" y="656" on="1"/>
        <pt x="579" y="130" on="1"/>
      </contour>
    </TTGlyph>
    <TTGlyph name="N" xMin="47" yMin="0" xMax="907" yMax="686">
      <contour>
        <pt x="737" y="207" on="1"/>
        <pt x="737" y="607" on="1"/>
        <pt x="737" y="622" on="0"/>
        <pt x="730" y="629" on="0"/>
        <pt x="710" y="631" on="1"/>
        <pt x="701" y="632" on="0"/>
        <pt x="690" y="633" on="0"/>
        <pt x="679" y="634" on="0"/>
        <pt x="667" y="634" on="0"/>
        <pt x="657" y="634" on="1"/>
        <pt x="629" y="634" on="1"/>
        <pt x="629" y="686" on="1"/>
        <pt x="659" y="685" on="0"/>
        <pt x="693" y="684" on="0"/>
        <pt x="720" y="683" on="0"/>
        <pt x="746" y="683" on="0"/>
        <pt x="768" y="683" on="1"/>
        <pt x="790" y="683" on="0"/>
        <pt x="816" y="683" on="0"/>
        <pt x="843" y="684" on="0"/>
        <pt x="877" y="685" on="0"/>
        <pt x="907" y="686" on="1"/>
        <pt x="907" y="634" on="1"/>
        <pt x="879" y="634" on="1"/>
        <pt x="872" y="634" on="0"/>
        <pt x="838" y="633" on="0"/>
        <pt x="828" y="632" on="1"/>
        <pt x="807" y="630" on="0"/>
        <pt x="799" y="623" on="0"/>
        <pt x="799" y="607" on="1"/>
        <pt x="799" y="34" on="1"/>
        <pt x="799" y="16" on="0"/>
        <pt x="791" y="0" on="0"/>
        <pt x="768" y="0" on="1"/>
        <pt x="757" y="0" on="0"/>
        <pt x="745" y="3" on="0"/>
        <pt x="737" y="12" on="1"/>
        <pt x="217" y="588" on="1"/>
        <pt x="217" y="79" on="1"/>
        <pt x="217" y="64" on="0"/>
        <pt x="224" y="57" on="0"/>
        <pt x="244" y="55" on="1"/>
        <pt x="261" y="53" on="0"/>
        <pt x="278" y="52" on="0"/>
        <pt x="297" y="52" on="1"/>
        <pt x="325" y="52" on="1"/>
        <pt x="325" y="0" on="1"/>
        <pt x="295" y="1" on="0"/>
        <pt x="261" y="2" on="0"/>
        <pt x="234" y="3" on="0"/>
        <pt x="208" y="3" on="0"/>
        <pt x="186" y="3" on="1"/>
        <pt x="164" y="3" on="0"/>
        <pt x="138" y="3" on="0"/>
        <pt x="111" y="2" on="0"/>
        <pt x="77" y="1" on="0"/>
        <pt x="47" y="0" on="1"/>
        <pt x="47" y="52" on="1"/>
        <pt x="75" y="52" on="1"/>
        <pt x="82" y="52" on="0"/>
        <pt x="116" y="53" on="0"/>
        <pt x="126" y="54" on="1"/>
        <pt x="147" y="56" on="0"/>
        <pt x="155" y="63" on="0"/>
        <pt x="155" y="79" on="1"/>
        <pt x="155" y="634" on="1"/>
        <pt x="47" y="634" on="1"/>
        <pt x="47" y="686" on="1"/>
        <pt x="281" y="686" on="1"/>
        <pt x="297" y="686" on="0"/>
        <pt x="306" y="682" on="0"/>
        <pt x="316" y="672" on="1"/>
      </contour>
    </TTGlyph>
    <TTGlyph name="O" xMin="68" yMin="-14" xMax="851" yMax="700">
      <contour>
        <pt x="851" y="339" on="1"/>
        <pt x="851" y="266" on="0"/>
        <pt x="801" y="137" on="0"/>
        <pt x="702" y="41" on="0"/>
        <pt x="555" y="-14" on="0"/>
        <pt x="459" y="-14" on="1"/>
        <pt x="365" y="-14" on="0"/>
        <pt x="220" y="40" on="0"/>
        <pt x="120" y="134" on="0"/>
        <pt x="68" y="264" on="0"/>
        <pt x="68" y="339" on="1"/>
        <pt x="68" y="416" on="0"/>
        <pt x="120" y="547" on="0"/>
        <pt x="219" y="645" on="0"/>
        <pt x="365" y="700" on="0"/>
        <pt x="459" y="700" on="1"/>
        <pt x="555" y="700" on="0"/>
        <pt x="701" y="644" on="0"/>
        <pt x="800" y="546" on="0"/>
        <pt x="851" y="414" on="0"/>
      </contour>
      <contour>
        <pt x="460" y="35" on="1"/>
        <pt x="516" y="35" on="0"/>
        <pt x="615" y="85" on="0"/>
        <pt x="644" y="133" on="1"/>
        <pt x="669" y="174" on="0"/>
        <pt x="691" y="276" on="0"/>
        <pt x="691" y="354" on="1"/>
        <pt x="691" y="378" on="0"/>
        <pt x="688" y="433" on="0"/>
        <pt x="678" y="489" on="0"/>
        <pt x="657" y="545" on="0"/>
        <pt x="639" y="569" on="1"/>
        <pt x="608" y="611" on="0"/>
        <pt x="513" y="653" on="0"/>
        <pt x="459" y="653" on="1"/>
        <pt x="426" y="653" on="0"/>
        <pt x="370" y="638" on="0"/>
        <pt x="326" y="615" on="0"/>
        <pt x="294" y="588" on="0"/>
        <pt x="284" y="575" on="1"/>
        <pt x="250" y="530" on="0"/>
        <pt x="228" y="424" on="0"/>
        <pt x="228" y="354" on="1"/>
        <pt x="228" y="335" on="0"/>
        <pt x="230" y="283" on="0"/>
        <pt x="238" y="225" on="0"/>
        <pt x="255" y="167" on="0"/>
        <pt x="270" y="141" on="1"/>
        <pt x="290" y="108" on="0"/>
        <pt x="338" y="67" on="0"/>
        <pt x="389" y="43" on="0"/>
        <pt x="439" y="35" on="0"/>
      </contour>
    </TTGlyph>
    <TTGlyph name="OE" xMin="87" yMin="-14" xMax="1209" yMax="700">
      <contour>
        <pt x="1160" y="0" on="1"/>
        <pt x="691" y="0" on="1"/>
        <pt x="683" y="0" on="0"/>
        <pt x="637" y="-3" on="0"/>
        <pt x="586" y="-8" on="1"/>
        <pt x="567" y="-10" on="0"/>
        <pt x="517" y="-14" on="0"/>
        <pt x="494" y="-14" on="1"/>
        <pt x="395" y="-14" on="0"/>
        <pt x="243" y="41" on="0"/>
        <pt x="140" y="137" on="0"/>
        <pt x="87" y="266" on="0"/>
        <pt x="87" y="339" on="1"/>
        <pt x="87" y="414" on="0"/>
        <pt x="139" y="545" on="0"/>
        <pt x="242" y="643" on="0"/>
        <pt x="394" y="700" on="0"/>
        <pt x="494" y="700" on="1"/>
        <pt x="499" y="700" on="0"/>
        <pt x="515" y="700" on="0"/>
        <pt x="541" y="698" on="0"/>
        <pt x="578" y="695" on="0"/>
        <pt x="605" y="692" on="1"/>
        <pt x="635" y="689" on="0"/>
        <pt x="680" y="686" on="0"/>
        <pt x="691" y="686" on="1"/>
        <pt x="1142" y="686" on="1"/>
        <pt x="1175" y="443" on="1"/>
        <pt x="1119" y="443" on="1"/>
        <pt x="1113" y="490" on="0"/>
        <pt x="1091" y="562" on="0"/>
        <pt x="1047" y="610" on="0"/>
        <pt x="974" y="634" on="0"/>
        <pt x="917" y="634" on="1"/>
        <pt x="761" y="634" on="1"/>
        <pt x="761" y="382" on="1"/>
        <pt x="857" y="382" on="1"/>
        <pt x="889" y="382" on="0"/>
        <pt x="937" y="391" on="0"/>
        <pt x="969" y="416" on="0"/>
        <pt x="984" y="461" on="0"/>
        <pt x="984" y="497" on="1"/>
        <pt x="1040" y="497" on="1"/>
        <pt x="1040" y="215" on="1"/>
        <pt x="984" y="215" on="1"/>
        <pt x="984" y="251" on="0"/>
        <pt x="969" y="296" on="0"/>
        <pt x="937" y="321" on="0"/>
        <pt x="889" y="330" on="0"/>
        <pt x="857" y="330" on="1"/>
        <pt x="761" y="330" on="1"/>
        <pt x="761" y="52" on="1"/>
        <pt x="919" y="52" on="1"/>
        <pt x="987" y="52" on="0"/>
        <pt x="1071" y="83" on="0"/>
        <pt x="1120" y="142" on="0"/>
        <pt x="1144" y="224" on="0"/>
        <pt x="1153" y="275" on="1"/>
        <pt x="1209" y="275" on="1"/>
      </contour>
      <contour>
        <pt x="631" y="488" on="1"/>
        <pt x="631" y="545" on="0"/>
        <pt x="616" y="612" on="0"/>
        <pt x="584" y="647" on="0"/>
        <pt x="535" y="658" on="0"/>
        <pt x="500" y="658" on="1"/>
        <pt x="442" y="658" on="0"/>
        <pt x="346" y="617" on="0"/>
        <pt x="278" y="539" on="0"/>
        <pt x="241" y="426" on="0"/>
        <pt x="241" y="355" on="1"/>
        <pt x="241" y="280" on="0"/>
        <pt x="277" y="160" on="0"/>
        <pt x="345" y="74" on="0"/>
        <pt x="440" y="28" on="0"/>
        <pt x="500" y="28" on="1"/>
        <pt x="535" y="28" on="0"/>
        <pt x="584" y="39" on="0"/>
        <pt x="616" y="75" on="0"/>
        <pt x="631" y="142" on="0"/>
        <pt x="631" y="198" on="1"/>
      </contour>
    </TTGlyph>
    <TTGlyph name="Oslash" xMin="68" yMin="-63" xMax="884" yMax="749">
      <contour>
        <pt x="724" y="637" on="1"/>
        <pt x="770" y="609" on="0"/>
        <pt x="832" y="536" on="0"/>
        <pt x="869" y="457" on="0"/>
        <pt x="884" y="375" on="0"/>
        <pt x="884" y="339" on="1"/>
        <pt x="884" y="267" on="0"/>
        <pt x="832" y="138" on="0"/>
        <pt x="730" y="42" on="0"/>
        <pt x="577" y="-14" on="0"/>
        <pt x="476" y="-14" on="1"/>
        <pt x="431" y="-14" on="0"/>
        <pt x="323" y="2" on="0"/>
        <pt x="269" y="26" on="1"/>
        <pt x="203" y="-63" on="1"/>
        <pt x="166" y="-35" on="1"/>
        <pt x="227" y="48" on="1"/>
        <pt x="172" y="81" on="0"/>
        <pt x="109" y="164" on="0"/>
        <pt x="77" y="246" on="0"/>
        <pt x="68" y="317" on="0"/>
        <pt x="68" y="339" on="1"/>
        <pt x="68" y="412" on="0"/>
        <pt x="119" y="543" on="0"/>
        <pt x="221" y="642" on="0"/>
        <pt x="374" y="700" on="0"/>
        <pt x="476" y="700" on="1"/>
        <pt x="528" y="700" on="0"/>
        <pt x="635" y="681" on="0"/>
        <pt x="683" y="660" on="1"/>
        <pt x="749" y="749" on="1"/>
        <pt x="786" y="721" on="1"/>
      </contour>
      <contour>
        <pt x="643" y="608" on="1"/>
        <pt x="614" y="631" on="0"/>
        <pt x="529" y="658" on="0"/>
        <pt x="476" y="658" on="1"/>
        <pt x="456" y="658" on="0"/>
        <pt x="405" y="652" on="0"/>
        <pt x="352" y="635" on="0"/>
        <pt x="300" y="605" on="0"/>
        <pt x="278" y="580" on="1"/>
        <pt x="256" y="555" on="0"/>
        <pt x="231" y="493" on="0"/>
        <pt x="219" y="428" on="0"/>
        <pt x="217" y="366" on="0"/>
        <pt x="217" y="340" on="1"/>
        <pt x="217" y="311" on="0"/>
        <pt x="220" y="250" on="0"/>
        <pt x="231" y="190" on="0"/>
        <pt x="254" y="134" on="0"/>
        <pt x="273" y="110" on="1"/>
      </contour>
      <contour>
        <pt x="308" y="77" on="1"/>
        <pt x="333" y="57" on="0"/>
        <pt x="418" y="28" on="0"/>
        <pt x="476" y="28" on="1"/>
        <pt x="541" y="28" on="0"/>
        <pt x="643" y="69" on="0"/>
        <pt x="675" y="105" on="1"/>
        <pt x="695" y="129" on="0"/>
        <pt x="719" y="183" on="0"/>
        <pt x="731" y="242" on="0"/>
        <pt x="735" y="306" on="0"/>
        <pt x="735" y="340" on="1"/>
        <pt x="735" y="374" on="0"/>
        <pt x="731" y="438" on="0"/>
        <pt x="719" y="497" on="0"/>
        <pt x="697" y="551" on="0"/>
        <pt x="678" y="575" on="1"/>
      </contour>
    </TTGlyph>
    <TTGlyph name="P" xMin="47" yMin="0" xMax="766" yMax="686">
      <contour>
        <pt x="304" y="52" on="1"/>
        <pt x="412" y="52" on="1"/>
        <pt x="412" y="0" on="1"/>
        <pt x="398" y="1" on="0"/>
        <pt x="349" y="2" on="0"/>
        <pt x="296" y="3" on="0"/>
        <pt x="246" y="3" on="0"/>
        <pt x="230" y="3" on="1"/>
        <pt x="214" y="3" on="0"/>
        <pt x="163" y="3" on="0"/>
        <pt x="110" y="2" on="0"/>
        <pt x="61" y="1" on="0"/>
        <pt x="47" y="0" on="1"/>
        <pt x="47" y="52" on="1"/>
        <pt x="155" y="52" on="1"/>
        <pt x="155" y="634" on="1"/>
        <pt x="47" y="634" on="1"/>
        <pt x="47" y="686" on="1"/>
        <pt x="485" y="686" on="1"/>
        <pt x="553" y="686" on="0"/>
        <pt x="657" y="655" on="0"/>
        <pt x="729" y="601" on="0"/>
        <pt x="766" y="530" on="0"/>
        <pt x="766" y="489" on="1"/>
        <pt x="766" y="449" on="0"/>
        <pt x="729" y="379" on="0"/>
        <pt x="657" y="326" on="0"/>
        <pt x="552" y="296" on="0"/>
        <pt x="485" y="296" on="1"/>
        <pt x="304" y="296" on="1"/>
      </contour>
      <contour>
        <pt x="298" y="634" on="1"/>
        <pt x="298" y="343" on="1"/>
        <pt x="447" y="343" on="1"/>
        <pt x="507" y="343" on="0"/>
        <pt x="571" y="369" on="0"/>
        <pt x="601" y="411" on="0"/>
        <pt x="606" y="463" on="0"/>
        <pt x="606" y="489" on="1"/>
        <pt x="606" y="515" on="0"/>
        <pt x="601" y="567" on="0"/>
        <pt x="571" y="608" on="0"/>
        <pt x="507" y="634" on="0"/>
        <pt x="448" y="634" on="1"/>
      </contour>
    </TTGlyph>
    <TTGlyph name="Phi" xMin="68" yMin="0" xMax="816" yMax="686">
      <contour>
        <pt x="504" y="634" on="1"/>
        <pt x="504" y="529" on="1"/>
        <pt x="564" y="527" on="0"/>
        <pt x="677" y="500" on="0"/>
        <pt x="764" y="452" on="0"/>
        <pt x="816" y="385" on="0"/>
        <pt x="816" y="343" on="1"/>
        <pt x="816" y="301" on="0"/>
        <pt x="764" y="234" on="0"/>
        <pt x="677" y="186" on="0"/>
        <pt x="564" y="159" on="0"/>
        <pt x="504" y="157" on="1"/>
        <pt x="504" y="52" on="1"/>
        <pt x="639" y="52" on="1"/>
        <pt x="639" y="0" on="1"/>
        <pt x="625" y="1" on="0"/>
        <pt x="571" y="2" on="0"/>
        <pt x="510" y="3" on="0"/>
        <pt x="453" y="3" on="0"/>
        <pt x="436" y="3" on="1"/>
        <pt x="419" y="3" on="0"/>
        <pt x="362" y="3" on="0"/>
        <pt x="301" y="2" on="0"/>
        <pt x="247" y="1" on="0"/>
        <pt x="233" y="0" on="1"/>
        <pt x="233" y="52" on="1"/>
        <pt x="368" y="52" on="1"/>
        <pt x="368" y="157" on="1"/>
        <pt x="301" y="162" on="0"/>
        <pt x="190" y="193" on="0"/>
        <pt x="111" y="242" on="0"/>
        <pt x="68" y="306" on="0"/>
        <pt x="68" y="343" on="1"/>
        <pt x="68" y="380" on="0"/>
        <pt x="111" y="444" on="0"/>
        <pt x="190" y="493" on="0"/>
        <pt x="301" y="524" on="0"/>
        <pt x="368" y="529" on="1"/>
        <pt x="368" y="634" on="1"/>
        <pt x="233" y="634" on="1"/>
        <pt x="233" y="686" on="1"/>
        <pt x="247" y="685" on="0"/>
        <pt x="301" y="684" on="0"/>
        <pt x="362" y="683" on="0"/>
        <pt x="419" y="683" on="0"/>
        <pt x="436" y="683" on="1"/>
        <pt x="453" y="683" on="0"/>
        <pt x="510" y="683" on="0"/>
        <pt x="571" y="684" on="0"/>
        <pt x="625" y="685" on="0"/>
        <pt x="639" y="686" on="1"/>
        <pt x="639" y="634" on="1"/>
      </contour>
      <contour>
        <pt x="368" y="486" on="1"/>
        <pt x="324" y="481" on="0"/>
        <pt x="268" y="456" on="0"/>
        <pt x="235" y="419" on="0"/>
        <pt x="222" y="371" on="0"/>
        <pt x="222" y="343" on="1"/>
        <pt x="222" y="315" on="0"/>
        <pt x="234" y="268" on="0"/>
        <pt x="267" y="230" on="0"/>
        <pt x="323" y="205" on="0"/>
        <pt x="368" y="200" on="1"/>
      </contour>
      <contour>
        <pt x="504" y="199" on="1"/>
        <pt x="552" y="203" on="0"/>
        <pt x="614" y="228" on="0"/>
        <pt x="649" y="265" on="0"/>
        <pt x="662" y="315" on="0"/>
        <pt x="662" y="343" on="1"/>
        <pt x="662" y="371" on="0"/>
        <pt x="649" y="420" on="0"/>
        <pt x="614" y="458" on="0"/>
        <pt x="553" y="483" on="0"/>
        <pt x="504" y="487" on="1"/>
      </contour>
    </TTGlyph>
    <TTGlyph name="Pi" xMin="47" yMin="0" xMax="907" yMax="680">
      <contour>
        <pt x="799" y="52" on="1"/>
        <pt x="907" y="52" on="1"/>
        <pt x="907" y="0" on="1"/>
        <pt x="893" y="1" on="0"/>
        <pt x="844" y="2" on="0"/>
        <pt x="791" y="3" on="0"/>
        <pt x="741" y="3" on="0"/>
        <pt x="725" y="3" on="1"/>
        <pt x="709" y="3" on="0"/>
        <pt x="658" y="3" on="0"/>
        <pt x="605" y="2" on="0"/>
        <pt x="556" y="1" on="0"/>
        <pt x="542" y="0" on="1"/>
        <pt x="542" y="52" on="1"/>
        <pt x="650" y="52" on="1"/>
        <pt x="650" y="628" on="1"/>
        <pt x="304" y="628" on="1"/>
        <pt x="304" y="52" on="1"/>
        <pt x="412" y="52" on="1"/>
        <pt x="412" y="0" on="1"/>
        <pt x="398" y="1" on="0"/>
        <pt x="349" y="2" on="0"/>
        <pt x="296" y="3" on="0"/>
        <pt x="246" y="3" on="0"/>
        <pt x="230" y="3" on="1"/>
        <pt x="214" y="3" on="0"/>
        <pt x="163" y="3" on="0"/>
        <pt x="110" y="2" on="0"/>
        <pt x="61" y="1" on="0"/>
        <pt x="47" y="0" on="1"/>
        <pt x="47" y="52" on="1"/>
        <pt x="155" y="52" on="1"/>
        <pt x="155" y="628" on="1"/>
        <pt x="47" y="628" on="1"/>
        <pt x="47" y="680" on="1"/>
        <pt x="907" y="680" on="1"/>
        <pt x="907" y="628" on="1"/>
        <pt x="799" y="628" on="1"/>
      </contour>
    </TTGlyph>
    <TTGlyph name="Psi" xMin="68" yMin="0" xMax="884" yMax="686">
      <contour>
        <pt x="538" y="204" on="1"/>
        <pt x="613" y="220" on="0"/>
        <pt x="680" y="326" on="0"/>
        <pt x="680" y="400" on="1"/>
        <pt x="681" y="480" on="0"/>
        <pt x="732" y="545" on="0"/>
        <pt x="778" y="545" on="1"/>
        <pt x="850" y="545" on="1"/>
        <pt x="861" y="545" on="0"/>
        <pt x="884" y="540" on="0"/>
        <pt x="884" y="524" on="1"/>
        <pt x="884" y="516" on="0"/>
        <pt x="873" y="505" on="0"/>
        <pt x="867" y="503" on="1"/>
        <pt x="853" y="501" on="0"/>
        <pt x="837" y="494" on="0"/>
        <pt x="829" y="478" on="1"/>
        <pt x="820" y="460" on="0"/>
        <pt x="816" y="419" on="0"/>
        <pt x="816" y="399" on="1"/>
        <pt x="816" y="390" on="0"/>
        <pt x="811" y="352" on="0"/>
        <pt x="796" y="306" on="0"/>
        <pt x="767" y="254" on="0"/>
        <pt x="742" y="231" on="1"/>
        <pt x="704" y="196" on="0"/>
        <pt x="592" y="162" on="0"/>
        <pt x="538" y="157" on="1"/>
        <pt x="538" y="52" on="1"/>
        <pt x="673" y="52" on="1"/>
        <pt x="673" y="0" on="1"/>
        <pt x="659" y="1" on="0"/>
        <pt x="605" y="2" on="0"/>
        <pt x="544" y="3" on="0"/>
        <pt x="487" y="3" on="0"/>
        <pt x="470" y="3" on="1"/>
        <pt x="453" y="3" on="0"/>
        <pt x="396" y="3" on="0"/>
        <pt x="335" y="2" on="0"/>
        <pt x="281" y="1" on="0"/>
        <pt x="267" y="0" on="1"/>
        <pt x="267" y="52" on="1"/>
        <pt x="402" y="52" on="1"/>
        <pt x="402" y="158" on="1"/>
        <pt x="267" y="169" on="0"/>
        <pt x="138" y="302" on="0"/>
        <pt x="136" y="420" on="1"/>
        <pt x="136" y="437" on="0"/>
        <pt x="128" y="471" on="0"/>
        <pt x="119" y="485" on="1"/>
        <pt x="111" y="496" on="0"/>
        <pt x="97" y="501" on="0"/>
        <pt x="86" y="503" on="1"/>
        <pt x="80" y="504" on="0"/>
        <pt x="68" y="514" on="0"/>
        <pt x="68" y="524" on="1"/>
        <pt x="68" y="540" on="0"/>
        <pt x="92" y="545" on="0"/>
        <pt x="103" y="545" on="1"/>
        <pt x="174" y="545" on="1"/>
        <pt x="208" y="545" on="0"/>
        <pt x="247" y="513" on="0"/>
        <pt x="267" y="471" on="0"/>
        <pt x="272" y="429" on="0"/>
        <pt x="272" y="418" on="1"/>
        <pt x="272" y="388" on="0"/>
        <pt x="280" y="323" on="0"/>
        <pt x="306" y="263" on="0"/>
        <pt x="357" y="216" on="0"/>
        <pt x="402" y="205" on="1"/>
        <pt x="402" y="634" on="1"/>
        <pt x="267" y="634" on="1"/>
        <pt x="267" y="686" on="1"/>
        <pt x="281" y="685" on="0"/>
        <pt x="335" y="684" on="0"/>
        <pt x="396" y="683" on="0"/>
        <pt x="453" y="683" on="0"/>
        <pt x="470" y="683" on="1"/>
        <pt x="487" y="683" on="0"/>
        <pt x="544" y="683" on="0"/>
        <pt x="605" y="684" on="0"/>
        <pt x="659" y="685" on="0"/>
        <pt x="673" y="686" on="1"/>
        <pt x="673" y="634" on="1"/>
        <pt x="538" y="634" on="1"/>
      </contour>
    </TTGlyph>
    <TTGlyph name="Q" xMin="68" yMin="-194" xMax="858" yMax="700">
      <contour>
        <pt x="636" y="16" on="1"/>
        <pt x="651" y="-3" on="0"/>
        <pt x="677" y="-23" on="0"/>
        <pt x="700" y="-32" on="0"/>
        <pt x="720" y="-34" on="0"/>
        <pt x="729" y="-34" on="1"/>
        <pt x="735" y="-34" on="0"/>
        <pt x="763" y="-33" on="0"/>
        <pt x="791" y="-27" on="0"/>
        <pt x="815" y="-15" on="0"/>
        <pt x="816" y="-3" on="1"/>
        <pt x="817" y="3" on="0"/>
        <pt x="823" y="21" on="0"/>
        <pt x="837" y="21" on="1"/>
        <pt x="853" y="21" on="0"/>
        <pt x="858" y="-2" on="0"/>
        <pt x="858" y="-7" on="1"/>
        <pt x="858" y="-35" on="0"/>
        <pt x="841" y="-101" on="0"/>
        <pt x="805" y="-157" on="0"/>
        <pt x="750" y="-194" on="0"/>
        <pt x="711" y="-194" on="1"/>
        <pt x="674" y="-194" on="0"/>
        <pt x="625" y="-162" on="0"/>
        <pt x="592" y="-110" on="0"/>
        <pt x="570" y="-41" on="0"/>
        <pt x="560" y="-5" on="1"/>
        <pt x="526" y="-12" on="0"/>
        <pt x="469" y="-14" on="0"/>
        <pt x="460" y="-14" on="1"/>
        <pt x="364" y="-14" on="0"/>
        <pt x="218" y="41" on="0"/>
        <pt x="119" y="136" on="0"/>
        <pt x="68" y="265" on="0"/>
        <pt x="68" y="339" on="1"/>
        <pt x="68" y="416" on="0"/>
        <pt x="120" y="547" on="0"/>
        <pt x="219" y="645" on="0"/>
        <pt x="365" y="700" on="0"/>
        <pt x="459" y="700" on="1"/>
        <pt x="555" y="700" on="0"/>
        <pt x="701" y="644" on="0"/>
        <pt x="800" y="546" on="0"/>
        <pt x="851" y="414" on="0"/>
        <pt x="851" y="339" on="1"/>
        <pt x="851" y="287" on="0"/>
        <pt x="826" y="190" on="0"/>
        <pt x="773" y="106" on="0"/>
        <pt x="692" y="39" on="0"/>
      </contour>
      <contour>
        <pt x="355" y="55" on="1"/>
        <pt x="353" y="65" on="0"/>
        <pt x="353" y="73" on="1"/>
        <pt x="353" y="92" on="0"/>
        <pt x="370" y="123" on="0"/>
        <pt x="399" y="146" on="0"/>
        <pt x="438" y="158" on="0"/>
        <pt x="459" y="158" on="1"/>
        <pt x="483" y="158" on="0"/>
        <pt x="523" y="142" on="0"/>
        <pt x="556" y="117" on="0"/>
        <pt x="582" y="87" on="0"/>
        <pt x="593" y="72" on="1"/>
        <pt x="632" y="97" on="0"/>
        <pt x="674" y="171" on="0"/>
        <pt x="694" y="249" on="0"/>
        <pt x="697" y="319" on="0"/>
        <pt x="697" y="339" on="1"/>
        <pt x="697" y="362" on="0"/>
        <pt x="694" y="419" on="0"/>
        <pt x="683" y="480" on="0"/>
        <pt x="661" y="541" on="0"/>
        <pt x="641" y="567" on="1"/>
        <pt x="607" y="612" on="0"/>
        <pt x="510" y="653" on="0"/>
        <pt x="459" y="653" on="1"/>
        <pt x="436" y="653" on="0"/>
        <pt x="387" y="644" on="0"/>
        <pt x="339" y="623" on="0"/>
        <pt x="294" y="590" on="0"/>
        <pt x="276" y="565" on="1"/>
        <pt x="257" y="538" on="0"/>
        <pt x="235" y="477" on="0"/>
        <pt x="225" y="416" on="0"/>
        <pt x="222" y="360" on="0"/>
        <pt x="222" y="339" on="1"/>
        <pt x="222" y="296" on="0"/>
        <pt x="232" y="212" on="0"/>
        <pt x="260" y="137" on="0"/>
        <pt x="312" y="76" on="0"/>
      </contour>
      <contour>
        <pt x="542" y="47" on="1"/>
        <pt x="529" y="78" on="0"/>
        <pt x="493" y="116" on="0"/>
        <pt x="459" y="116" on="1"/>
        <pt x="437" y="116" on="0"/>
        <pt x="395" y="95" on="0"/>
        <pt x="395" y="73" on="1"/>
        <pt x="395" y="50" on="0"/>
        <pt x="437" y="33" on="0"/>
        <pt x="460" y="33" on="1"/>
        <pt x="466" y="33" on="0"/>
        <pt x="515" y="36" on="0"/>
      </contour>
    </TTGlyph>
    <TTGlyph name="R" xMin="47" yMin="-14" xMax="911" yMax="686">
      <contour>
        <pt x="596" y="340" on="1"/>
        <pt x="633" y="326" on="0"/>
        <pt x="675" y="291" on="0"/>
        <pt x="698" y="249" on="0"/>
        <pt x="707" y="202" on="0"/>
        <pt x="710" y="177" on="1"/>
        <pt x="714" y="145" on="0"/>
        <pt x="723" y="91" on="0"/>
        <pt x="740" y="51" on="0"/>
        <pt x="768" y="28" on="0"/>
        <pt x="792" y="28" on="1"/>
        <pt x="798" y="28" on="0"/>
        <pt x="818" y="33" on="0"/>
        <pt x="838" y="48" on="0"/>
        <pt x="853" y="77" on="0"/>
        <pt x="855" y="100" on="1"/>
        <pt x="856" y="111" on="0"/>
        <pt x="867" y="123" on="0"/>
        <pt x="883" y="123" on="1"/>
        <pt x="892" y="123" on="0"/>
        <pt x="911" y="115" on="0"/>
        <pt x="911" y="98" on="1"/>
        <pt x="911" y="89" on="0"/>
        <pt x="902" y="52" on="0"/>
        <pt x="875" y="15" on="0"/>
        <pt x="824" y="-14" on="0"/>
        <pt x="782" y="-14" on="1"/>
        <pt x="764" y="-14" on="0"/>
        <pt x="722" y="-11" on="0"/>
        <pt x="678" y="-4" on="0"/>
        <pt x="637" y="8" on="0"/>
        <pt x="620" y="17" on="1"/>
        <pt x="596" y="31" on="0"/>
        <pt x="570" y="62" on="0"/>
        <pt x="558" y="98" on="0"/>
        <pt x="556" y="141" on="0"/>
        <pt x="556" y="166" on="1"/>
        <pt x="556" y="192" on="0"/>
        <pt x="555" y="227" on="0"/>
        <pt x="549" y="253" on="0"/>
        <pt x="537" y="273" on="0"/>
        <pt x="526" y="284" on="1"/>
        <pt x="506" y="305" on="0"/>
        <pt x="455" y="322" on="0"/>
        <pt x="426" y="322" on="1"/>
        <pt x="298" y="322" on="1"/>
        <pt x="298" y="52" on="1"/>
        <pt x="406" y="52" on="1"/>
        <pt x="406" y="0" on="1"/>
        <pt x="391" y="1" on="0"/>
        <pt x="344" y="2" on="0"/>
        <pt x="293" y="3" on="0"/>
        <pt x="244" y="3" on="0"/>
        <pt x="227" y="3" on="1"/>
        <pt x="211" y="3" on="0"/>
        <pt x="161" y="3" on="0"/>
        <pt x="109" y="2" on="0"/>
        <pt x="62" y="1" on="0"/>
        <pt x="47" y="0" on="1"/>
        <pt x="47" y="52" on="1"/>
        <pt x="155" y="52" on="1"/>
        <pt x="155" y="634" on="1"/>
        <pt x="47" y="634" on="1"/>
        <pt x="47" y="686" on="1"/>
        <pt x="445" y="686" on="1"/>
        <pt x="517" y="686" on="0"/>
        <pt x="634" y="657" on="0"/>
        <pt x="717" y="607" on="0"/>
        <pt x="761" y="539" on="0"/>
        <pt x="761" y="499" on="1"/>
        <pt x="761" y="446" on="0"/>
        <pt x="675" y="362" on="0"/>
      </contour>
      <contour>
        <pt x="428" y="364" on="1"/>
        <pt x="491" y="364" on="0"/>
        <pt x="561" y="390" on="0"/>
        <pt x="594" y="429" on="0"/>
        <pt x="601" y="477" on="0"/>
        <pt x="601" y="499" on="1"/>
        <pt x="601" y="522" on="0"/>
        <pt x="594" y="570" on="0"/>
        <pt x="561" y="609" on="0"/>
        <pt x="492" y="634" on="0"/>
        <pt x="431" y="634" on="1"/>
        <pt x="298" y="634" on="1"/>
        <pt x="298" y="364" on="1"/>
      </contour>
    </TTGlyph>
    <TTGlyph name="S" xMin="68" yMin="-14" xMax="612" yMax="700">
      <contour>
        <pt x="427" y="415" on="1"/>
        <pt x="465" y="408" on="0"/>
        <pt x="532" y="370" on="0"/>
        <pt x="582" y="315" on="0"/>
        <pt x="612" y="243" on="0"/>
        <pt x="612" y="202" on="1"/>
        <pt x="612" y="165" on="0"/>
        <pt x="587" y="89" on="0"/>
        <pt x="530" y="26" on="0"/>
        <pt x="438" y="-14" on="0"/>
        <pt x="370" y="-14" on="1"/>
        <pt x="351" y="-14" on="0"/>
        <pt x="298" y="-10" on="0"/>
        <pt x="241" y="1" on="0"/>
        <pt x="182" y="22" on="0"/>
        <pt x="156" y="39" on="1"/>
        <pt x="126" y="10" on="1"/>
        <pt x="109" y="-7" on="0"/>
        <pt x="99" y="-14" on="0"/>
        <pt x="90" y="-14" on="1"/>
        <pt x="73" y="-14" on="0"/>
        <pt x="68" y="3" on="0"/>
        <pt x="68" y="17" on="1"/>
        <pt x="68" y="197" on="1"/>
        <pt x="68" y="214" on="0"/>
        <pt x="75" y="228" on="0"/>
        <pt x="96" y="228" on="1"/>
        <pt x="104" y="228" on="0"/>
        <pt x="123" y="224" on="0"/>
        <pt x="124" y="212" on="1"/>
        <pt x="124" y="200" on="0"/>
        <pt x="128" y="167" on="0"/>
        <pt x="142" y="131" on="0"/>
        <pt x="168" y="95" on="0"/>
        <pt x="192" y="80" on="1"/>
        <pt x="213" y="67" on="0"/>
        <pt x="260" y="50" on="0"/>
        <pt x="307" y="41" on="0"/>
        <pt x="351" y="38" on="0"/>
        <pt x="369" y="38" on="1"/>
        <pt x="417" y="38" on="0"/>
        <pt x="473" y="65" on="0"/>
        <pt x="503" y="103" on="0"/>
        <pt x="511" y="141" on="0"/>
        <pt x="511" y="153" on="1"/>
        <pt x="511" y="170" on="0"/>
        <pt x="500" y="205" on="0"/>
        <pt x="474" y="237" on="0"/>
        <pt x="430" y="262" on="0"/>
        <pt x="398" y="269" on="1"/>
        <pt x="275" y="294" on="1"/>
        <pt x="259" y="297" on="0"/>
        <pt x="219" y="307" on="0"/>
        <pt x="178" y="324" on="0"/>
        <pt x="136" y="352" on="0"/>
        <pt x="116" y="374" on="1"/>
        <pt x="90" y="403" on="0"/>
        <pt x="68" y="466" on="0"/>
        <pt x="68" y="498" on="1"/>
        <pt x="68" y="534" on="0"/>
        <pt x="95" y="607" on="0"/>
        <pt x="153" y="664" on="0"/>
        <pt x="244" y="700" on="0"/>
        <pt x="307" y="700" on="1"/>
        <pt x="367" y="700" on="0"/>
        <pt x="454" y="671" on="0"/>
        <pt x="489" y="646" on="1"/>
        <pt x="520" y="676" on="1"/>
        <pt x="537" y="693" on="0"/>
        <pt x="547" y="700" on="0"/>
        <pt x="556" y="700" on="1"/>
        <pt x="573" y="700" on="0"/>
        <pt x="578" y="683" on="0"/>
        <pt x="578" y="669" on="1"/>
        <pt x="578" y="489" on="1"/>
        <pt x="578" y="471" on="0"/>
        <pt x="570" y="458" on="0"/>
        <pt x="550" y="458" on="1"/>
        <pt x="531" y="458" on="0"/>
        <pt x="523" y="468" on="0"/>
        <pt x="521" y="482" on="1"/>
        <pt x="507" y="569" on="0"/>
        <pt x="393" y="653" on="0"/>
        <pt x="307" y="653" on="1"/>
        <pt x="267" y="653" on="0"/>
        <pt x="214" y="633" on="0"/>
        <pt x="182" y="602" on="0"/>
        <pt x="169" y="566" on="0"/>
        <pt x="169" y="549" on="1"/>
        <pt x="169" y="516" on="0"/>
        <pt x="221" y="457" on="0"/>
        <pt x="275" y="446" on="1"/>
      </contour>
    </TTGlyph>
    <TTGlyph name="Sigma" xMin="68" yMin="0" xMax="816" yMax="686">
      <contour>
        <pt x="217" y="71" on="1"/>
        <pt x="489" y="71" on="1"/>
        <pt x="542" y="71" on="0"/>
        <pt x="633" y="82" on="0"/>
        <pt x="704" y="121" on="0"/>
        <pt x="751" y="197" on="0"/>
        <pt x="760" y="262" on="1"/>
        <pt x="816" y="262" on="1"/>
        <pt x="783" y="0" on="1"/>
        <pt x="103" y="0" on="1"/>
        <pt x="92" y="0" on="0"/>
        <pt x="68" y="5" on="0"/>
        <pt x="68" y="21" on="1"/>
        <pt x="68" y="28" on="0"/>
        <pt x="74" y="35" on="0"/>
        <pt x="82" y="42" on="1"/>
        <pt x="376" y="294" on="1"/>
        <pt x="78" y="636" on="1"/>
        <pt x="71" y="644" on="0"/>
        <pt x="68" y="650" on="0"/>
        <pt x="68" y="660" on="1"/>
        <pt x="68" y="680" on="0"/>
        <pt x="89" y="686" on="0"/>
        <pt x="103" y="686" on="1"/>
        <pt x="783" y="686" on="1"/>
        <pt x="816" y="443" on="1"/>
        <pt x="760" y="443" on="1"/>
        <pt x="751" y="508" on="0"/>
        <pt x="704" y="583" on="0"/>
        <pt x="634" y="623" on="0"/>
        <pt x="543" y="634" on="0"/>
        <pt x="489" y="634" on="1"/>
        <pt x="277" y="634" on="1"/>
        <pt x="514" y="363" on="1"/>
        <pt x="521" y="355" on="0"/>
        <pt x="524" y="345" on="0"/>
        <pt x="524" y="343" on="1"/>
        <pt x="524" y="336" on="0"/>
        <pt x="518" y="329" on="0"/>
        <pt x="510" y="322" on="1"/>
      </contour>
    </TTGlyph>
    <TTGlyph name="T" xMin="44" yMin="0" xMax="807" yMax="673">
      <contour>
        <pt x="807" y="430" on="1"/>
        <pt x="751" y="430" on="1"/>
        <pt x="747" y="474" on="0"/>
        <pt x="734" y="545" on="0"/>
        <pt x="700" y="594" on="0"/>
        <pt x="636" y="621" on="0"/>
        <pt x="582" y="621" on="1"/>
        <pt x="500" y="621" on="1"/>
        <pt x="500" y="52" on="1"/>
        <pt x="652" y="52" on="1"/>
        <pt x="652" y="0" on="1"/>
        <pt x="638" y="1" on="0"/>
        <pt x="577" y="2" on="0"/>
        <pt x="508" y="3" on="0"/>
        <pt x="443" y="3" on="0"/>
        <pt x="425" y="3" on="1"/>
        <pt x="407" y="3" on="0"/>
        <pt x="343" y="3" on="0"/>
        <pt x="274" y="2" on="0"/>
        <pt x="213" y="1" on="0"/>
        <pt x="199" y="0" on="1"/>
        <pt x="199" y="52" on="1"/>
        <pt x="351" y="52" on="1"/>
        <pt x="351" y="621" on="1"/>
        <pt x="269" y="621" on="1"/>
        <pt x="215" y="621" on="0"/>
        <pt x="152" y="594" on="0"/>
        <pt x="117" y="545" on="0"/>
        <pt x="104" y="474" on="0"/>
        <pt x="100" y="430" on="1"/>
        <pt x="44" y="430" on="1"/>
        <pt x="67" y="673" on="1"/>
        <pt x="784" y="673" on="1"/>
      </contour>
    </TTGlyph>
    <TTGlyph name="Theta" xMin="68" yMin="-14" xMax="884" yMax="700">
      <contour>
        <pt x="884" y="339" on="1"/>
        <pt x="884" y="267" on="0"/>
        <pt x="832" y="138" on="0"/>
        <pt x="730" y="42" on="0"/>
        <pt x="577" y="-14" on="0"/>
        <pt x="476" y="-14" on="1"/>
        <pt x="375" y="-14" on="0"/>
        <pt x="222" y="42" on="0"/>
        <pt x="120" y="138" on="0"/>
        <pt x="68" y="267" on="0"/>
        <pt x="68" y="339" on="1"/>
        <pt x="68" y="412" on="0"/>
        <pt x="119" y="543" on="0"/>
        <pt x="221" y="642" on="0"/>
        <pt x="374" y="700" on="0"/>
        <pt x="476" y="700" on="1"/>
        <pt x="578" y="700" on="0"/>
        <pt x="731" y="642" on="0"/>
        <pt x="833" y="544" on="0"/>
        <pt x="884" y="413" on="0"/>
      </contour>
      <contour>
        <pt x="476" y="30" on="1"/>
        <pt x="544" y="30" on="0"/>
        <pt x="647" y="78" on="0"/>
        <pt x="676" y="116" on="1"/>
        <pt x="707" y="156" on="0"/>
        <pt x="737" y="260" on="0"/>
        <pt x="737" y="339" on="1"/>
        <pt x="737" y="357" on="0"/>
        <pt x="735" y="410" on="0"/>
        <pt x="724" y="470" on="0"/>
        <pt x="703" y="531" on="0"/>
        <pt x="684" y="558" on="1"/>
        <pt x="661" y="590" on="0"/>
        <pt x="607" y="629" on="0"/>
        <pt x="551" y="650" on="0"/>
        <pt x="498" y="658" on="0"/>
        <pt x="476" y="658" on="1"/>
        <pt x="453" y="658" on="0"/>
        <pt x="399" y="650" on="0"/>
        <pt x="345" y="629" on="0"/>
        <pt x="293" y="591" on="0"/>
        <pt x="271" y="562" on="1"/>
        <pt x="250" y="534" on="0"/>
        <pt x="228" y="468" on="0"/>
        <pt x="217" y="406" on="0"/>
        <pt x="215" y="354" on="0"/>
        <pt x="215" y="339" on="1"/>
        <pt x="215" y="259" on="0"/>
        <pt x="246" y="153" on="0"/>
        <pt x="278" y="113" on="1"/>
        <pt x="307" y="78" on="0"/>
        <pt x="407" y="30" on="0"/>
      </contour>
      <contour>
        <pt x="668" y="246" on="1"/>
        <pt x="612" y="246" on="1"/>
        <pt x="612" y="280" on="1"/>
        <pt x="340" y="280" on="1"/>
        <pt x="340" y="246" on="1"/>
        <pt x="284" y="246" on="1"/>
        <pt x="284" y="442" on="1"/>
        <pt x="340" y="442" on="1"/>
        <pt x="340" y="408" on="1"/>
        <pt x="612" y="408" on="1"/>
        <pt x="612" y="442" on="1"/>
        <pt x="668" y="442" on="1"/>
      </contour>
    </TTGlyph>
    <TTGlyph name="U" xMin="47" yMin="-14" xMax="891" yMax="686">
      <contour>
        <pt x="783" y="230" on="1"/>
        <pt x="783" y="184" on="0"/>
        <pt x="749" y="96" on="0"/>
        <pt x="677" y="28" on="0"/>
        <pt x="565" y="-14" on="0"/>
        <pt x="487" y="-14" on="1"/>
        <pt x="405" y="-14" on="0"/>
        <pt x="280" y="25" on="0"/>
        <pt x="197" y="92" on="0"/>
        <pt x="155" y="181" on="0"/>
        <pt x="155" y="231" on="1"/>
        <pt x="155" y="634" on="1"/>
        <pt x="47" y="634" on="1"/>
        <pt x="47" y="686" on="1"/>
        <pt x="61" y="685" on="0"/>
        <pt x="110" y="684" on="0"/>
        <pt x="163" y="683" on="0"/>
        <pt x="214" y="683" on="0"/>
        <pt x="230" y="683" on="1"/>
        <pt x="246" y="683" on="0"/>
        <pt x="296" y="683" on="0"/>
        <pt x="349" y="684" on="0"/>
        <pt x="398" y="685" on="0"/>
        <pt x="412" y="686" on="1"/>
        <pt x="412" y="634" on="1"/>
        <pt x="304" y="634" on="1"/>
        <pt x="304" y="225" on="1"/>
        <pt x="304" y="204" on="0"/>
        <pt x="310" y="141" on="0"/>
        <pt x="346" y="81" on="0"/>
        <pt x="422" y="38" on="0"/>
        <pt x="491" y="38" on="1"/>
        <pt x="537" y="38" on="0"/>
        <pt x="619" y="59" on="0"/>
        <pt x="681" y="106" on="0"/>
        <pt x="717" y="180" on="0"/>
        <pt x="717" y="232" on="1"/>
        <pt x="717" y="607" on="1"/>
        <pt x="717" y="622" on="0"/>
        <pt x="710" y="629" on="0"/>
        <pt x="690" y="631" on="1"/>
        <pt x="681" y="632" on="0"/>
        <pt x="670" y="633" on="0"/>
        <pt x="659" y="634" on="0"/>
        <pt x="647" y="634" on="0"/>
        <pt x="637" y="634" on="1"/>
        <pt x="609" y="634" on="1"/>
        <pt x="609" y="686" on="1"/>
        <pt x="639" y="685" on="0"/>
        <pt x="673" y="684" on="0"/>
        <pt x="700" y="683" on="0"/>
        <pt x="728" y="683" on="0"/>
        <pt x="750" y="683" on="1"/>
        <pt x="773" y="683" on="0"/>
        <pt x="800" y="683" on="0"/>
        <pt x="827" y="684" on="0"/>
        <pt x="861" y="685" on="0"/>
        <pt x="891" y="686" on="1"/>
        <pt x="891" y="634" on="1"/>
        <pt x="863" y="634" on="1"/>
        <pt x="856" y="634" on="0"/>
        <pt x="822" y="633" on="0"/>
        <pt x="812" y="632" on="1"/>
        <pt x="791" y="630" on="0"/>
        <pt x="783" y="623" on="0"/>
        <pt x="783" y="607" on="1"/>
      </contour>
    </TTGlyph>
    <TTGlyph name="Upsilon" xMin="68" yMin="0" xMax="884" yMax="700">
      <contour>
        <pt x="551" y="52" on="1"/>
        <pt x="686" y="52" on="1"/>
        <pt x="686" y="0" on="1"/>
        <pt x="672" y="1" on="0"/>
        <pt x="616" y="2" on="0"/>
        <pt x="552" y="3" on="0"/>
        <pt x="493" y="3" on="0"/>
        <pt x="476" y="3" on="1"/>
        <pt x="459" y="3" on="0"/>
        <pt x="400" y="3" on="0"/>
        <pt x="337" y="2" on="0"/>
        <pt x="281" y="1" on="0"/>
        <pt x="267" y="0" on="1"/>
        <pt x="267" y="52" on="1"/>
        <pt x="402" y="52" on="1"/>
        <pt x="402" y="344" on="1"/>
        <pt x="402" y="378" on="0"/>
        <pt x="385" y="466" on="0"/>
        <pt x="360" y="505" on="1"/>
        <pt x="343" y="533" on="0"/>
        <pt x="304" y="564" on="0"/>
        <pt x="268" y="578" on="0"/>
        <pt x="235" y="580" on="0"/>
        <pt x="224" y="580" on="1"/>
        <pt x="192" y="580" on="0"/>
        <pt x="157" y="574" on="0"/>
        <pt x="139" y="565" on="0"/>
        <pt x="135" y="553" on="0"/>
        <pt x="134" y="547" on="1"/>
        <pt x="132" y="533" on="0"/>
        <pt x="112" y="528" on="0"/>
        <pt x="101" y="528" on="1"/>
        <pt x="89" y="528" on="0"/>
        <pt x="68" y="534" on="0"/>
        <pt x="68" y="553" on="1"/>
        <pt x="68" y="580" on="0"/>
        <pt x="93" y="633" on="0"/>
        <pt x="137" y="675" on="0"/>
        <pt x="200" y="700" on="0"/>
        <pt x="237" y="700" on="1"/>
        <pt x="285" y="700" on="0"/>
        <pt x="363" y="662" on="0"/>
        <pt x="423" y="599" on="0"/>
        <pt x="465" y="515" on="0"/>
        <pt x="476" y="470" on="1"/>
        <pt x="477" y="470" on="1"/>
        <pt x="506" y="583" on="0"/>
        <pt x="634" y="700" on="0"/>
        <pt x="715" y="700" on="1"/>
        <pt x="752" y="700" on="0"/>
        <pt x="814" y="675" on="0"/>
        <pt x="859" y="633" on="0"/>
        <pt x="884" y="580" on="0"/>
        <pt x="884" y="553" on="1"/>
        <pt x="884" y="534" on="0"/>
        <pt x="863" y="528" on="0"/>
        <pt x="851" y="528" on="1"/>
        <pt x="835" y="528" on="0"/>
        <pt x="820" y="534" on="0"/>
        <pt x="818" y="552" on="1"/>
        <pt x="815" y="569" on="0"/>
        <pt x="766" y="580" on="0"/>
        <pt x="728" y="580" on="1"/>
        <pt x="716" y="580" on="0"/>
        <pt x="686" y="578" on="0"/>
        <pt x="652" y="566" on="0"/>
        <pt x="616" y="539" on="0"/>
        <pt x="598" y="514" on="1"/>
        <pt x="576" y="483" on="0"/>
        <pt x="551" y="392" on="0"/>
        <pt x="551" y="344" on="1"/>
      </contour>
    </TTGlyph>
    <TTGlyph name="V" xMin="29" yMin="-10" xMax="892" yMax="686">
      <contour>
        <pt x="509" y="16" on="1"/>
        <pt x="500" y="-4" on="0"/>
        <pt x="477" y="-10" on="0"/>
        <pt x="460" y="-10" on="1"/>
        <pt x="444" y="-10" on="0"/>
        <pt x="421" y="-3" on="0"/>
        <pt x="411" y="17" on="1"/>
        <pt x="122" y="634" on="1"/>
        <pt x="29" y="634" on="1"/>
        <pt x="29" y="686" on="1"/>
        <pt x="57" y="685" on="0"/>
        <pt x="94" y="684" on="0"/>
        <pt x="127" y="683" on="0"/>
        <pt x="165" y="683" on="0"/>
        <pt x="194" y="683" on="1"/>
        <pt x="210" y="683" on="0"/>
        <pt x="259" y="683" on="0"/>
        <pt x="310" y="684" on="0"/>
        <pt x="357" y="685" on="0"/>
        <pt x="371" y="686" on="1"/>
        <pt x="371" y="634" on="1"/>
        <pt x="280" y="634" on="1"/>
        <pt x="503" y="158" on="1"/>
        <pt x="715" y="612" on="1"/>
        <pt x="715" y="613" on="0"/>
        <pt x="721" y="624" on="0"/>
        <pt x="721" y="625" on="1"/>
        <pt x="701" y="632" on="0"/>
        <pt x="655" y="634" on="0"/>
        <pt x="635" y="634" on="1"/>
        <pt x="635" y="686" on="1"/>
        <pt x="665" y="685" on="0"/>
        <pt x="699" y="684" on="0"/>
        <pt x="725" y="683" on="0"/>
        <pt x="750" y="683" on="0"/>
        <pt x="770" y="683" on="1"/>
        <pt x="791" y="683" on="0"/>
        <pt x="862" y="684" on="0"/>
        <pt x="892" y="686" on="1"/>
        <pt x="892" y="634" on="1"/>
        <pt x="870" y="634" on="1"/>
        <pt x="843" y="634" on="0"/>
        <pt x="813" y="631" on="0"/>
        <pt x="797" y="626" on="0"/>
        <pt x="791" y="618" on="0"/>
        <pt x="789" y="613" on="1"/>
      </contour>
    </TTGlyph>
    <TTGlyph name="W" xMin="27" yMin="-10" xMax="1235" yMax="686">
      <contour>
        <pt x="898" y="19" on="1"/>
        <pt x="893" y="5" on="0"/>
        <pt x="879" y="-10" on="0"/>
        <pt x="856" y="-10" on="1"/>
        <pt x="842" y="-10" on="0"/>
        <pt x="823" y="-1" on="0"/>
        <pt x="815" y="17" on="1"/>
        <pt x="631" y="470" on="1"/>
        <pt x="447" y="16" on="1"/>
        <pt x="439" y="-4" on="0"/>
        <pt x="416" y="-10" on="0"/>
        <pt x="406" y="-10" on="1"/>
        <pt x="383" y="-10" on="0"/>
        <pt x="369" y="5" on="0"/>
        <pt x="364" y="19" on="1"/>
        <pt x="114" y="634" on="1"/>
        <pt x="27" y="634" on="1"/>
        <pt x="27" y="686" on="1"/>
        <pt x="107" y="683" on="0"/>
        <pt x="187" y="683" on="1"/>
        <pt x="203" y="683" on="0"/>
        <pt x="251" y="683" on="0"/>
        <pt x="301" y="684" on="0"/>
        <pt x="347" y="685" on="0"/>
        <pt x="361" y="686" on="1"/>
        <pt x="361" y="634" on="1"/>
        <pt x="268" y="634" on="1"/>
        <pt x="452" y="180" on="1"/>
        <pt x="601" y="544" on="1"/>
        <pt x="564" y="634" on="1"/>
        <pt x="478" y="634" on="1"/>
        <pt x="478" y="686" on="1"/>
        <pt x="558" y="683" on="0"/>
        <pt x="638" y="683" on="1"/>
        <pt x="654" y="683" on="0"/>
        <pt x="702" y="683" on="0"/>
        <pt x="752" y="684" on="0"/>
        <pt x="798" y="685" on="0"/>
        <pt x="812" y="686" on="1"/>
        <pt x="812" y="634" on="1"/>
        <pt x="718" y="634" on="1"/>
        <pt x="903" y="180" on="1"/>
        <pt x="1079" y="611" on="1"/>
        <pt x="1080" y="613" on="0"/>
        <pt x="1083" y="623" on="0"/>
        <pt x="1084" y="625" on="1"/>
        <pt x="1061" y="632" on="0"/>
        <pt x="1002" y="634" on="0"/>
        <pt x="984" y="634" on="1"/>
        <pt x="984" y="686" on="1"/>
        <pt x="1016" y="685" on="0"/>
        <pt x="1053" y="684" on="0"/>
        <pt x="1078" y="683" on="0"/>
        <pt x="1101" y="683" on="0"/>
        <pt x="1119" y="683" on="1"/>
        <pt x="1130" y="683" on="0"/>
        <pt x="1159" y="683" on="0"/>
        <pt x="1190" y="684" on="0"/>
        <pt x="1222" y="685" on="0"/>
        <pt x="1235" y="686" on="1"/>
        <pt x="1235" y="634" on="1"/>
        <pt x="1216" y="634" on="1"/>
        <pt x="1191" y="634" on="0"/>
        <pt x="1163" y="632" on="0"/>
        <pt x="1148" y="626" on="0"/>
        <pt x="1143" y="618" on="0"/>
        <pt x="1140" y="612" on="1"/>
      </contour>
    </TTGlyph>
    <TTGlyph name="X" xMin="40" yMin="0" xMax="882" yMax="686">
      <contour>
        <pt x="783" y="52" on="1"/>
        <pt x="882" y="52" on="1"/>
        <pt x="882" y="0" on="1"/>
        <pt x="834" y="2" on="0"/>
        <pt x="742" y="3" on="0"/>
        <pt x="713" y="3" on="1"/>
        <pt x="697" y="3" on="0"/>
        <pt x="647" y="3" on="0"/>
        <pt x="594" y="2" on="0"/>
        <pt x="546" y="1" on="0"/>
        <pt x="532" y="0" on="1"/>
        <pt x="532" y="52" on="1"/>
        <pt x="610" y="52" on="1"/>
        <pt x="429" y="283" on="1"/>
        <pt x="251" y="63" on="1"/>
        <pt x="251" y="60" on="1"/>
        <pt x="278" y="54" on="0"/>
        <pt x="329" y="52" on="0"/>
        <pt x="336" y="52" on="1"/>
        <pt x="336" y="0" on="1"/>
        <pt x="308" y="1" on="0"/>
        <pt x="271" y="2" on="0"/>
        <pt x="239" y="3" on="0"/>
        <pt x="206" y="3" on="0"/>
        <pt x="182" y="3" on="1"/>
        <pt x="155" y="3" on="0"/>
        <pt x="123" y="3" on="0"/>
        <pt x="96" y="2" on="0"/>
        <pt x="66" y="1" on="0"/>
        <pt x="40" y="0" on="1"/>
        <pt x="40" y="52" on="1"/>
        <pt x="72" y="52" on="1"/>
        <pt x="83" y="52" on="0"/>
        <pt x="97" y="52" on="0"/>
        <pt x="108" y="53" on="0"/>
        <pt x="120" y="54" on="0"/>
        <pt x="129" y="55" on="1"/>
        <pt x="141" y="56" on="0"/>
        <pt x="155" y="58" on="0"/>
        <pt x="164" y="61" on="0"/>
        <pt x="169" y="67" on="0"/>
        <pt x="173" y="71" on="1"/>
        <pt x="387" y="337" on="1"/>
        <pt x="155" y="634" on="1"/>
        <pt x="56" y="634" on="1"/>
        <pt x="56" y="686" on="1"/>
        <pt x="104" y="684" on="0"/>
        <pt x="196" y="683" on="0"/>
        <pt x="225" y="683" on="1"/>
        <pt x="241" y="683" on="0"/>
        <pt x="291" y="683" on="0"/>
        <pt x="344" y="684" on="0"/>
        <pt x="392" y="685" on="0"/>
        <pt x="406" y="686" on="1"/>
        <pt x="406" y="634" on="1"/>
        <pt x="328" y="634" on="1"/>
        <pt x="475" y="446" on="1"/>
        <pt x="619" y="624" on="1"/>
        <pt x="613" y="626" on="0"/>
        <pt x="603" y="629" on="0"/>
        <pt x="601" y="630" on="1"/>
        <pt x="578" y="633" on="0"/>
        <pt x="537" y="634" on="0"/>
        <pt x="533" y="634" on="1"/>
        <pt x="533" y="686" on="1"/>
        <pt x="557" y="685" on="0"/>
        <pt x="604" y="684" on="0"/>
        <pt x="646" y="683" on="0"/>
        <pt x="679" y="683" on="0"/>
        <pt x="688" y="683" on="1"/>
        <pt x="715" y="683" on="0"/>
        <pt x="747" y="683" on="0"/>
        <pt x="774" y="684" on="0"/>
        <pt x="805" y="685" on="0"/>
        <pt x="830" y="686" on="1"/>
        <pt x="830" y="634" on="1"/>
        <pt x="798" y="634" on="1"/>
        <pt x="787" y="634" on="0"/>
        <pt x="773" y="634" on="0"/>
        <pt x="762" y="633" on="0"/>
        <pt x="750" y="632" on="0"/>
        <pt x="741" y="631" on="1"/>
        <pt x="729" y="630" on="0"/>
        <pt x="715" y="628" on="0"/>
        <pt x="706" y="625" on="0"/>
        <pt x="701" y="620" on="0"/>
        <pt x="697" y="615" on="1"/>
        <pt x="517" y="392" on="1"/>
      </contour>
    </TTGlyph>
    <TTGlyph name="Xi" xMin="51" yMin="0" xMax="765" yMax="673">
      <contour>
        <pt x="758" y="470" on="1"/>
        <pt x="702" y="470" on="1"/>
        <pt x="702" y="477" on="0"/>
        <pt x="700" y="500" on="0"/>
        <pt x="697" y="523" on="0"/>
        <pt x="691" y="543" on="0"/>
        <pt x="686" y="547" on="1"/>
        <pt x="683" y="550" on="0"/>
        <pt x="660" y="553" on="0"/>
        <pt x="633" y="555" on="0"/>
        <pt x="609" y="555" on="0"/>
        <pt x="604" y="555" on="1"/>
        <pt x="212" y="555" on="1"/>
        <pt x="207" y="555" on="0"/>
        <pt x="183" y="555" on="0"/>
        <pt x="157" y="553" on="0"/>
        <pt x="135" y="551" on="0"/>
        <pt x="131" y="548" on="1"/>
        <pt x="126" y="545" on="0"/>
        <pt x="119" y="524" on="0"/>
        <pt x="116" y="500" on="0"/>
        <pt x="114" y="476" on="0"/>
        <pt x="114" y="470" on="1"/>
        <pt x="58" y="470" on="1"/>
        <pt x="68" y="673" on="1"/>
        <pt x="748" y="673" on="1"/>
      </contour>
      <contour>
        <pt x="51" y="213" on="1"/>
        <pt x="107" y="213" on="1"/>
        <pt x="109" y="176" on="0"/>
        <pt x="114" y="138" on="0"/>
        <pt x="122" y="128" on="1"/>
        <pt x="124" y="124" on="0"/>
        <pt x="150" y="120" on="0"/>
        <pt x="181" y="118" on="0"/>
        <pt x="207" y="118" on="0"/>
        <pt x="210" y="118" on="1"/>
        <pt x="606" y="118" on="1"/>
        <pt x="618" y="118" on="0"/>
        <pt x="645" y="118" on="0"/>
        <pt x="670" y="120" on="0"/>
        <pt x="690" y="124" on="0"/>
        <pt x="693" y="127" on="1"/>
        <pt x="698" y="131" on="0"/>
        <pt x="704" y="152" on="0"/>
        <pt x="707" y="178" on="0"/>
        <pt x="709" y="204" on="0"/>
        <pt x="709" y="213" on="1"/>
        <pt x="765" y="213" on="1"/>
        <pt x="755" y="0" on="1"/>
        <pt x="61" y="0" on="1"/>
      </contour>
      <contour>
        <pt x="646" y="250" on="1"/>
        <pt x="590" y="250" on="1"/>
        <pt x="590" y="291" on="1"/>
        <pt x="226" y="291" on="1"/>
        <pt x="226" y="250" on="1"/>
        <pt x="170" y="250" on="1"/>
        <pt x="170" y="450" on="1"/>
        <pt x="226" y="450" on="1"/>
        <pt x="226" y="409" on="1"/>
        <pt x="590" y="409" on="1"/>
        <pt x="590" y="450" on="1"/>
        <pt x="646" y="450" on="1"/>
      </contour>
    </TTGlyph>
    <TTGlyph name="Y" xMin="24" yMin="0" xMax="897" yMax="686">
      <contour>
        <pt x="532" y="275" on="1"/>
        <pt x="532" y="52" on="1"/>
        <pt x="639" y="52" on="1"/>
        <pt x="639" y="0" on="1"/>
        <pt x="624" y="1" on="0"/>
        <pt x="577" y="2" on="0"/>
        <pt x="526" y="3" on="0"/>
        <pt x="478" y="3" on="0"/>
        <pt x="461" y="3" on="1"/>
        <pt x="445" y="3" on="0"/>
        <pt x="395" y="3" on="0"/>
        <pt x="343" y="2" on="0"/>
        <pt x="296" y="1" on="0"/>
        <pt x="281" y="0" on="1"/>
        <pt x="281" y="52" on="1"/>
        <pt x="389" y="52" on="1"/>
        <pt x="389" y="274" on="1"/>
        <pt x="123" y="634" on="1"/>
        <pt x="24" y="634" on="1"/>
        <pt x="24" y="686" on="1"/>
        <pt x="62" y="684" on="0"/>
        <pt x="156" y="683" on="0"/>
        <pt x="196" y="683" on="1"/>
        <pt x="212" y="683" on="0"/>
        <pt x="263" y="683" on="0"/>
        <pt x="317" y="684" on="0"/>
        <pt x="367" y="685" on="0"/>
        <pt x="380" y="686" on="1"/>
        <pt x="380" y="634" on="1"/>
        <pt x="300" y="634" on="1"/>
        <pt x="508" y="353" on="1"/>
        <pt x="709" y="625" on="1"/>
        <pt x="689" y="632" on="0"/>
        <pt x="660" y="634" on="0"/>
        <pt x="637" y="634" on="1"/>
        <pt x="637" y="686" on="1"/>
        <pt x="669" y="685" on="0"/>
        <pt x="706" y="684" on="0"/>
        <pt x="731" y="683" on="0"/>
        <pt x="755" y="683" on="0"/>
        <pt x="773" y="683" on="1"/>
        <pt x="800" y="683" on="0"/>
        <pt x="863" y="684" on="0"/>
        <pt x="897" y="686" on="1"/>
        <pt x="897" y="634" on="1"/>
        <pt x="873" y="634" on="1"/>
        <pt x="847" y="634" on="0"/>
        <pt x="820" y="631" on="1"/>
        <pt x="802" y="629" on="0"/>
        <pt x="791" y="625" on="0"/>
        <pt x="784" y="615" on="1"/>
      </contour>
    </TTGlyph>
    <TTGlyph name="Z" xMin="68" yMin="0" xMax="687" yMax="686">
      <contour>
        <pt x="248" y="57" on="1"/>
        <pt x="395" y="57" on="1"/>
        <pt x="464" y="57" on="0"/>
        <pt x="552" y="88" on="0"/>
        <pt x="604" y="147" on="0"/>
        <pt x="627" y="232" on="0"/>
        <pt x="631" y="286" on="1"/>
        <pt x="687" y="286" on="1"/>
        <pt x="667" y="0" on="1"/>
        <pt x="102" y="0" on="1"/>
        <pt x="86" y="0" on="0"/>
        <pt x="68" y="7" on="0"/>
        <pt x="68" y="29" on="1"/>
        <pt x="68" y="40" on="0"/>
        <pt x="70" y="48" on="0"/>
        <pt x="78" y="58" on="1"/>
        <pt x="501" y="634" on="1"/>
        <pt x="365" y="634" on="1"/>
        <pt x="323" y="634" on="0"/>
        <pt x="246" y="619" on="0"/>
        <pt x="185" y="577" on="0"/>
        <pt x="145" y="503" on="0"/>
        <pt x="141" y="443" on="1"/>
        <pt x="85" y="443" on="1"/>
        <pt x="98" y="686" on="1"/>
        <pt x="646" y="686" on="1"/>
        <pt x="661" y="686" on="0"/>
        <pt x="680" y="679" on="0"/>
        <pt x="680" y="658" on="1"/>
        <pt x="680" y="649" on="0"/>
        <pt x="677" y="641" on="0"/>
        <pt x="669" y="630" on="1"/>
      </contour>
    </TTGlyph>
    <TTGlyph name="a" xMin="35" yMin="-7" xMax="594" yMax="455">
      <contour>
        <pt x="502" y="85" on="1"/>
        <pt x="502" y="76" on="0"/>
        <pt x="504" y="64" on="0"/>
        <pt x="516" y="56" on="0"/>
        <pt x="541" y="52" on="0"/>
        <pt x="564" y="52" on="1"/>
        <pt x="575" y="52" on="0"/>
        <pt x="594" y="46" on="0"/>
        <pt x="594" y="26" on="1"/>
        <pt x="594" y="6" on="0"/>
        <pt x="574" y="0" on="0"/>
        <pt x="560" y="0" on="1"/>
        <pt x="507" y="0" on="1"/>
        <pt x="471" y="0" on="0"/>
        <pt x="428" y="13" on="0"/>
        <pt x="405" y="33" on="0"/>
        <pt x="399" y="57" on="0"/>
        <pt x="399" y="68" on="1"/>
        <pt x="394" y="61" on="0"/>
        <pt x="372" y="35" on="0"/>
        <pt x="334" y="11" on="0"/>
        <pt x="279" y="-7" on="0"/>
        <pt x="240" y="-7" on="1"/>
        <pt x="199" y="-7" on="0"/>
        <pt x="125" y="6" on="0"/>
        <pt x="68" y="35" on="0"/>
        <pt x="35" y="80" on="0"/>
        <pt x="35" y="112" on="1"/>
        <pt x="35" y="158" on="0"/>
        <pt x="101" y="218" on="0"/>
        <pt x="202" y="253" on="0"/>
        <pt x="324" y="268" on="0"/>
        <pt x="380" y="268" on="1"/>
        <pt x="380" y="297" on="1"/>
        <pt x="380" y="351" on="0"/>
        <pt x="325" y="413" on="0"/>
        <pt x="265" y="413" on="1"/>
        <pt x="236" y="413" on="0"/>
        <pt x="195" y="408" on="0"/>
        <pt x="189" y="406" on="1"/>
        <pt x="190" y="405" on="0"/>
        <pt x="210" y="379" on="0"/>
        <pt x="210" y="355" on="1"/>
        <pt x="210" y="326" on="0"/>
        <pt x="172" y="288" on="0"/>
        <pt x="142" y="288" on="1"/>
        <pt x="117" y="288" on="0"/>
        <pt x="75" y="323" on="0"/>
        <pt x="75" y="356" on="1"/>
        <pt x="75" y="393" on="0"/>
        <pt x="121" y="433" on="0"/>
        <pt x="184" y="452" on="0"/>
        <pt x="249" y="455" on="0"/>
        <pt x="267" y="455" on="1"/>
        <pt x="328" y="455" on="0"/>
        <pt x="417" y="431" on="0"/>
        <pt x="474" y="388" on="0"/>
        <pt x="502" y="330" on="0"/>
        <pt x="502" y="296" on="1"/>
      </contour>
      <contour>
        <pt x="380" y="230" on="1"/>
        <pt x="331" y="229" on="0"/>
        <pt x="249" y="212" on="0"/>
        <pt x="190" y="182" on="0"/>
        <pt x="157" y="140" on="0"/>
        <pt x="157" y="114" on="1"/>
        <pt x="157" y="78" on="0"/>
        <pt x="217" y="35" on="0"/>
        <pt x="256" y="35" on="1"/>
        <pt x="257" y="35" on="0"/>
        <pt x="276" y="36" on="0"/>
        <pt x="304" y="42" on="0"/>
        <pt x="335" y="54" on="0"/>
        <pt x="362" y="77" on="0"/>
        <pt x="380" y="112" on="0"/>
        <pt x="380" y="137" on="1"/>
      </contour>
    </TTGlyph>
    <TTGlyph name="acute" xMin="254" yMin="505" xMax="488" yMax="704">
      <contour>
        <pt x="286" y="505" on="1"/>
        <pt x="254" y="550" on="1"/>
        <pt x="378" y="681" on="1"/>
        <pt x="399" y="704" on="0"/>
        <pt x="424" y="704" on="1"/>
        <pt x="438" y="704" on="0"/>
        <pt x="461" y="692" on="0"/>
        <pt x="478" y="672" on="0"/>
        <pt x="488" y="649" on="0"/>
        <pt x="488" y="637" on="1"/>
        <pt x="488" y="624" on="0"/>
        <pt x="478" y="605" on="0"/>
        <pt x="465" y="592" on="0"/>
        <pt x="452" y="585" on="0"/>
        <pt x="449" y="583" on="1"/>
      </contour>
    </TTGlyph>
    <TTGlyph name="ae" xMin="41" yMin="-7" xMax="850" yMax="455">
      <contour>
        <pt x="503" y="212" on="1"/>
        <pt x="504" y="197" on="0"/>
        <pt x="511" y="139" on="0"/>
        <pt x="543" y="82" on="0"/>
        <pt x="607" y="40" on="0"/>
        <pt x="664" y="40" on="1"/>
        <pt x="680" y="40" on="0"/>
        <pt x="717" y="47" on="0"/>
        <pt x="753" y="64" on="0"/>
        <pt x="784" y="94" on="0"/>
        <pt x="793" y="117" on="1"/>
        <pt x="798" y="130" on="0"/>
        <pt x="809" y="136" on="0"/>
        <pt x="822" y="136" on="1"/>
        <pt x="827" y="136" on="0"/>
        <pt x="850" y="131" on="0"/>
        <pt x="850" y="115" on="1"/>
        <pt x="850" y="108" on="0"/>
        <pt x="832" y="68" on="0"/>
        <pt x="787" y="26" on="0"/>
        <pt x="712" y="-7" on="0"/>
        <pt x="654" y="-7" on="1"/>
        <pt x="537" y="-7" on="0"/>
        <pt x="457" y="56" on="1"/>
        <pt x="437" y="34" on="0"/>
        <pt x="379" y="9" on="0"/>
        <pt x="318" y="-4" on="0"/>
        <pt x="263" y="-7" on="0"/>
        <pt x="246" y="-7" on="1"/>
        <pt x="237" y="-7" on="0"/>
        <pt x="199" y="-6" on="0"/>
        <pt x="154" y="0" on="0"/>
        <pt x="106" y="14" on="0"/>
        <pt x="66" y="39" on="0"/>
        <pt x="41" y="78" on="0"/>
        <pt x="41" y="106" on="1"/>
        <pt x="41" y="138" on="0"/>
        <pt x="78" y="184" on="0"/>
        <pt x="139" y="215" on="0"/>
        <pt x="214" y="234" on="0"/>
        <pt x="289" y="244" on="0"/>
        <pt x="358" y="248" on="0"/>
        <pt x="381" y="249" on="1"/>
        <pt x="381" y="297" on="1"/>
        <pt x="381" y="354" on="0"/>
        <pt x="324" y="413" on="0"/>
        <pt x="265" y="413" on="1"/>
        <pt x="252" y="413" on="0"/>
        <pt x="208" y="410" on="0"/>
        <pt x="189" y="406" on="1"/>
        <pt x="190" y="405" on="0"/>
        <pt x="210" y="379" on="0"/>
        <pt x="210" y="355" on="1"/>
        <pt x="210" y="326" on="0"/>
        <pt x="172" y="288" on="0"/>
        <pt x="142" y="288" on="1"/>
        <pt x="117" y="288" on="0"/>
        <pt x="75" y="323" on="0"/>
        <pt x="75" y="356" on="1"/>
        <pt x="75" y="393" on="0"/>
        <pt x="120" y="433" on="0"/>
        <pt x="182" y="452" on="0"/>
        <pt x="248" y="455" on="0"/>
        <pt x="268" y="455" on="1"/>
        <pt x="280" y="455" on="0"/>
        <pt x="325" y="453" on="0"/>
        <pt x="379" y="443" on="0"/>
        <pt x="436" y="419" on="0"/>
        <pt x="460" y="398" on="1"/>
        <pt x="503" y="432" on="0"/>
        <pt x="594" y="455" on="0"/>
        <pt x="639" y="455" on="1"/>
        <pt x="741" y="455" on="0"/>
        <pt x="850" y="345" on="0"/>
        <pt x="850" y="242" on="1"/>
        <pt x="850" y="219" on="0"/>
        <pt x="833" y="212" on="0"/>
        <pt x="816" y="212" on="1"/>
      </contour>
      <contour>
        <pt x="753" y="251" on="1"/>
        <pt x="753" y="266" on="0"/>
        <pt x="747" y="320" on="0"/>
        <pt x="725" y="374" on="0"/>
        <pt x="680" y="413" on="0"/>
        <pt x="639" y="413" on="1"/>
        <pt x="590" y="413" on="0"/>
        <pt x="536" y="371" on="0"/>
        <pt x="509" y="316" on="0"/>
        <pt x="503" y="263" on="0"/>
        <pt x="503" y="251" on="1"/>
      </contour>
      <contour>
        <pt x="382" y="209" on="1"/>
        <pt x="352" y="208" on="0"/>
        <pt x="277" y="198" on="0"/>
        <pt x="209" y="176" on="0"/>
        <pt x="163" y="137" on="0"/>
        <pt x="163" y="106" on="1"/>
        <pt x="163" y="77" on="0"/>
        <pt x="216" y="35" on="0"/>
        <pt x="258" y="35" on="1"/>
        <pt x="285" y="35" on="0"/>
        <pt x="336" y="47" on="0"/>
        <pt x="376" y="71" on="0"/>
        <pt x="401" y="104" on="0"/>
        <pt x="401" y="125" on="1"/>
        <pt x="401" y="129" on="0"/>
        <pt x="400" y="133" on="0"/>
        <pt x="397" y="140" on="1"/>
        <pt x="388" y="164" on="0"/>
        <pt x="383" y="197" on="0"/>
      </contour>
    </TTGlyph>
    <TTGlyph name="ampersand" xMin="51" yMin="-14" xMax="891" yMax="708">
      <contour>
        <pt x="884" y="116" on="1"/>
        <pt x="883" y="84" on="0"/>
        <pt x="853" y="35" on="0"/>
        <pt x="804" y="2" on="0"/>
        <pt x="743" y="-14" on="0"/>
        <pt x="710" y="-14" on="1"/>
        <pt x="669" y="-14" on="0"/>
        <pt x="598" y="0" on="0"/>
        <pt x="540" y="19" on="0"/>
        <pt x="496" y="40" on="0"/>
        <pt x="482" y="47" on="1"/>
        <pt x="441" y="21" on="0"/>
        <pt x="333" y="-14" on="0"/>
        <pt x="273" y="-14" on="1"/>
        <pt x="227" y="-14" on="0"/>
        <pt x="146" y="7" on="0"/>
        <pt x="86" y="47" on="0"/>
        <pt x="51" y="104" on="0"/>
        <pt x="51" y="139" on="1"/>
        <pt x="51" y="161" on="0"/>
        <pt x="65" y="196" on="0"/>
        <pt x="85" y="223" on="0"/>
        <pt x="109" y="244" on="0"/>
        <pt x="118" y="251" on="1"/>
        <pt x="226" y="336" on="1"/>
        <pt x="222" y="346" on="0"/>
        <pt x="207" y="382" on="0"/>
        <pt x="193" y="432" on="0"/>
        <pt x="183" y="492" on="0"/>
        <pt x="183" y="525" on="1"/>
        <pt x="183" y="570" on="0"/>
        <pt x="219" y="638" on="0"/>
        <pt x="274" y="685" on="0"/>
        <pt x="342" y="708" on="0"/>
        <pt x="375" y="708" on="1"/>
        <pt x="405" y="708" on="0"/>
        <pt x="451" y="683" on="0"/>
        <pt x="482" y="643" on="0"/>
        <pt x="498" y="594" on="0"/>
        <pt x="498" y="571" on="1"/>
        <pt x="498" y="552" on="0"/>
        <pt x="481" y="510" on="0"/>
        <pt x="443" y="463" on="0"/>
        <pt x="384" y="408" on="0"/>
        <pt x="343" y="374" on="1"/>
        <pt x="372" y="314" on="0"/>
        <pt x="470" y="197" on="0"/>
        <pt x="527" y="141" on="1"/>
        <pt x="567" y="175" on="0"/>
        <pt x="639" y="256" on="0"/>
        <pt x="695" y="328" on="0"/>
        <pt x="730" y="380" on="0"/>
        <pt x="733" y="384" on="1"/>
        <pt x="716" y="390" on="0"/>
        <pt x="687" y="392" on="0"/>
        <pt x="670" y="392" on="1"/>
        <pt x="670" y="444" on="1"/>
        <pt x="690" y="443" on="0"/>
        <pt x="722" y="442" on="0"/>
        <pt x="749" y="441" on="0"/>
        <pt x="774" y="441" on="0"/>
        <pt x="788" y="441" on="1"/>
        <pt x="805" y="441" on="0"/>
        <pt x="868" y="442" on="0"/>
        <pt x="891" y="444" on="1"/>
        <pt x="891" y="392" on="1"/>
        <pt x="874" y="392" on="1"/>
        <pt x="874" y="392" on="0"/>
        <pt x="854" y="392" on="0"/>
        <pt x="829" y="390" on="0"/>
        <pt x="806" y="386" on="0"/>
        <pt x="801" y="382" on="1"/>
        <pt x="800" y="382" on="0"/>
        <pt x="794" y="374" on="0"/>
        <pt x="786" y="365" on="0"/>
        <pt x="780" y="356" on="0"/>
        <pt x="778" y="354" on="1"/>
        <pt x="750" y="316" on="0"/>
        <pt x="700" y="249" on="0"/>
        <pt x="649" y="188" on="0"/>
        <pt x="596" y="132" on="0"/>
        <pt x="566" y="106" on="1"/>
        <pt x="603" y="75" on="0"/>
        <pt x="677" y="38" on="0"/>
        <pt x="715" y="38" on="1"/>
        <pt x="723" y="38" on="0"/>
        <pt x="759" y="42" on="0"/>
        <pt x="796" y="58" on="0"/>
        <pt x="827" y="89" on="0"/>
        <pt x="828" y="116" on="1"/>
      </contour>
      <contour>
        <pt x="325" y="414" on="1"/>
        <pt x="347" y="433" on="0"/>
        <pt x="389" y="472" on="0"/>
        <pt x="422" y="511" on="0"/>
        <pt x="442" y="551" on="0"/>
        <pt x="442" y="571" on="1"/>
        <pt x="442" y="584" on="0"/>
        <pt x="435" y="617" on="0"/>
        <pt x="420" y="646" on="0"/>
        <pt x="395" y="666" on="0"/>
        <pt x="377" y="666" on="1"/>
        <pt x="343" y="666" on="0"/>
        <pt x="294" y="610" on="0"/>
        <pt x="294" y="566" on="1"/>
        <pt x="294" y="537" on="0"/>
        <pt x="307" y="462" on="0"/>
      </contour>
      <contour>
        <pt x="245" y="297" on="1"/>
        <pt x="210" y="273" on="0"/>
        <pt x="186" y="206" on="0"/>
        <pt x="186" y="172" on="1"/>
        <pt x="186" y="155" on="0"/>
        <pt x="195" y="109" on="0"/>
        <pt x="217" y="67" on="0"/>
        <pt x="255" y="38" on="0"/>
        <pt x="284" y="38" on="1"/>
        <pt x="289" y="38" on="0"/>
        <pt x="318" y="40" on="0"/>
        <pt x="358" y="47" on="0"/>
        <pt x="408" y="63" on="0"/>
        <pt x="434" y="78" on="1"/>
        <pt x="403" y="99" on="0"/>
        <pt x="347" y="153" on="0"/>
        <pt x="299" y="212" on="0"/>
        <pt x="259" y="271" on="0"/>
      </contour>
    </TTGlyph>
    <TTGlyph name="asterisk" xMin="79" yMin="306" xMax="533" yMax="750">
      <contour>
        <pt x="352" y="365" on="1"/>
        <pt x="353" y="362" on="0"/>
        <pt x="355" y="350" on="0"/>
        <pt x="355" y="348" on="1"/>
        <pt x="355" y="331" on="0"/>
        <pt x="326" y="306" on="0"/>
        <pt x="306" y="306" on="1"/>
        <pt x="286" y="306" on="0"/>
        <pt x="257" y="331" on="0"/>
        <pt x="257" y="348" on="1"/>
        <pt x="257" y="350" on="0"/>
        <pt x="259" y="359" on="0"/>
        <pt x="259" y="361" on="1"/>
        <pt x="282" y="490" on="1"/>
        <pt x="156" y="400" on="1"/>
        <pt x="145" y="392" on="0"/>
        <pt x="133" y="389" on="0"/>
        <pt x="127" y="389" on="1"/>
        <pt x="107" y="389" on="0"/>
        <pt x="79" y="421" on="0"/>
        <pt x="79" y="441" on="1"/>
        <pt x="79" y="461" on="0"/>
        <pt x="100" y="480" on="0"/>
        <pt x="113" y="484" on="1"/>
        <pt x="250" y="528" on="1"/>
        <pt x="113" y="572" on="1"/>
        <pt x="101" y="576" on="0"/>
        <pt x="79" y="595" on="0"/>
        <pt x="79" y="615" on="1"/>
        <pt x="79" y="635" on="0"/>
        <pt x="107" y="667" on="0"/>
        <pt x="127" y="667" on="1"/>
        <pt x="133" y="667" on="0"/>
        <pt x="145" y="664" on="0"/>
        <pt x="156" y="656" on="1"/>
        <pt x="282" y="566" on="1"/>
        <pt x="260" y="691" on="1"/>
        <pt x="259" y="694" on="0"/>
        <pt x="257" y="706" on="0"/>
        <pt x="257" y="708" on="1"/>
        <pt x="257" y="725" on="0"/>
        <pt x="286" y="750" on="0"/>
        <pt x="306" y="750" on="1"/>
        <pt x="326" y="750" on="0"/>
        <pt x="355" y="725" on="0"/>
        <pt x="355" y="708" on="1"/>
        <pt x="355" y="706" on="0"/>
        <pt x="353" y="697" on="0"/>
        <pt x="353" y="695" on="1"/>
        <pt x="330" y="566" on="1"/>
        <pt x="456" y="656" on="1"/>
        <pt x="467" y="664" on="0"/>
        <pt x="479" y="667" on="0"/>
        <pt x="485" y="667" on="1"/>
        <pt x="505" y="667" on="0"/>
        <pt x="533" y="635" on="0"/>
        <pt x="533" y="615" on="1"/>
        <pt x="533" y="595" on="0"/>
        <pt x="512" y="576" on="0"/>
        <pt x="499" y="572" on="1"/>
        <pt x="362" y="528" on="1"/>
        <pt x="516" y="477" on="1"/>
        <pt x="521" y="474" on="0"/>
        <pt x="533" y="460" on="0"/>
        <pt x="533" y="441" on="1"/>
        <pt x="533" y="421" on="0"/>
        <pt x="505" y="389" on="0"/>
        <pt x="485" y="389" on="1"/>
        <pt x="479" y="389" on="0"/>
        <pt x="467" y="392" on="0"/>
        <pt x="456" y="400" on="1"/>
        <pt x="330" y="490" on="1"/>
      </contour>
    </TTGlyph>
    <TTGlyph name="at" xMin="68" yMin="-7" xMax="884" yMax="701">
      <contour>
        <pt x="721" y="223" on="1"/>
        <pt x="721" y="219" on="0"/>
        <pt x="722" y="200" on="0"/>
        <pt x="728" y="182" on="0"/>
        <pt x="741" y="168" on="0"/>
        <pt x="753" y="168" on="1"/>
        <pt x="781" y="168" on="0"/>
        <pt x="812" y="213" on="0"/>
        <pt x="826" y="272" on="0"/>
        <pt x="828" y="330" on="0"/>
        <pt x="828" y="342" on="1"/>
        <pt x="828" y="418" on="0"/>
        <pt x="777" y="536" on="0"/>
        <pt x="684" y="617" on="0"/>
        <pt x="554" y="659" on="0"/>
        <pt x="476" y="659" on="1"/>
        <pt x="389" y="659" on="0"/>
        <pt x="258" y="610" on="0"/>
        <pt x="169" y="526" on="0"/>
        <pt x="124" y="412" on="0"/>
        <pt x="124" y="347" on="1"/>
        <pt x="124" y="288" on="0"/>
        <pt x="164" y="175" on="0"/>
        <pt x="250" y="88" on="0"/>
        <pt x="385" y="35" on="0"/>
        <pt x="480" y="35" on="1"/>
        <pt x="555" y="35" on="0"/>
        <pt x="715" y="63" on="0"/>
        <pt x="789" y="90" on="1"/>
        <pt x="804" y="96" on="0"/>
        <pt x="815" y="98" on="0"/>
        <pt x="827" y="98" on="1"/>
        <pt x="853" y="98" on="1"/>
        <pt x="864" y="98" on="0"/>
        <pt x="884" y="94" on="0"/>
        <pt x="884" y="80" on="1"/>
        <pt x="884" y="74" on="0"/>
        <pt x="879" y="69" on="1"/>
        <pt x="876" y="66" on="0"/>
        <pt x="867" y="62" on="0"/>
        <pt x="846" y="55" on="1"/>
        <pt x="815" y="44" on="0"/>
        <pt x="735" y="22" on="0"/>
        <pt x="642" y="4" on="0"/>
        <pt x="537" y="-7" on="0"/>
        <pt x="480" y="-7" on="1"/>
        <pt x="370" y="-7" on="0"/>
        <pt x="213" y="55" on="0"/>
        <pt x="114" y="155" on="0"/>
        <pt x="68" y="282" on="0"/>
        <pt x="68" y="347" on="1"/>
        <pt x="68" y="418" on="0"/>
        <pt x="119" y="546" on="0"/>
        <pt x="221" y="644" on="0"/>
        <pt x="374" y="701" on="0"/>
        <pt x="476" y="701" on="1"/>
        <pt x="577" y="701" on="0"/>
        <pt x="730" y="645" on="0"/>
        <pt x="832" y="548" on="0"/>
        <pt x="884" y="419" on="0"/>
        <pt x="884" y="346" on="1"/>
        <pt x="884" y="322" on="0"/>
        <pt x="875" y="248" on="0"/>
        <pt x="846" y="177" on="0"/>
        <pt x="790" y="126" on="0"/>
        <pt x="743" y="126" on="1"/>
        <pt x="732" y="126" on="0"/>
        <pt x="697" y="129" on="0"/>
        <pt x="660" y="138" on="0"/>
        <pt x="625" y="156" on="0"/>
        <pt x="613" y="171" on="1"/>
        <pt x="583" y="148" on="0"/>
        <pt x="513" y="126" on="0"/>
        <pt x="474" y="126" on="1"/>
        <pt x="418" y="126" on="0"/>
        <pt x="328" y="159" on="0"/>
        <pt x="265" y="217" on="0"/>
        <pt x="231" y="299" on="0"/>
        <pt x="231" y="347" on="1"/>
        <pt x="231" y="395" on="0"/>
        <pt x="264" y="476" on="0"/>
        <pt x="327" y="535" on="0"/>
        <pt x="417" y="568" on="0"/>
        <pt x="474" y="568" on="1"/>
        <pt x="527" y="568" on="0"/>
        <pt x="616" y="529" on="0"/>
        <pt x="648" y="485" on="1"/>
        <pt x="687" y="485" on="1"/>
        <pt x="711" y="485" on="0"/>
        <pt x="721" y="474" on="0"/>
        <pt x="721" y="454" on="1"/>
      </contour>
      <contour>
        <pt x="599" y="466" on="1"/>
        <pt x="584" y="486" on="0"/>
        <pt x="549" y="510" on="0"/>
        <pt x="516" y="522" on="0"/>
        <pt x="487" y="526" on="0"/>
        <pt x="478" y="526" on="1"/>
        <pt x="452" y="526" on="0"/>
        <pt x="407" y="504" on="0"/>
        <pt x="373" y="460" on="0"/>
        <pt x="353" y="392" on="0"/>
        <pt x="353" y="347" on="1"/>
        <pt x="353" y="302" on="0"/>
        <pt x="373" y="234" on="0"/>
        <pt x="407" y="190" on="0"/>
        <pt x="452" y="168" on="0"/>
        <pt x="478" y="168" on="1"/>
        <pt x="487" y="168" on="0"/>
        <pt x="516" y="172" on="0"/>
        <pt x="549" y="184" on="0"/>
        <pt x="584" y="208" on="0"/>
        <pt x="599" y="228" on="1"/>
      </contour>
    </TTGlyph>
    <TTGlyph name="b" xMin="46" yMin="-7" xMax="639" yMax="694">
      <contour>
        <pt x="228" y="405" on="1"/>
        <pt x="247" y="418" on="0"/>
        <pt x="326" y="451" on="0"/>
        <pt x="384" y="451" on="1"/>
        <pt x="443" y="451" on="0"/>
        <pt x="537" y="417" on="0"/>
        <pt x="603" y="356" on="0"/>
        <pt x="639" y="272" on="0"/>
        <pt x="639" y="222" on="1"/>
        <pt x="639" y="174" on="0"/>
        <pt x="602" y="90" on="0"/>
        <pt x="533" y="28" on="0"/>
        <pt x="433" y="-7" on="0"/>
        <pt x="370" y="-7" on="1"/>
        <pt x="325" y="-7" on="0"/>
        <pt x="248" y="23" on="0"/>
        <pt x="214" y="55" on="1"/>
        <pt x="168" y="0" on="1"/>
        <pt x="112" y="0" on="1"/>
        <pt x="112" y="595" on="1"/>
        <pt x="112" y="610" on="0"/>
        <pt x="108" y="625" on="0"/>
        <pt x="94" y="633" on="0"/>
        <pt x="68" y="634" on="0"/>
        <pt x="46" y="634" on="1"/>
        <pt x="46" y="686" on="1"/>
        <pt x="228" y="694" on="1"/>
      </contour>
      <contour>
        <pt x="234" y="107" on="1"/>
        <pt x="238" y="101" on="0"/>
        <pt x="258" y="77" on="0"/>
        <pt x="290" y="53" on="0"/>
        <pt x="333" y="35" on="0"/>
        <pt x="361" y="35" on="1"/>
        <pt x="415" y="35" on="0"/>
        <pt x="473" y="77" on="0"/>
        <pt x="500" y="136" on="0"/>
        <pt x="504" y="201" on="0"/>
        <pt x="504" y="225" on="1"/>
        <pt x="504" y="248" on="0"/>
        <pt x="500" y="312" on="0"/>
        <pt x="475" y="369" on="0"/>
        <pt x="422" y="409" on="0"/>
        <pt x="373" y="409" on="1"/>
        <pt x="347" y="409" on="0"/>
        <pt x="302" y="396" on="0"/>
        <pt x="266" y="376" on="0"/>
        <pt x="241" y="353" on="0"/>
        <pt x="234" y="344" on="1"/>
      </contour>
    </TTGlyph>
    <TTGlyph name="bracketleft" xMin="135" yMin="-250" xMax="312" yMax="750">
      <contour>
        <pt x="203" y="682" on="1"/>
        <pt x="203" y="-182" on="1"/>
        <pt x="312" y="-182" on="1"/>
        <pt x="312" y="-250" on="1"/>
        <pt x="135" y="-250" on="1"/>
        <pt x="135" y="750" on="1"/>
        <pt x="312" y="750" on="1"/>
        <pt x="312" y="682" on="1"/>
      </contour>
    </TTGlyph>
    <TTGlyph name="bracketright" xMin="27" yMin="-250" xMax="204" yMax="750">
      <contour>
        <pt x="204" y="-250" on="1"/>
        <pt x="27" y="-250" on="1"/>
        <pt x="27" y="-182" on="1"/>
        <pt x="136" y="-182" on="1"/>
        <pt x="136" y="682" on="1"/>
        <pt x="27" y="682" on="1"/>
        <pt x="27" y="750" on="1"/>
        <pt x="204" y="750" on="1"/>
      </contour>
    </TTGlyph>
    <TTGlyph name="breve" xMin="115" yMin="507" xMax="497" yMax="694">
      <contour>
        <pt x="497" y="694" on="1"/>
        <pt x="496" y="651" on="0"/>
        <pt x="463" y="581" on="0"/>
        <pt x="410" y="533" on="0"/>
        <pt x="342" y="507" on="0"/>
        <pt x="306" y="507" on="1"/>
        <pt x="270" y="507" on="0"/>
        <pt x="202" y="533" on="0"/>
        <pt x="149" y="581" on="0"/>
        <pt x="116" y="651" on="0"/>
        <pt x="115" y="694" on="1"/>
        <pt x="157" y="694" on="1"/>
        <pt x="158" y="663" on="0"/>
        <pt x="187" y="618" on="0"/>
        <pt x="230" y="590" on="0"/>
        <pt x="282" y="576" on="0"/>
        <pt x="306" y="576" on="1"/>
        <pt x="330" y="576" on="0"/>
        <pt x="382" y="590" on="0"/>
        <pt x="426" y="618" on="0"/>
        <pt x="454" y="663" on="0"/>
        <pt x="455" y="694" on="1"/>
      </contour>
    </TTGlyph>
    <TTGlyph name="c" xMin="41" yMin="-7" xMax="509" yMax="455">
      <contour>
        <pt x="509" y="115" on="1"/>
        <pt x="509" y="113" on="0"/>
        <pt x="503" y="94" on="0"/>
        <pt x="487" y="68" on="0"/>
        <pt x="461" y="38" on="0"/>
        <pt x="441" y="26" on="1"/>
        <pt x="410" y="7" on="0"/>
        <pt x="339" y="-7" on="0"/>
        <pt x="305" y="-7" on="1"/>
        <pt x="240" y="-7" on="0"/>
        <pt x="141" y="30" on="0"/>
        <pt x="75" y="92" on="0"/>
        <pt x="41" y="176" on="0"/>
        <pt x="41" y="222" on="1"/>
        <pt x="41" y="264" on="0"/>
        <pt x="71" y="348" on="0"/>
        <pt x="135" y="414" on="0"/>
        <pt x="237" y="455" on="0"/>
        <pt x="309" y="455" on="1"/>
        <pt x="319" y="455" on="0"/>
        <pt x="355" y="454" on="0"/>
        <pt x="396" y="449" on="0"/>
        <pt x="439" y="437" on="0"/>
        <pt x="473" y="415" on="0"/>
        <pt x="495" y="381" on="0"/>
        <pt x="495" y="356" on="1"/>
        <pt x="495" y="324" on="0"/>
        <pt x="456" y="288" on="0"/>
        <pt x="427" y="288" on="1"/>
        <pt x="400" y="288" on="0"/>
        <pt x="360" y="325" on="0"/>
        <pt x="360" y="355" on="1"/>
        <pt x="360" y="378" on="0"/>
        <pt x="372" y="396" on="1"/>
        <pt x="376" y="400" on="0"/>
        <pt x="376" y="402" on="1"/>
        <pt x="376" y="404" on="0"/>
        <pt x="358" y="406" on="0"/>
        <pt x="336" y="407" on="0"/>
        <pt x="316" y="408" on="0"/>
        <pt x="313" y="408" on="1"/>
        <pt x="263" y="408" on="0"/>
        <pt x="207" y="368" on="0"/>
        <pt x="181" y="311" on="0"/>
        <pt x="176" y="249" on="0"/>
        <pt x="176" y="226" on="1"/>
        <pt x="176" y="210" on="0"/>
        <pt x="181" y="148" on="0"/>
        <pt x="209" y="86" on="0"/>
        <pt x="269" y="40" on="0"/>
        <pt x="325" y="40" on="1"/>
        <pt x="337" y="40" on="0"/>
        <pt x="372" y="45" on="0"/>
        <pt x="408" y="61" on="0"/>
        <pt x="442" y="90" on="0"/>
        <pt x="452" y="115" on="1"/>
        <pt x="457" y="129" on="0"/>
        <pt x="467" y="133" on="0"/>
        <pt x="481" y="133" on="1"/>
        <pt x="490" y="133" on="0"/>
        <pt x="509" y="129" on="0"/>
      </contour>
    </TTGlyph>
    <TTGlyph name="caron" xMin="141" yMin="516" xMax="471" yMax="657">
      <contour>
        <pt x="447" y="657" on="1"/>
        <pt x="471" y="607" on="1"/>
        <pt x="306" y="516" on="1"/>
        <pt x="141" y="607" on="1"/>
        <pt x="165" y="657" on="1"/>
        <pt x="306" y="604" on="1"/>
      </contour>
    </TTGlyph>
    <TTGlyph name="cedilla" xMin="142" yMin="-205" xMax="469" yMax="-14">
      <contour>
        <pt x="367" y="-27" on="1"/>
        <pt x="379" y="-29" on="0"/>
        <pt x="413" y="-37" on="0"/>
        <pt x="446" y="-56" on="0"/>
        <pt x="469" y="-87" on="0"/>
        <pt x="469" y="-112" on="1"/>
        <pt x="469" y="-132" on="0"/>
        <pt x="450" y="-159" on="0"/>
        <pt x="420" y="-178" on="0"/>
        <pt x="384" y="-189" on="0"/>
        <pt x="366" y="-193" on="1"/>
        <pt x="325" y="-201" on="0"/>
        <pt x="244" y="-205" on="0"/>
        <pt x="203" y="-205" on="1"/>
        <pt x="142" y="-205" on="1"/>
        <pt x="142" y="-163" on="1"/>
        <pt x="185" y="-163" on="1"/>
        <pt x="199" y="-163" on="0"/>
        <pt x="253" y="-161" on="0"/>
        <pt x="307" y="-152" on="0"/>
        <pt x="347" y="-132" on="0"/>
        <pt x="347" y="-113" on="1"/>
        <pt x="347" y="-96" on="0"/>
        <pt x="325" y="-76" on="0"/>
        <pt x="293" y="-66" on="0"/>
        <pt x="258" y="-63" on="0"/>
        <pt x="245" y="-63" on="1"/>
        <pt x="245" y="-14" on="1"/>
        <pt x="367" y="-14" on="1"/>
      </contour>
    </TTGlyph>
    <TTGlyph name="circumflex" xMin="137" yMin="524" xMax="475" yMax="694">
      <contour>
        <pt x="475" y="570" on="1"/>
        <pt x="443" y="524" on="1"/>
        <pt x="306" y="605" on="1"/>
        <pt x="169" y="524" on="1"/>
        <pt x="137" y="570" on="1"/>
        <pt x="306" y="694" on="1"/>
      </contour>
    </TTGlyph>
    <TTGlyph name="colon" xMin="90" yMin="0" xMax="250" yMax="444">
      <contour>
        <pt x="250" y="364" on="1"/>
        <pt x="250" y="331" on="0"/>
        <pt x="203" y="284" on="0"/>
        <pt x="170" y="284" on="1"/>
        <pt x="137" y="284" on="0"/>
        <pt x="90" y="331" on="0"/>
        <pt x="90" y="364" on="1"/>
        <pt x="90" y="397" on="0"/>
        <pt x="137" y="444" on="0"/>
        <pt x="170" y="444" on="1"/>
        <pt x="203" y="444" on="0"/>
        <pt x="250" y="397" on="0"/>
      </contour>
      <contour>
        <pt x="250" y="80" on="1"/>
        <pt x="250" y="47" on="0"/>
        <pt x="203" y="0" on="0"/>
        <pt x="170" y="0" on="1"/>
        <pt x="137" y="0" on="0"/>
        <pt x="90" y="47" on="0"/>
        <pt x="90" y="80" on="1"/>
        <pt x="90" y="113" on="0"/>
        <pt x="137" y="160" on="0"/>
        <pt x="170" y="160" on="1"/>
        <pt x="203" y="160" on="0"/>
        <pt x="250" y="113" on="0"/>
      </contour>
    </TTGlyph>
    <TTGlyph name="comma" xMin="90" yMin="-194" xMax="264" yMax="160">
      <contour>
        <pt x="221" y="16" on="1"/>
        <pt x="210" y="7" on="0"/>
        <pt x="184" y="0" on="0"/>
        <pt x="170" y="0" on="1"/>
        <pt x="131" y="0" on="0"/>
        <pt x="90" y="49" on="0"/>
        <pt x="90" y="80" on="1"/>
        <pt x="90" y="111" on="0"/>
        <pt x="132" y="160" on="0"/>
        <pt x="170" y="160" on="1"/>
        <pt x="212" y="160" on="0"/>
        <pt x="264" y="88" on="0"/>
        <pt x="264" y="33" on="1"/>
        <pt x="264" y="-20" on="0"/>
        <pt x="230" y="-104" on="0"/>
        <pt x="186" y="-163" on="0"/>
        <pt x="145" y="-194" on="0"/>
        <pt x="138" y="-194" on="1"/>
        <pt x="130" y="-194" on="0"/>
        <pt x="116" y="-180" on="0"/>
        <pt x="116" y="-172" on="1"/>
        <pt x="116" y="-165" on="0"/>
        <pt x="123" y="-158" on="0"/>
        <pt x="128" y="-153" on="1"/>
        <pt x="154" y="-133" on="0"/>
        <pt x="188" y="-89" on="0"/>
        <pt x="209" y="-45" on="0"/>
        <pt x="220" y="-3" on="0"/>
      </contour>
    </TTGlyph>
    <TTGlyph name="d" xMin="41" yMin="-7" xMax="634" yMax="694">
      <contour>
        <pt x="568" y="694" on="1"/>
        <pt x="568" y="91" on="1"/>
        <pt x="568" y="76" on="0"/>
        <pt x="572" y="61" on="0"/>
        <pt x="586" y="53" on="0"/>
        <pt x="612" y="52" on="0"/>
        <pt x="634" y="52" on="1"/>
        <pt x="634" y="0" on="1"/>
        <pt x="446" y="-7" on="1"/>
        <pt x="446" y="42" on="1"/>
        <pt x="426" y="27" on="0"/>
        <pt x="352" y="-7" on="0"/>
        <pt x="297" y="-7" on="1"/>
        <pt x="237" y="-7" on="0"/>
        <pt x="142" y="28" on="0"/>
        <pt x="76" y="89" on="0"/>
        <pt x="41" y="173" on="0"/>
        <pt x="41" y="222" on="1"/>
        <pt x="41" y="270" on="0"/>
        <pt x="77" y="354" on="0"/>
        <pt x="146" y="416" on="0"/>
        <pt x="246" y="451" on="0"/>
        <pt x="309" y="451" on="1"/>
        <pt x="337" y="451" on="0"/>
        <pt x="411" y="436" on="0"/>
        <pt x="452" y="408" on="1"/>
        <pt x="452" y="595" on="1"/>
        <pt x="452" y="610" on="0"/>
        <pt x="448" y="625" on="0"/>
        <pt x="434" y="633" on="0"/>
        <pt x="408" y="634" on="0"/>
        <pt x="386" y="634" on="1"/>
        <pt x="386" y="686" on="1"/>
      </contour>
      <contour>
        <pt x="446" y="347" on="1"/>
        <pt x="420" y="379" on="0"/>
        <pt x="354" y="409" on="0"/>
        <pt x="319" y="409" on="1"/>
        <pt x="265" y="409" on="0"/>
        <pt x="207" y="367" on="0"/>
        <pt x="180" y="308" on="0"/>
        <pt x="176" y="243" on="0"/>
        <pt x="176" y="219" on="1"/>
        <pt x="176" y="197" on="0"/>
        <pt x="180" y="133" on="0"/>
        <pt x="204" y="76" on="0"/>
        <pt x="257" y="35" on="0"/>
        <pt x="306" y="35" on="1"/>
        <pt x="319" y="35" on="0"/>
        <pt x="352" y="40" on="0"/>
        <pt x="390" y="56" on="0"/>
        <pt x="428" y="86" on="0"/>
        <pt x="446" y="111" on="1"/>
      </contour>
    </TTGlyph>
    <TTGlyph name="dieresis" xMin="114" yMin="548" xMax="498" yMax="695">
      <contour>
        <pt x="261" y="621" on="1"/>
        <pt x="261" y="608" on="0"/>
        <pt x="251" y="582" on="0"/>
        <pt x="232" y="561" on="0"/>
        <pt x="204" y="548" on="0"/>
        <pt x="187" y="548" on="1"/>
        <pt x="174" y="548" on="0"/>
        <pt x="148" y="558" on="0"/>
        <pt x="127" y="577" on="0"/>
        <pt x="114" y="604" on="0"/>
        <pt x="114" y="622" on="1"/>
        <pt x="114" y="654" on="0"/>
        <pt x="159" y="695" on="0"/>
        <pt x="187" y="695" on="1"/>
        <pt x="220" y="695" on="0"/>
        <pt x="261" y="650" on="0"/>
      </contour>
      <contour>
        <pt x="498" y="621" on="1"/>
        <pt x="498" y="589" on="0"/>
        <pt x="453" y="548" on="0"/>
        <pt x="425" y="548" on="1"/>
        <pt x="392" y="548" on="0"/>
        <pt x="351" y="593" on="0"/>
        <pt x="351" y="622" on="1"/>
        <pt x="351" y="635" on="0"/>
        <pt x="361" y="661" on="0"/>
        <pt x="380" y="682" on="0"/>
        <pt x="408" y="695" on="0"/>
        <pt x="425" y="695" on="1"/>
        <pt x="438" y="695" on="0"/>
        <pt x="464" y="685" on="0"/>
        <pt x="485" y="666" on="0"/>
        <pt x="498" y="639" on="0"/>
      </contour>
    </TTGlyph>
    <TTGlyph name="dollar" xMin="68" yMin="-56" xMax="544" yMax="750">
      <contour>
        <pt x="332" y="431" on="1"/>
        <pt x="398" y="420" on="0"/>
        <pt x="480" y="367" on="0"/>
        <pt x="527" y="303" on="0"/>
        <pt x="544" y="236" on="0"/>
        <pt x="544" y="211" on="1"/>
        <pt x="544" y="181" on="0"/>
        <pt x="525" y="109" on="0"/>
        <pt x="477" y="46" on="0"/>
        <pt x="395" y="0" on="0"/>
        <pt x="332" y="-6" on="1"/>
        <pt x="332" y="-56" on="1"/>
        <pt x="280" y="-56" on="1"/>
        <pt x="280" y="-6" on="1"/>
        <pt x="219" y="-2" on="0"/>
        <pt x="137" y="37" on="0"/>
        <pt x="88" y="92" on="0"/>
        <pt x="68" y="156" on="0"/>
        <pt x="68" y="186" on="1"/>
        <pt x="68" y="224" on="0"/>
        <pt x="110" y="257" on="0"/>
        <pt x="136" y="257" on="1"/>
        <pt x="165" y="257" on="0"/>
        <pt x="203" y="219" on="0"/>
        <pt x="203" y="190" on="1"/>
        <pt x="203" y="159" on="0"/>
        <pt x="164" y="124" on="0"/>
        <pt x="140" y="122" on="1"/>
        <pt x="162" y="81" on="0"/>
        <pt x="238" y="50" on="0"/>
        <pt x="280" y="46" on="1"/>
        <pt x="280" y="290" on="1"/>
        <pt x="247" y="297" on="0"/>
        <pt x="171" y="320" on="0"/>
        <pt x="133" y="354" on="1"/>
        <pt x="109" y="377" on="0"/>
        <pt x="68" y="447" on="0"/>
        <pt x="68" y="497" on="1"/>
        <pt x="68" y="530" on="0"/>
        <pt x="91" y="599" on="0"/>
        <pt x="142" y="656" on="0"/>
        <pt x="222" y="696" on="0"/>
        <pt x="280" y="700" on="1"/>
        <pt x="280" y="750" on="1"/>
        <pt x="332" y="750" on="1"/>
        <pt x="332" y="700" on="1"/>
        <pt x="384" y="697" on="0"/>
        <pt x="463" y="669" on="0"/>
        <pt x="517" y="621" on="0"/>
        <pt x="544" y="558" on="0"/>
        <pt x="544" y="521" on="1"/>
        <pt x="544" y="500" on="0"/>
        <pt x="530" y="473" on="0"/>
        <pt x="509" y="456" on="0"/>
        <pt x="485" y="450" on="0"/>
        <pt x="476" y="450" on="1"/>
        <pt x="464" y="450" on="0"/>
        <pt x="441" y="459" on="0"/>
        <pt x="421" y="476" on="0"/>
        <pt x="409" y="501" on="0"/>
        <pt x="409" y="518" on="1"/>
        <pt x="409" y="538" on="0"/>
        <pt x="435" y="580" on="0"/>
        <pt x="470" y="585" on="1"/>
        <pt x="464" y="595" on="0"/>
        <pt x="443" y="615" on="0"/>
        <pt x="410" y="632" on="0"/>
        <pt x="364" y="645" on="0"/>
        <pt x="332" y="648" on="1"/>
      </contour>
      <contour>
        <pt x="280" y="648" on="1"/>
        <pt x="218" y="643" on="0"/>
        <pt x="154" y="585" on="0"/>
        <pt x="154" y="545" on="1"/>
        <pt x="154" y="529" on="0"/>
        <pt x="168" y="498" on="0"/>
        <pt x="198" y="470" on="0"/>
        <pt x="246" y="448" on="0"/>
        <pt x="280" y="442" on="1"/>
      </contour>
      <contour>
        <pt x="332" y="46" on="1"/>
        <pt x="393" y="52" on="0"/>
        <pt x="458" y="117" on="0"/>
        <pt x="458" y="162" on="1"/>
        <pt x="458" y="208" on="0"/>
        <pt x="386" y="271" on="0"/>
        <pt x="332" y="279" on="1"/>
      </contour>
    </TTGlyph>
    <TTGlyph name="dotaccent" xMin="89" yMin="535" xMax="250" yMax="695">
      <contour>
        <pt x="250" y="615" on="1"/>
        <pt x="250" y="582" on="0"/>
        <pt x="203" y="535" on="0"/>
        <pt x="169" y="535" on="1"/>
        <pt x="137" y="535" on="0"/>
        <pt x="89" y="581" on="0"/>
        <pt x="89" y="615" on="1"/>
        <pt x="89" y="648" on="0"/>
        <pt x="136" y="695" on="0"/>
        <pt x="170" y="695" on="1"/>
        <pt x="202" y="695" on="0"/>
        <pt x="250" y="649" on="0"/>
      </contour>
    </TTGlyph>
    <TTGlyph name="dotlessi" xMin="59" yMin="0" xMax="300" yMax="451">
      <contour>
        <pt x="241" y="52" on="1"/>
        <pt x="300" y="52" on="1"/>
        <pt x="300" y="0" on="1"/>
        <pt x="263" y="2" on="0"/>
        <pt x="212" y="3" on="0"/>
        <pt x="181" y="3" on="1"/>
        <pt x="161" y="3" on="0"/>
        <pt x="134" y="3" on="0"/>
        <pt x="109" y="2" on="0"/>
        <pt x="81" y="1" on="0"/>
        <pt x="59" y="0" on="1"/>
        <pt x="59" y="52" on="1"/>
        <pt x="125" y="52" on="1"/>
        <pt x="125" y="353" on="1"/>
        <pt x="125" y="367" on="0"/>
        <pt x="121" y="383" on="0"/>
        <pt x="108" y="390" on="0"/>
        <pt x="83" y="391" on="0"/>
        <pt x="62" y="391" on="1"/>
        <pt x="62" y="443" on="1"/>
        <pt x="241" y="451" on="1"/>
      </contour>
    </TTGlyph>
    <TTGlyph name="e" xMin="34" yMin="-7" xMax="526" yMax="455">
      <contour>
        <pt x="169" y="212" on="1"/>
        <pt x="170" y="191" on="0"/>
        <pt x="177" y="132" on="0"/>
        <pt x="207" y="78" on="0"/>
        <pt x="269" y="40" on="0"/>
        <pt x="324" y="40" on="1"/>
        <pt x="335" y="40" on="0"/>
        <pt x="373" y="44" on="0"/>
        <pt x="417" y="60" on="0"/>
        <pt x="457" y="91" on="0"/>
        <pt x="469" y="117" on="1"/>
        <pt x="475" y="130" on="0"/>
        <pt x="485" y="136" on="0"/>
        <pt x="498" y="136" on="1"/>
        <pt x="503" y="136" on="0"/>
        <pt x="526" y="131" on="0"/>
        <pt x="526" y="115" on="1"/>
        <pt x="526" y="110" on="0"/>
        <pt x="509" y="70" on="0"/>
        <pt x="461" y="27" on="0"/>
        <pt x="378" y="-7" on="0"/>
        <pt x="312" y="-7" on="1"/>
        <pt x="245" y="-7" on="0"/>
        <pt x="142" y="29" on="0"/>
        <pt x="71" y="92" on="0"/>
        <pt x="34" y="177" on="0"/>
        <pt x="34" y="226" on="1"/>
        <pt x="34" y="270" on="0"/>
        <pt x="66" y="353" on="0"/>
        <pt x="131" y="417" on="0"/>
        <pt x="230" y="455" on="0"/>
        <pt x="297" y="455" on="1"/>
        <pt x="349" y="455" on="0"/>
        <pt x="433" y="428" on="0"/>
        <pt x="493" y="375" on="0"/>
        <pt x="526" y="295" on="0"/>
        <pt x="526" y="241" on="1"/>
        <pt x="526" y="219" on="0"/>
        <pt x="508" y="212" on="0"/>
        <pt x="492" y="212" on="1"/>
      </contour>
      <contour>
        <pt x="428" y="251" on="1"/>
        <pt x="428" y="266" on="0"/>
        <pt x="422" y="320" on="0"/>
        <pt x="396" y="373" on="0"/>
        <pt x="345" y="413" on="0"/>
        <pt x="298" y="413" on="1"/>
        <pt x="252" y="413" on="0"/>
        <pt x="200" y="374" on="0"/>
        <pt x="175" y="320" on="0"/>
        <pt x="169" y="266" on="0"/>
        <pt x="169" y="251" on="1"/>
      </contour>
    </TTGlyph>
    <TTGlyph name="eight" xMin="51" yMin="-14" xMax="561" yMax="658">
      <contour>
        <pt x="425" y="370" on="1"/>
        <pt x="440" y="363" on="0"/>
        <pt x="486" y="335" on="0"/>
        <pt x="529" y="291" on="0"/>
        <pt x="561" y="229" on="0"/>
        <pt x="561" y="187" on="1"/>
        <pt x="561" y="145" on="0"/>
        <pt x="529" y="72" on="0"/>
        <pt x="465" y="17" on="0"/>
        <pt x="369" y="-14" on="0"/>
        <pt x="304" y="-14" on="1"/>
        <pt x="252" y="-14" on="0"/>
        <pt x="159" y="6" on="0"/>
        <pt x="91" y="48" on="0"/>
        <pt x="51" y="114" on="0"/>
        <pt x="51" y="161" on="1"/>
        <pt x="51" y="184" on="0"/>
        <pt x="62" y="229" on="0"/>
        <pt x="92" y="273" on="0"/>
        <pt x="142" y="313" on="0"/>
        <pt x="181" y="330" on="1"/>
        <pt x="140" y="353" on="0"/>
        <pt x="85" y="429" on="0"/>
        <pt x="85" y="480" on="1"/>
        <pt x="85" y="517" on="0"/>
        <pt x="113" y="582" on="0"/>
        <pt x="168" y="630" on="0"/>
        <pt x="252" y="658" on="0"/>
        <pt x="308" y="658" on="1"/>
        <pt x="323" y="658" on="0"/>
        <pt x="367" y="655" on="0"/>
        <pt x="416" y="645" on="0"/>
        <pt x="464" y="625" on="0"/>
        <pt x="503" y="592" on="0"/>
        <pt x="527" y="543" on="0"/>
        <pt x="527" y="508" on="1"/>
        <pt x="527" y="479" on="0"/>
        <pt x="507" y="435" on="0"/>
        <pt x="477" y="402" on="0"/>
        <pt x="441" y="379" on="0"/>
      </contour>
      <contour>
        <pt x="372" y="398" on="1"/>
        <pt x="414" y="423" on="0"/>
        <pt x="444" y="479" on="0"/>
        <pt x="444" y="508" on="1"/>
        <pt x="444" y="558" on="0"/>
        <pt x="372" y="615" on="0"/>
        <pt x="303" y="615" on="1"/>
        <pt x="281" y="615" on="0"/>
        <pt x="233" y="609" on="0"/>
        <pt x="193" y="592" on="0"/>
        <pt x="168" y="563" on="0"/>
        <pt x="168" y="539" on="1"/>
        <pt x="168" y="527" on="0"/>
        <pt x="177" y="508" on="0"/>
        <pt x="191" y="494" on="0"/>
        <pt x="208" y="484" on="0"/>
        <pt x="215" y="480" on="1"/>
      </contour>
      <contour>
        <pt x="290" y="272" on="1"/>
        <pt x="276" y="279" on="0"/>
        <pt x="240" y="298" on="0"/>
        <pt x="238" y="298" on="1"/>
        <pt x="237" y="298" on="0"/>
        <pt x="208" y="283" on="0"/>
        <pt x="174" y="250" on="0"/>
        <pt x="146" y="198" on="0"/>
        <pt x="146" y="161" on="1"/>
        <pt x="146" y="98" on="0"/>
        <pt x="235" y="33" on="0"/>
        <pt x="308" y="33" on="1"/>
        <pt x="331" y="33" on="0"/>
        <pt x="386" y="40" on="0"/>
        <pt x="434" y="61" on="0"/>
        <pt x="466" y="100" on="0"/>
        <pt x="466" y="132" on="1"/>
        <pt x="466" y="150" on="0"/>
        <pt x="451" y="177" on="0"/>
        <pt x="431" y="196" on="0"/>
        <pt x="410" y="209" on="0"/>
        <pt x="404" y="212" on="1"/>
      </contour>
    </TTGlyph>
    <TTGlyph name="emdash" xMin="0" yMin="253" xMax="1224" yMax="295">
      <contour>
        <pt x="0" y="253" on="1"/>
        <pt x="0" y="295" on="1"/>
        <pt x="1224" y="295" on="1"/>
        <pt x="1224" y="253" on="1"/>
      </contour>
    </TTGlyph>
    <TTGlyph name="endash" xMin="0" yMin="253" xMax="612" yMax="295">
      <contour>
        <pt x="0" y="253" on="1"/>
        <pt x="0" y="295" on="1"/>
        <pt x="612" y="295" on="1"/>
        <pt x="612" y="253" on="1"/>
      </contour>
    </TTGlyph>
    <TTGlyph name="equal" xMin="68" yMin="95" xMax="884" yMax="405">
      <contour>
        <pt x="112" y="337" on="1"/>
        <pt x="108" y="337" on="0"/>
        <pt x="93" y="338" on="0"/>
        <pt x="78" y="344" on="0"/>
        <pt x="68" y="358" on="0"/>
        <pt x="68" y="371" on="1"/>
        <pt x="68" y="384" on="0"/>
        <pt x="80" y="398" on="0"/>
        <pt x="96" y="404" on="0"/>
        <pt x="113" y="405" on="0"/>
        <pt x="118" y="405" on="1"/>
        <pt x="834" y="405" on="1"/>
        <pt x="839" y="405" on="0"/>
        <pt x="856" y="404" on="0"/>
        <pt x="872" y="398" on="0"/>
        <pt x="884" y="384" on="0"/>
        <pt x="884" y="371" on="1"/>
        <pt x="884" y="358" on="0"/>
        <pt x="874" y="344" on="0"/>
        <pt x="859" y="338" on="0"/>
        <pt x="845" y="337" on="0"/>
        <pt x="840" y="337" on="1"/>
      </contour>
      <contour>
        <pt x="118" y="95" on="1"/>
        <pt x="113" y="95" on="0"/>
        <pt x="96" y="96" on="0"/>
        <pt x="80" y="102" on="0"/>
        <pt x="68" y="116" on="0"/>
        <pt x="68" y="129" on="1"/>
        <pt x="68" y="142" on="0"/>
        <pt x="78" y="156" on="0"/>
        <pt x="93" y="162" on="0"/>
        <pt x="108" y="163" on="0"/>
        <pt x="112" y="163" on="1"/>
        <pt x="840" y="163" on="1"/>
        <pt x="845" y="163" on="0"/>
        <pt x="859" y="162" on="0"/>
        <pt x="874" y="156" on="0"/>
        <pt x="884" y="142" on="0"/>
        <pt x="884" y="129" on="1"/>
        <pt x="884" y="116" on="0"/>
        <pt x="872" y="102" on="0"/>
        <pt x="856" y="96" on="0"/>
        <pt x="839" y="95" on="0"/>
        <pt x="834" y="95" on="1"/>
      </contour>
    </TTGlyph>
    <TTGlyph name="exclam" xMin="106" yMin="0" xMax="266" yMax="708">
      <contour>
        <pt x="215" y="256" on="1"/>
        <pt x="213" y="240" on="0"/>
        <pt x="205" y="229" on="0"/>
        <pt x="186" y="229" on="1"/>
        <pt x="167" y="229" on="0"/>
        <pt x="159" y="240" on="0"/>
        <pt x="157" y="257" on="1"/>
        <pt x="109" y="608" on="1"/>
        <pt x="107" y="622" on="0"/>
        <pt x="106" y="631" on="0"/>
        <pt x="106" y="634" on="1"/>
        <pt x="106" y="652" on="0"/>
        <pt x="121" y="680" on="0"/>
        <pt x="144" y="699" on="0"/>
        <pt x="173" y="708" on="0"/>
        <pt x="186" y="708" on="1"/>
        <pt x="200" y="708" on="0"/>
        <pt x="228" y="699" on="0"/>
        <pt x="251" y="681" on="0"/>
        <pt x="266" y="653" on="0"/>
        <pt x="266" y="634" on="1"/>
        <pt x="266" y="631" on="0"/>
        <pt x="265" y="621" on="0"/>
        <pt x="263" y="608" on="1"/>
      </contour>
      <contour>
        <pt x="266" y="80" on="1"/>
        <pt x="266" y="47" on="0"/>
        <pt x="219" y="0" on="0"/>
        <pt x="186" y="0" on="1"/>
        <pt x="153" y="0" on="0"/>
        <pt x="106" y="47" on="0"/>
        <pt x="106" y="80" on="1"/>
        <pt x="106" y="113" on="0"/>
        <pt x="153" y="160" on="0"/>
        <pt x="186" y="160" on="1"/>
        <pt x="219" y="160" on="0"/>
        <pt x="266" y="113" on="0"/>
      </contour>
    </TTGlyph>
    <TTGlyph name="exclamdown" xMin="106" yMin="-208" xMax="266" yMax="500">
      <contour>
        <pt x="266" y="420" on="1"/>
        <pt x="266" y="387" on="0"/>
        <pt x="219" y="340" on="0"/>
        <pt x="186" y="340" on="1"/>
        <pt x="153" y="340" on="0"/>
        <pt x="106" y="387" on="0"/>
        <pt x="106" y="420" on="1"/>
        <pt x="106" y="453" on="0"/>
        <pt x="153" y="500" on="0"/>
        <pt x="186" y="500" on="1"/>
        <pt x="219" y="500" on="0"/>
        <pt x="266" y="453" on="0"/>
      </contour>
      <contour>
        <pt x="157" y="244" on="1"/>
        <pt x="159" y="260" on="0"/>
        <pt x="167" y="271" on="0"/>
        <pt x="186" y="271" on="1"/>
        <pt x="205" y="271" on="0"/>
        <pt x="213" y="260" on="0"/>
        <pt x="215" y="243" on="1"/>
        <pt x="263" y="-108" on="1"/>
        <pt x="265" y="-122" on="0"/>
        <pt x="266" y="-131" on="0"/>
        <pt x="266" y="-134" on="1"/>
        <pt x="266" y="-152" on="0"/>
        <pt x="251" y="-180" on="0"/>
        <pt x="228" y="-199" on="0"/>
        <pt x="200" y="-208" on="0"/>
        <pt x="186" y="-208" on="1"/>
        <pt x="173" y="-208" on="0"/>
        <pt x="144" y="-199" on="0"/>
        <pt x="121" y="-181" on="0"/>
        <pt x="106" y="-153" on="0"/>
        <pt x="106" y="-134" on="1"/>
        <pt x="106" y="-131" on="0"/>
        <pt x="107" y="-121" on="0"/>
        <pt x="109" y="-108" on="1"/>
      </contour>
    </TTGlyph>
    <TTGlyph name="f" xMin="46" yMin="0" xMax="467" yMax="701">
      <contour>
        <pt x="241" y="52" on="1"/>
        <pt x="323" y="52" on="1"/>
        <pt x="323" y="0" on="1"/>
        <pt x="294" y="1" on="0"/>
        <pt x="260" y="2" on="0"/>
        <pt x="235" y="3" on="0"/>
        <pt x="208" y="3" on="0"/>
        <pt x="187" y="3" on="1"/>
        <pt x="165" y="3" on="0"/>
        <pt x="135" y="3" on="0"/>
        <pt x="109" y="2" on="0"/>
        <pt x="81" y="1" on="0"/>
        <pt x="59" y="0" on="1"/>
        <pt x="59" y="52" on="1"/>
        <pt x="125" y="52" on="1"/>
        <pt x="125" y="392" on="1"/>
        <pt x="46" y="392" on="1"/>
        <pt x="46" y="444" on="1"/>
        <pt x="125" y="444" on="1"/>
        <pt x="125" y="541" on="1"/>
        <pt x="125" y="586" on="0"/>
        <pt x="165" y="647" on="0"/>
        <pt x="228" y="684" on="0"/>
        <pt x="305" y="701" on="0"/>
        <pt x="343" y="701" on="1"/>
        <pt x="375" y="701" on="0"/>
        <pt x="421" y="685" on="0"/>
        <pt x="452" y="659" on="0"/>
        <pt x="467" y="626" on="0"/>
        <pt x="467" y="609" on="1"/>
        <pt x="467" y="593" on="0"/>
        <pt x="455" y="568" on="0"/>
        <pt x="436" y="551" on="0"/>
        <pt x="412" y="543" on="0"/>
        <pt x="401" y="543" on="1"/>
        <pt x="378" y="543" on="0"/>
        <pt x="335" y="576" on="0"/>
        <pt x="335" y="609" on="1"/>
        <pt x="335" y="621" on="0"/>
        <pt x="343" y="644" on="0"/>
        <pt x="351" y="653" on="1"/>
        <pt x="353" y="655" on="0"/>
        <pt x="353" y="657" on="1"/>
        <pt x="353" y="659" on="0"/>
        <pt x="342" y="659" on="0"/>
        <pt x="340" y="659" on="1"/>
        <pt x="309" y="659" on="0"/>
        <pt x="269" y="638" on="0"/>
        <pt x="245" y="604" on="0"/>
        <pt x="235" y="563" on="0"/>
        <pt x="235" y="542" on="1"/>
        <pt x="235" y="444" on="1"/>
        <pt x="363" y="444" on="1"/>
        <pt x="363" y="392" on="1"/>
        <pt x="241" y="392" on="1"/>
      </contour>
    </TTGlyph>
    <TTGlyph name="f_f" xMin="33" yMin="0" xMax="795" yMax="701">
      <contour>
        <pt x="568" y="52" on="1"/>
        <pt x="650" y="52" on="1"/>
        <pt x="650" y="0" on="1"/>
        <pt x="621" y="1" on="0"/>
        <pt x="587" y="2" on="0"/>
        <pt x="562" y="3" on="0"/>
        <pt x="535" y="3" on="0"/>
        <pt x="514" y="3" on="1"/>
        <pt x="492" y="3" on="0"/>
        <pt x="462" y="3" on="0"/>
        <pt x="436" y="2" on="0"/>
        <pt x="408" y="1" on="0"/>
        <pt x="386" y="0" on="1"/>
        <pt x="386" y="52" on="1"/>
        <pt x="452" y="52" on="1"/>
        <pt x="452" y="392" on="1"/>
        <pt x="228" y="392" on="1"/>
        <pt x="228" y="52" on="1"/>
        <pt x="294" y="52" on="1"/>
        <pt x="294" y="0" on="1"/>
        <pt x="272" y="1" on="0"/>
        <pt x="244" y="2" on="0"/>
        <pt x="219" y="3" on="0"/>
        <pt x="191" y="3" on="0"/>
        <pt x="170" y="3" on="1"/>
        <pt x="149" y="3" on="0"/>
        <pt x="121" y="3" on="0"/>
        <pt x="96" y="2" on="0"/>
        <pt x="68" y="1" on="0"/>
        <pt x="46" y="0" on="1"/>
        <pt x="46" y="52" on="1"/>
        <pt x="112" y="52" on="1"/>
        <pt x="112" y="392" on="1"/>
        <pt x="33" y="392" on="1"/>
        <pt x="33" y="444" on="1"/>
        <pt x="112" y="444" on="1"/>
        <pt x="112" y="540" on="1"/>
        <pt x="112" y="587" on="0"/>
        <pt x="164" y="648" on="0"/>
        <pt x="246" y="686" on="0"/>
        <pt x="346" y="701" on="0"/>
        <pt x="394" y="701" on="1"/>
        <pt x="401" y="701" on="0"/>
        <pt x="430" y="700" on="0"/>
        <pt x="468" y="693" on="0"/>
        <pt x="508" y="679" on="0"/>
        <pt x="525" y="666" on="1"/>
        <pt x="545" y="678" on="0"/>
        <pt x="586" y="691" on="0"/>
        <pt x="625" y="699" on="0"/>
        <pt x="659" y="701" on="0"/>
        <pt x="671" y="701" on="1"/>
        <pt x="702" y="701" on="0"/>
        <pt x="748" y="685" on="0"/>
        <pt x="779" y="660" on="0"/>
        <pt x="795" y="627" on="0"/>
        <pt x="795" y="609" on="1"/>
        <pt x="795" y="593" on="0"/>
        <pt x="783" y="568" on="0"/>
        <pt x="764" y="551" on="0"/>
        <pt x="740" y="543" on="0"/>
        <pt x="729" y="543" on="1"/>
        <pt x="706" y="543" on="0"/>
        <pt x="663" y="576" on="0"/>
        <pt x="663" y="609" on="1"/>
        <pt x="663" y="621" on="0"/>
        <pt x="671" y="644" on="0"/>
        <pt x="679" y="653" on="1"/>
        <pt x="681" y="655" on="0"/>
        <pt x="681" y="657" on="1"/>
        <pt x="681" y="659" on="0"/>
        <pt x="670" y="659" on="0"/>
        <pt x="668" y="659" on="1"/>
        <pt x="614" y="659" on="0"/>
        <pt x="562" y="593" on="0"/>
        <pt x="562" y="542" on="1"/>
        <pt x="562" y="444" on="1"/>
        <pt x="691" y="444" on="1"/>
        <pt x="691" y="392" on="1"/>
        <pt x="568" y="392" on="1"/>
      </contour>
      <contour>
        <pt x="452" y="444" on="1"/>
        <pt x="452" y="543" on="1"/>
        <pt x="439" y="552" on="0"/>
        <pt x="426" y="580" on="0"/>
        <pt x="426" y="596" on="1"/>
        <pt x="426" y="612" on="0"/>
        <pt x="438" y="641" on="0"/>
        <pt x="451" y="650" on="1"/>
        <pt x="432" y="656" on="0"/>
        <pt x="400" y="659" on="0"/>
        <pt x="388" y="659" on="1"/>
        <pt x="353" y="659" on="0"/>
        <pt x="293" y="645" on="0"/>
        <pt x="248" y="616" on="0"/>
        <pt x="222" y="571" on="0"/>
        <pt x="222" y="539" on="1"/>
        <pt x="222" y="444" on="1"/>
      </contour>
    </TTGlyph>
    <TTGlyph name="f_f_i" xMin="33" yMin="0" xMax="974" yMax="701">
      <contour>
        <pt x="908" y="454" on="1"/>
        <pt x="908" y="52" on="1"/>
        <pt x="974" y="52" on="1"/>
        <pt x="974" y="0" on="1"/>
        <pt x="952" y="1" on="0"/>
        <pt x="924" y="2" on="0"/>
        <pt x="899" y="3" on="0"/>
        <pt x="871" y="3" on="0"/>
        <pt x="850" y="3" on="1"/>
        <pt x="829" y="3" on="0"/>
        <pt x="801" y="3" on="0"/>
        <pt x="776" y="2" on="0"/>
        <pt x="748" y="1" on="0"/>
        <pt x="726" y="0" on="1"/>
        <pt x="726" y="52" on="1"/>
        <pt x="792" y="52" on="1"/>
        <pt x="792" y="357" on="1"/>
        <pt x="792" y="383" on="0"/>
        <pt x="780" y="392" on="0"/>
        <pt x="761" y="392" on="1"/>
        <pt x="568" y="392" on="1"/>
        <pt x="568" y="52" on="1"/>
        <pt x="634" y="52" on="1"/>
        <pt x="634" y="0" on="1"/>
        <pt x="612" y="1" on="0"/>
        <pt x="584" y="2" on="0"/>
        <pt x="559" y="3" on="0"/>
        <pt x="531" y="3" on="0"/>
        <pt x="510" y="3" on="1"/>
        <pt x="489" y="3" on="0"/>
        <pt x="461" y="3" on="0"/>
        <pt x="436" y="2" on="0"/>
        <pt x="408" y="1" on="0"/>
        <pt x="386" y="0" on="1"/>
        <pt x="386" y="52" on="1"/>
        <pt x="452" y="52" on="1"/>
        <pt x="452" y="392" on="1"/>
        <pt x="228" y="392" on="1"/>
        <pt x="228" y="52" on="1"/>
        <pt x="294" y="52" on="1"/>
        <pt x="294" y="0" on="1"/>
        <pt x="272" y="1" on="0"/>
        <pt x="244" y="2" on="0"/>
        <pt x="219" y="3" on="0"/>
        <pt x="191" y="3" on="0"/>
        <pt x="170" y="3" on="1"/>
        <pt x="149" y="3" on="0"/>
        <pt x="121" y="3" on="0"/>
        <pt x="96" y="2" on="0"/>
        <pt x="68" y="1" on="0"/>
        <pt x="46" y="0" on="1"/>
        <pt x="46" y="52" on="1"/>
        <pt x="112" y="52" on="1"/>
        <pt x="112" y="392" on="1"/>
        <pt x="33" y="392" on="1"/>
        <pt x="33" y="444" on="1"/>
        <pt x="112" y="444" on="1"/>
        <pt x="112" y="540" on="1"/>
        <pt x="112" y="587" on="0"/>
        <pt x="166" y="649" on="0"/>
        <pt x="248" y="686" on="0"/>
        <pt x="348" y="701" on="0"/>
        <pt x="393" y="701" on="1"/>
        <pt x="401" y="701" on="0"/>
        <pt x="432" y="700" on="0"/>
        <pt x="468" y="691" on="0"/>
        <pt x="508" y="673" on="0"/>
        <pt x="525" y="656" on="1"/>
        <pt x="567" y="679" on="0"/>
        <pt x="669" y="701" on="0"/>
        <pt x="737" y="701" on="1"/>
        <pt x="780" y="701" on="0"/>
        <pt x="843" y="680" on="0"/>
        <pt x="884" y="646" on="0"/>
        <pt x="904" y="603" on="0"/>
        <pt x="904" y="580" on="1"/>
        <pt x="904" y="550" on="0"/>
        <pt x="866" y="511" on="0"/>
        <pt x="835" y="511" on="1"/>
        <pt x="805" y="511" on="0"/>
        <pt x="766" y="549" on="0"/>
        <pt x="766" y="580" on="1"/>
        <pt x="766" y="601" on="0"/>
        <pt x="785" y="634" on="0"/>
        <pt x="804" y="643" on="1"/>
        <pt x="784" y="654" on="0"/>
        <pt x="749" y="659" on="0"/>
        <pt x="731" y="659" on="1"/>
        <pt x="701" y="659" on="0"/>
        <pt x="641" y="647" on="0"/>
        <pt x="592" y="620" on="0"/>
        <pt x="562" y="574" on="0"/>
        <pt x="562" y="539" on="1"/>
        <pt x="562" y="444" on="1"/>
        <pt x="726" y="444" on="1"/>
        <pt x="726" y="448" on="1"/>
      </contour>
      <contour>
        <pt x="452" y="444" on="1"/>
        <pt x="452" y="521" on="1"/>
        <pt x="440" y="528" on="0"/>
        <pt x="427" y="546" on="0"/>
        <pt x="421" y="563" on="0"/>
        <pt x="419" y="577" on="0"/>
        <pt x="419" y="580" on="1"/>
        <pt x="419" y="607" on="0"/>
        <pt x="447" y="638" on="0"/>
        <pt x="459" y="644" on="1"/>
        <pt x="435" y="655" on="0"/>
        <pt x="396" y="659" on="0"/>
        <pt x="388" y="659" on="1"/>
        <pt x="355" y="659" on="0"/>
        <pt x="294" y="646" on="0"/>
        <pt x="249" y="617" on="0"/>
        <pt x="222" y="572" on="0"/>
        <pt x="222" y="539" on="1"/>
        <pt x="222" y="444" on="1"/>
      </contour>
    </TTGlyph>
    <TTGlyph name="f_f_l" xMin="33" yMin="0" xMax="974" yMax="701">
      <contour>
        <pt x="908" y="52" on="1"/>
        <pt x="974" y="52" on="1"/>
        <pt x="974" y="0" on="1"/>
        <pt x="952" y="1" on="0"/>
        <pt x="924" y="2" on="0"/>
        <pt x="899" y="3" on="0"/>
        <pt x="871" y="3" on="0"/>
        <pt x="850" y="3" on="1"/>
        <pt x="829" y="3" on="0"/>
        <pt x="801" y="3" on="0"/>
        <pt x="776" y="2" on="0"/>
        <pt x="748" y="1" on="0"/>
        <pt x="726" y="0" on="1"/>
        <pt x="726" y="52" on="1"/>
        <pt x="792" y="52" on="1"/>
        <pt x="792" y="392" on="1"/>
        <pt x="568" y="392" on="1"/>
        <pt x="568" y="52" on="1"/>
        <pt x="634" y="52" on="1"/>
        <pt x="634" y="0" on="1"/>
        <pt x="612" y="1" on="0"/>
        <pt x="584" y="2" on="0"/>
        <pt x="559" y="3" on="0"/>
        <pt x="531" y="3" on="0"/>
        <pt x="510" y="3" on="1"/>
        <pt x="489" y="3" on="0"/>
        <pt x="461" y="3" on="0"/>
        <pt x="436" y="2" on="0"/>
        <pt x="408" y="1" on="0"/>
        <pt x="386" y="0" on="1"/>
        <pt x="386" y="52" on="1"/>
        <pt x="452" y="52" on="1"/>
        <pt x="452" y="392" on="1"/>
        <pt x="228" y="392" on="1"/>
        <pt x="228" y="52" on="1"/>
        <pt x="294" y="52" on="1"/>
        <pt x="294" y="0" on="1"/>
        <pt x="272" y="1" on="0"/>
        <pt x="244" y="2" on="0"/>
        <pt x="219" y="3" on="0"/>
        <pt x="191" y="3" on="0"/>
        <pt x="170" y="3" on="1"/>
        <pt x="149" y="3" on="0"/>
        <pt x="121" y="3" on="0"/>
        <pt x="96" y="2" on="0"/>
        <pt x="68" y="1" on="0"/>
        <pt x="46" y="0" on="1"/>
        <pt x="46" y="52" on="1"/>
        <pt x="112" y="52" on="1"/>
        <pt x="112" y="392" on="1"/>
        <pt x="33" y="392" on="1"/>
        <pt x="33" y="444" on="1"/>
        <pt x="112" y="444" on="1"/>
        <pt x="112" y="540" on="1"/>
        <pt x="112" y="587" on="0"/>
        <pt x="164" y="648" on="0"/>
        <pt x="246" y="686" on="0"/>
        <pt x="346" y="701" on="0"/>
        <pt x="394" y="701" on="1"/>
        <pt x="411" y="701" on="0"/>
        <pt x="448" y="698" on="0"/>
        <pt x="484" y="689" on="0"/>
        <pt x="518" y="673" on="0"/>
        <pt x="531" y="660" on="1"/>
        <pt x="559" y="675" on="0"/>
        <pt x="618" y="691" on="0"/>
        <pt x="674" y="699" on="0"/>
        <pt x="721" y="701" on="0"/>
        <pt x="736" y="701" on="1"/>
        <pt x="749" y="701" on="0"/>
        <pt x="793" y="699" on="0"/>
        <pt x="816" y="693" on="1"/>
        <pt x="827" y="690" on="0"/>
        <pt x="833" y="689" on="0"/>
        <pt x="836" y="689" on="1"/>
        <pt x="839" y="689" on="0"/>
        <pt x="853" y="690" on="0"/>
        <pt x="868" y="691" on="0"/>
        <pt x="883" y="692" on="0"/>
        <pt x="886" y="692" on="1"/>
        <pt x="889" y="693" on="0"/>
        <pt x="904" y="694" on="0"/>
        <pt x="908" y="694" on="1"/>
      </contour>
      <contour>
        <pt x="452" y="444" on="1"/>
        <pt x="452" y="544" on="1"/>
        <pt x="434" y="557" on="0"/>
        <pt x="426" y="590" on="0"/>
        <pt x="426" y="596" on="1"/>
        <pt x="426" y="616" on="0"/>
        <pt x="442" y="642" on="0"/>
        <pt x="452" y="650" on="1"/>
        <pt x="434" y="656" on="0"/>
        <pt x="398" y="659" on="0"/>
        <pt x="389" y="659" on="1"/>
        <pt x="359" y="659" on="0"/>
        <pt x="300" y="648" on="0"/>
        <pt x="252" y="620" on="0"/>
        <pt x="222" y="574" on="0"/>
        <pt x="222" y="539" on="1"/>
        <pt x="222" y="444" on="1"/>
      </contour>
      <contour>
        <pt x="792" y="444" on="1"/>
        <pt x="792" y="556" on="1"/>
        <pt x="780" y="564" on="0"/>
        <pt x="766" y="593" on="0"/>
        <pt x="766" y="609" on="1"/>
        <pt x="766" y="614" on="0"/>
        <pt x="770" y="638" on="0"/>
        <pt x="778" y="649" on="1"/>
        <pt x="781" y="652" on="0"/>
        <pt x="781" y="654" on="1"/>
        <pt x="781" y="656" on="0"/>
        <pt x="767" y="657" on="0"/>
        <pt x="749" y="659" on="0"/>
        <pt x="733" y="659" on="0"/>
        <pt x="731" y="659" on="1"/>
        <pt x="707" y="659" on="0"/>
        <pt x="649" y="651" on="0"/>
        <pt x="597" y="625" on="0"/>
        <pt x="562" y="578" on="0"/>
        <pt x="562" y="539" on="1"/>
        <pt x="562" y="444" on="1"/>
      </contour>
    </TTGlyph>
    <TTGlyph name="fi" xMin="33" yMin="0" xMax="634" yMax="701">
      <contour>
        <pt x="568" y="454" on="1"/>
        <pt x="568" y="52" on="1"/>
        <pt x="634" y="52" on="1"/>
        <pt x="634" y="0" on="1"/>
        <pt x="612" y="1" on="0"/>
        <pt x="584" y="2" on="0"/>
        <pt x="559" y="3" on="0"/>
        <pt x="531" y="3" on="0"/>
        <pt x="510" y="3" on="1"/>
        <pt x="489" y="3" on="0"/>
        <pt x="461" y="3" on="0"/>
        <pt x="436" y="2" on="0"/>
        <pt x="408" y="1" on="0"/>
        <pt x="386" y="0" on="1"/>
        <pt x="386" y="52" on="1"/>
        <pt x="452" y="52" on="1"/>
        <pt x="452" y="357" on="1"/>
        <pt x="452" y="383" on="0"/>
        <pt x="440" y="392" on="0"/>
        <pt x="421" y="392" on="1"/>
        <pt x="228" y="392" on="1"/>
        <pt x="228" y="52" on="1"/>
        <pt x="294" y="52" on="1"/>
        <pt x="294" y="0" on="1"/>
        <pt x="272" y="1" on="0"/>
        <pt x="244" y="2" on="0"/>
        <pt x="219" y="3" on="0"/>
        <pt x="191" y="3" on="0"/>
        <pt x="170" y="3" on="1"/>
        <pt x="149" y="3" on="0"/>
        <pt x="121" y="3" on="0"/>
        <pt x="96" y="2" on="0"/>
        <pt x="68" y="1" on="0"/>
        <pt x="46" y="0" on="1"/>
        <pt x="46" y="52" on="1"/>
        <pt x="112" y="52" on="1"/>
        <pt x="112" y="392" on="1"/>
        <pt x="33" y="392" on="1"/>
        <pt x="33" y="444" on="1"/>
        <pt x="112" y="444" on="1"/>
        <pt x="112" y="540" on="1"/>
        <pt x="112" y="587" on="0"/>
        <pt x="166" y="649" on="0"/>
        <pt x="250" y="686" on="0"/>
        <pt x="351" y="701" on="0"/>
        <pt x="397" y="701" on="1"/>
        <pt x="440" y="701" on="0"/>
        <pt x="503" y="680" on="0"/>
        <pt x="544" y="646" on="0"/>
        <pt x="564" y="603" on="0"/>
        <pt x="564" y="580" on="1"/>
        <pt x="564" y="550" on="0"/>
        <pt x="526" y="511" on="0"/>
        <pt x="495" y="511" on="1"/>
        <pt x="465" y="511" on="0"/>
        <pt x="426" y="549" on="0"/>
        <pt x="426" y="580" on="1"/>
        <pt x="426" y="601" on="0"/>
        <pt x="445" y="634" on="0"/>
        <pt x="464" y="643" on="1"/>
        <pt x="444" y="654" on="0"/>
        <pt x="409" y="659" on="0"/>
        <pt x="391" y="659" on="1"/>
        <pt x="361" y="659" on="0"/>
        <pt x="301" y="647" on="0"/>
        <pt x="252" y="620" on="0"/>
        <pt x="222" y="574" on="0"/>
        <pt x="222" y="539" on="1"/>
        <pt x="222" y="444" on="1"/>
        <pt x="386" y="444" on="1"/>
        <pt x="386" y="448" on="1"/>
      </contour>
    </TTGlyph>
    <TTGlyph name="five" xMin="61" yMin="-14" xMax="551" yMax="658">
      <contour>
        <pt x="176" y="378" on="1"/>
        <pt x="206" y="397" on="0"/>
        <pt x="274" y="412" on="0"/>
        <pt x="310" y="412" on="1"/>
        <pt x="370" y="412" on="0"/>
        <pt x="461" y="378" on="0"/>
        <pt x="521" y="319" on="0"/>
        <pt x="551" y="243" on="0"/>
        <pt x="551" y="201" on="1"/>
        <pt x="551" y="157" on="0"/>
        <pt x="515" y="79" on="0"/>
        <pt x="445" y="20" on="0"/>
        <pt x="343" y="-14" on="0"/>
        <pt x="276" y="-14" on="1"/>
        <pt x="227" y="-14" on="0"/>
        <pt x="148" y="14" on="0"/>
        <pt x="92" y="62" on="0"/>
        <pt x="61" y="124" on="0"/>
        <pt x="61" y="158" on="1"/>
        <pt x="61" y="178" on="0"/>
        <pt x="75" y="206" on="0"/>
        <pt x="96" y="224" on="0"/>
        <pt x="121" y="232" on="0"/>
        <pt x="133" y="232" on="1"/>
        <pt x="160" y="232" on="0"/>
        <pt x="205" y="195" on="0"/>
        <pt x="205" y="160" on="1"/>
        <pt x="205" y="135" on="0"/>
        <pt x="175" y="94" on="0"/>
        <pt x="143" y="89" on="1"/>
        <pt x="163" y="63" on="0"/>
        <pt x="233" y="33" on="0"/>
        <pt x="272" y="33" on="1"/>
        <pt x="321" y="33" on="0"/>
        <pt x="374" y="67" on="0"/>
        <pt x="398" y="118" on="0"/>
        <pt x="402" y="177" on="0"/>
        <pt x="402" y="203" on="1"/>
        <pt x="402" y="232" on="0"/>
        <pt x="399" y="291" on="0"/>
        <pt x="381" y="339" on="0"/>
        <pt x="342" y="370" on="0"/>
        <pt x="306" y="370" on="1"/>
        <pt x="291" y="370" on="0"/>
        <pt x="255" y="366" on="0"/>
        <pt x="217" y="353" on="0"/>
        <pt x="180" y="331" on="0"/>
        <pt x="165" y="313" on="1"/>
        <pt x="157" y="304" on="0"/>
        <pt x="148" y="299" on="0"/>
        <pt x="137" y="299" on="1"/>
        <pt x="117" y="299" on="0"/>
        <pt x="110" y="319" on="0"/>
        <pt x="110" y="333" on="1"/>
        <pt x="110" y="627" on="1"/>
        <pt x="110" y="638" on="0"/>
        <pt x="114" y="658" on="0"/>
        <pt x="127" y="658" on="1"/>
        <pt x="129" y="658" on="0"/>
        <pt x="134" y="657" on="0"/>
        <pt x="140" y="654" on="1"/>
        <pt x="189" y="637" on="0"/>
        <pt x="273" y="626" on="0"/>
        <pt x="307" y="626" on="1"/>
        <pt x="349" y="626" on="0"/>
        <pt x="433" y="640" on="0"/>
        <pt x="470" y="653" on="1"/>
        <pt x="478" y="657" on="0"/>
        <pt x="483" y="658" on="0"/>
        <pt x="485" y="658" on="1"/>
        <pt x="493" y="658" on="0"/>
        <pt x="503" y="648" on="0"/>
        <pt x="503" y="637" on="1"/>
        <pt x="503" y="627" on="0"/>
        <pt x="483" y="601" on="0"/>
        <pt x="456" y="574" on="0"/>
        <pt x="427" y="550" on="0"/>
        <pt x="417" y="544" on="1"/>
        <pt x="389" y="526" on="0"/>
        <pt x="336" y="507" on="0"/>
        <pt x="292" y="498" on="0"/>
        <pt x="258" y="496" on="0"/>
        <pt x="248" y="496" on="1"/>
        <pt x="243" y="496" on="0"/>
        <pt x="200" y="497" on="0"/>
        <pt x="176" y="501" on="1"/>
      </contour>
    </TTGlyph>
    <TTGlyph name="fl" xMin="33" yMin="0" xMax="634" yMax="701">
      <contour>
        <pt x="568" y="52" on="1"/>
        <pt x="634" y="52" on="1"/>
        <pt x="634" y="0" on="1"/>
        <pt x="612" y="1" on="0"/>
        <pt x="584" y="2" on="0"/>
        <pt x="559" y="3" on="0"/>
        <pt x="531" y="3" on="0"/>
        <pt x="510" y="3" on="1"/>
        <pt x="489" y="3" on="0"/>
        <pt x="461" y="3" on="0"/>
        <pt x="436" y="2" on="0"/>
        <pt x="408" y="1" on="0"/>
        <pt x="386" y="0" on="1"/>
        <pt x="386" y="52" on="1"/>
        <pt x="452" y="52" on="1"/>
        <pt x="452" y="392" on="1"/>
        <pt x="228" y="392" on="1"/>
        <pt x="228" y="52" on="1"/>
        <pt x="294" y="52" on="1"/>
        <pt x="294" y="0" on="1"/>
        <pt x="272" y="1" on="0"/>
        <pt x="244" y="2" on="0"/>
        <pt x="219" y="3" on="0"/>
        <pt x="191" y="3" on="0"/>
        <pt x="170" y="3" on="1"/>
        <pt x="149" y="3" on="0"/>
        <pt x="121" y="3" on="0"/>
        <pt x="96" y="2" on="0"/>
        <pt x="68" y="1" on="0"/>
        <pt x="46" y="0" on="1"/>
        <pt x="46" y="52" on="1"/>
        <pt x="112" y="52" on="1"/>
        <pt x="112" y="392" on="1"/>
        <pt x="33" y="392" on="1"/>
        <pt x="33" y="444" on="1"/>
        <pt x="112" y="444" on="1"/>
        <pt x="112" y="540" on="1"/>
        <pt x="112" y="585" on="0"/>
        <pt x="162" y="647" on="0"/>
        <pt x="243" y="685" on="0"/>
        <pt x="345" y="701" on="0"/>
        <pt x="396" y="701" on="1"/>
        <pt x="409" y="701" on="0"/>
        <pt x="453" y="699" on="0"/>
        <pt x="476" y="693" on="1"/>
        <pt x="487" y="690" on="0"/>
        <pt x="493" y="689" on="0"/>
        <pt x="496" y="689" on="1"/>
        <pt x="499" y="689" on="0"/>
        <pt x="513" y="690" on="0"/>
        <pt x="528" y="691" on="0"/>
        <pt x="543" y="692" on="0"/>
        <pt x="546" y="692" on="1"/>
        <pt x="549" y="693" on="0"/>
        <pt x="564" y="694" on="0"/>
        <pt x="568" y="694" on="1"/>
      </contour>
      <contour>
        <pt x="452" y="444" on="1"/>
        <pt x="452" y="556" on="1"/>
        <pt x="440" y="564" on="0"/>
        <pt x="426" y="593" on="0"/>
        <pt x="426" y="609" on="1"/>
        <pt x="426" y="614" on="0"/>
        <pt x="430" y="638" on="0"/>
        <pt x="438" y="649" on="1"/>
        <pt x="441" y="652" on="0"/>
        <pt x="441" y="654" on="1"/>
        <pt x="441" y="656" on="0"/>
        <pt x="427" y="657" on="0"/>
        <pt x="409" y="659" on="0"/>
        <pt x="393" y="659" on="0"/>
        <pt x="391" y="659" on="1"/>
        <pt x="367" y="659" on="0"/>
        <pt x="309" y="651" on="0"/>
        <pt x="257" y="625" on="0"/>
        <pt x="222" y="578" on="0"/>
        <pt x="222" y="539" on="1"/>
        <pt x="222" y="444" on="1"/>
      </contour>
    </TTGlyph>
    <TTGlyph name="four" xMin="34" yMin="0" xMax="578" yMax="659">
      <contour>
        <pt x="474" y="206" on="1"/>
        <pt x="578" y="206" on="1"/>
        <pt x="578" y="154" on="1"/>
        <pt x="474" y="154" on="1"/>
        <pt x="474" y="52" on="1"/>
        <pt x="578" y="52" on="1"/>
        <pt x="578" y="0" on="1"/>
        <pt x="561" y="1" on="0"/>
        <pt x="516" y="2" on="0"/>
        <pt x="468" y="3" on="0"/>
        <pt x="421" y="3" on="0"/>
        <pt x="403" y="3" on="1"/>
        <pt x="387" y="3" on="0"/>
        <pt x="337" y="3" on="0"/>
        <pt x="284" y="2" on="0"/>
        <pt x="236" y="1" on="0"/>
        <pt x="222" y="0" on="1"/>
        <pt x="222" y="52" on="1"/>
        <pt x="341" y="52" on="1"/>
        <pt x="341" y="154" on="1"/>
        <pt x="34" y="154" on="1"/>
        <pt x="34" y="206" on="1"/>
        <pt x="399" y="644" on="1"/>
        <pt x="408" y="655" on="0"/>
        <pt x="423" y="659" on="0"/>
        <pt x="439" y="659" on="1"/>
        <pt x="461" y="659" on="0"/>
        <pt x="474" y="648" on="0"/>
        <pt x="474" y="625" on="1"/>
      </contour>
      <contour>
        <pt x="96" y="206" on="1"/>
        <pt x="354" y="206" on="1"/>
        <pt x="354" y="515" on="1"/>
      </contour>
    </TTGlyph>
    <TTGlyph name="g" xMin="34" yMin="-202" xMax="595" yMax="458">
      <contour>
        <pt x="276" y="87" on="1"/>
        <pt x="345" y="87" on="0"/>
        <pt x="441" y="82" on="0"/>
        <pt x="482" y="65" on="1"/>
        <pt x="490" y="62" on="0"/>
        <pt x="522" y="46" on="0"/>
        <pt x="554" y="15" on="0"/>
        <pt x="578" y="-35" on="0"/>
        <pt x="578" y="-71" on="1"/>
        <pt x="578" y="-98" on="0"/>
        <pt x="546" y="-145" on="0"/>
        <pt x="480" y="-181" on="0"/>
        <pt x="377" y="-202" on="0"/>
        <pt x="306" y="-202" on="1"/>
        <pt x="226" y="-202" on="0"/>
        <pt x="121" y="-177" on="0"/>
        <pt x="59" y="-139" on="0"/>
        <pt x="34" y="-94" on="0"/>
        <pt x="34" y="-74" on="1"/>
        <pt x="34" y="-56" on="0"/>
        <pt x="49" y="-27" on="0"/>
        <pt x="74" y="-6" on="0"/>
        <pt x="105" y="9" on="0"/>
        <pt x="121" y="13" on="1"/>
        <pt x="101" y="32" on="0"/>
        <pt x="80" y="82" on="0"/>
        <pt x="80" y="109" on="1"/>
        <pt x="80" y="134" on="0"/>
        <pt x="98" y="180" on="0"/>
        <pt x="113" y="198" on="1"/>
        <pt x="106" y="204" on="0"/>
        <pt x="88" y="222" on="0"/>
        <pt x="72" y="247" on="0"/>
        <pt x="61" y="280" on="0"/>
        <pt x="61" y="302" on="1"/>
        <pt x="61" y="325" on="0"/>
        <pt x="81" y="377" on="0"/>
        <pt x="130" y="422" on="0"/>
        <pt x="211" y="451" on="0"/>
        <pt x="272" y="451" on="1"/>
        <pt x="320" y="451" on="0"/>
        <pt x="385" y="434" on="0"/>
        <pt x="412" y="419" on="1"/>
        <pt x="434" y="436" on="0"/>
        <pt x="496" y="458" on="0"/>
        <pt x="525" y="458" on="1"/>
        <pt x="560" y="458" on="0"/>
        <pt x="595" y="416" on="0"/>
        <pt x="595" y="393" on="1"/>
        <pt x="595" y="372" on="0"/>
        <pt x="567" y="345" on="0"/>
        <pt x="547" y="345" on="1"/>
        <pt x="527" y="345" on="0"/>
        <pt x="500" y="372" on="0"/>
        <pt x="500" y="393" on="1"/>
        <pt x="500" y="397" on="0"/>
        <pt x="502" y="409" on="0"/>
        <pt x="504" y="414" on="1"/>
        <pt x="493" y="412" on="0"/>
        <pt x="463" y="406" on="0"/>
        <pt x="443" y="395" on="1"/>
        <pt x="445" y="393" on="0"/>
        <pt x="458" y="378" on="0"/>
        <pt x="472" y="354" on="0"/>
        <pt x="483" y="321" on="0"/>
        <pt x="483" y="301" on="1"/>
        <pt x="483" y="278" on="0"/>
        <pt x="463" y="226" on="0"/>
        <pt x="414" y="181" on="0"/>
        <pt x="333" y="152" on="0"/>
        <pt x="272" y="152" on="1"/>
        <pt x="244" y="152" on="0"/>
        <pt x="176" y="162" on="0"/>
        <pt x="145" y="177" on="1"/>
        <pt x="137" y="166" on="0"/>
        <pt x="137" y="149" on="1"/>
        <pt x="137" y="131" on="0"/>
        <pt x="152" y="108" on="0"/>
        <pt x="160" y="100" on="1"/>
        <pt x="171" y="90" on="0"/>
        <pt x="201" y="87" on="0"/>
        <pt x="224" y="87" on="1"/>
      </contour>
      <contour>
        <pt x="272" y="195" on="1"/>
        <pt x="308" y="195" on="0"/>
        <pt x="346" y="217" on="0"/>
        <pt x="364" y="249" on="0"/>
        <pt x="367" y="286" on="0"/>
        <pt x="367" y="302" on="1"/>
        <pt x="367" y="317" on="0"/>
        <pt x="364" y="354" on="0"/>
        <pt x="346" y="386" on="0"/>
        <pt x="308" y="408" on="0"/>
        <pt x="272" y="408" on="1"/>
        <pt x="236" y="408" on="0"/>
        <pt x="198" y="386" on="0"/>
        <pt x="180" y="354" on="0"/>
        <pt x="177" y="317" on="0"/>
        <pt x="177" y="301" on="1"/>
        <pt x="177" y="286" on="0"/>
        <pt x="180" y="249" on="0"/>
        <pt x="198" y="217" on="0"/>
        <pt x="236" y="195" on="0"/>
      </contour>
      <contour>
        <pt x="207" y="-17" on="1"/>
        <pt x="201" y="-17" on="0"/>
        <pt x="175" y="-19" on="0"/>
        <pt x="148" y="-29" on="0"/>
        <pt x="127" y="-52" on="0"/>
        <pt x="127" y="-73" on="1"/>
        <pt x="127" y="-87" on="0"/>
        <pt x="146" y="-118" on="0"/>
        <pt x="188" y="-143" on="0"/>
        <pt x="257" y="-159" on="0"/>
        <pt x="306" y="-159" on="1"/>
        <pt x="357" y="-159" on="0"/>
        <pt x="426" y="-142" on="0"/>
        <pt x="468" y="-117" on="0"/>
        <pt x="485" y="-87" on="0"/>
        <pt x="485" y="-74" on="1"/>
        <pt x="485" y="-53" on="0"/>
        <pt x="446" y="-29" on="0"/>
        <pt x="395" y="-19" on="0"/>
        <pt x="345" y="-17" on="0"/>
        <pt x="334" y="-17" on="1"/>
      </contour>
    </TTGlyph>
    <TTGlyph name="germandbls" xMin="46" yMin="-7" xMax="603" yMax="701">
      <contour>
        <pt x="446" y="420" on="1"/>
        <pt x="518" y="388" on="0"/>
        <pt x="603" y="268" on="0"/>
        <pt x="603" y="180" on="1"/>
        <pt x="603" y="137" on="0"/>
        <pt x="569" y="67" on="0"/>
        <pt x="509" y="19" on="0"/>
        <pt x="427" y="-7" on="0"/>
        <pt x="378" y="-7" on="1"/>
        <pt x="349" y="-7" on="0"/>
        <pt x="306" y="10" on="0"/>
        <pt x="277" y="36" on="0"/>
        <pt x="263" y="68" on="0"/>
        <pt x="263" y="84" on="1"/>
        <pt x="263" y="109" on="0"/>
        <pt x="294" y="139" on="0"/>
        <pt x="317" y="139" on="1"/>
        <pt x="339" y="139" on="0"/>
        <pt x="371" y="111" on="0"/>
        <pt x="371" y="85" on="1"/>
        <pt x="371" y="64" on="0"/>
        <pt x="353" y="42" on="0"/>
        <pt x="349" y="40" on="1"/>
        <pt x="355" y="37" on="0"/>
        <pt x="364" y="35" on="0"/>
        <pt x="376" y="35" on="1"/>
        <pt x="414" y="35" on="0"/>
        <pt x="455" y="71" on="0"/>
        <pt x="474" y="119" on="0"/>
        <pt x="477" y="167" on="0"/>
        <pt x="477" y="179" on="1"/>
        <pt x="477" y="225" on="0"/>
        <pt x="461" y="304" on="0"/>
        <pt x="423" y="364" on="0"/>
        <pt x="360" y="399" on="0"/>
        <pt x="312" y="402" on="1"/>
        <pt x="308" y="403" on="0"/>
        <pt x="296" y="410" on="0"/>
        <pt x="296" y="423" on="1"/>
        <pt x="296" y="438" on="0"/>
        <pt x="312" y="443" on="0"/>
        <pt x="323" y="444" on="1"/>
        <pt x="443" y="450" on="0"/>
        <pt x="443" y="561" on="1"/>
        <pt x="443" y="576" on="0"/>
        <pt x="437" y="610" on="0"/>
        <pt x="416" y="639" on="0"/>
        <pt x="373" y="659" on="0"/>
        <pt x="337" y="659" on="1"/>
        <pt x="296" y="659" on="0"/>
        <pt x="252" y="635" on="0"/>
        <pt x="231" y="601" on="0"/>
        <pt x="228" y="567" on="0"/>
        <pt x="228" y="556" on="1"/>
        <pt x="228" y="0" on="1"/>
        <pt x="212" y="2" on="0"/>
        <pt x="182" y="3" on="0"/>
        <pt x="152" y="3" on="1"/>
        <pt x="139" y="3" on="0"/>
        <pt x="118" y="3" on="0"/>
        <pt x="94" y="2" on="0"/>
        <pt x="66" y="1" on="0"/>
        <pt x="46" y="0" on="1"/>
        <pt x="46" y="52" on="1"/>
        <pt x="112" y="52" on="1"/>
        <pt x="112" y="392" on="1"/>
        <pt x="46" y="392" on="1"/>
        <pt x="46" y="444" on="1"/>
        <pt x="112" y="444" on="1"/>
        <pt x="112" y="554" on="1"/>
        <pt x="112" y="592" on="0"/>
        <pt x="146" y="647" on="0"/>
        <pt x="206" y="683" on="0"/>
        <pt x="290" y="701" on="0"/>
        <pt x="339" y="701" on="1"/>
        <pt x="402" y="701" on="0"/>
        <pt x="490" y="676" on="0"/>
        <pt x="544" y="636" on="0"/>
        <pt x="569" y="586" on="0"/>
        <pt x="569" y="561" on="1"/>
        <pt x="569" y="547" on="0"/>
        <pt x="560" y="510" on="0"/>
        <pt x="533" y="471" on="0"/>
        <pt x="485" y="434" on="0"/>
      </contour>
    </TTGlyph>
    <TTGlyph name="grave" xMin="124" yMin="505" xMax="359" yMax="704">
      <contour>
        <pt x="359" y="550" on="1"/>
        <pt x="326" y="505" on="1"/>
        <pt x="163" y="583" on="1"/>
        <pt x="160" y="585" on="0"/>
        <pt x="147" y="592" on="0"/>
        <pt x="134" y="605" on="0"/>
        <pt x="124" y="624" on="0"/>
        <pt x="124" y="637" on="1"/>
        <pt x="124" y="649" on="0"/>
        <pt x="134" y="672" on="0"/>
        <pt x="151" y="692" on="0"/>
        <pt x="175" y="704" on="0"/>
        <pt x="188" y="704" on="1"/>
        <pt x="206" y="704" on="0"/>
        <pt x="230" y="685" on="0"/>
        <pt x="236" y="679" on="1"/>
      </contour>
    </TTGlyph>
    <TTGlyph name="h" xMin="56" yMin="0" xMax="650" yMax="694">
      <contour>
        <pt x="584" y="52" on="1"/>
        <pt x="650" y="52" on="1"/>
        <pt x="650" y="0" on="1"/>
        <pt x="609" y="2" on="0"/>
        <pt x="552" y="3" on="0"/>
        <pt x="523" y="3" on="1"/>
        <pt x="494" y="3" on="0"/>
        <pt x="437" y="2" on="0"/>
        <pt x="396" y="0" on="1"/>
        <pt x="396" y="52" on="1"/>
        <pt x="462" y="52" on="1"/>
        <pt x="462" y="314" on="1"/>
        <pt x="462" y="343" on="0"/>
        <pt x="454" y="380" on="0"/>
        <pt x="439" y="401" on="0"/>
        <pt x="417" y="409" on="0"/>
        <pt x="404" y="409" on="1"/>
        <pt x="380" y="409" on="0"/>
        <pt x="324" y="391" on="0"/>
        <pt x="276" y="354" on="0"/>
        <pt x="244" y="295" on="0"/>
        <pt x="244" y="253" on="1"/>
        <pt x="244" y="52" on="1"/>
        <pt x="310" y="52" on="1"/>
        <pt x="310" y="0" on="1"/>
        <pt x="269" y="2" on="0"/>
        <pt x="212" y="3" on="0"/>
        <pt x="183" y="3" on="1"/>
        <pt x="154" y="3" on="0"/>
        <pt x="97" y="2" on="0"/>
        <pt x="56" y="0" on="1"/>
        <pt x="56" y="52" on="1"/>
        <pt x="122" y="52" on="1"/>
        <pt x="122" y="595" on="1"/>
        <pt x="122" y="610" on="0"/>
        <pt x="118" y="625" on="0"/>
        <pt x="104" y="633" on="0"/>
        <pt x="78" y="634" on="0"/>
        <pt x="56" y="634" on="1"/>
        <pt x="56" y="686" on="1"/>
        <pt x="238" y="694" on="1"/>
        <pt x="238" y="359" on="1"/>
        <pt x="246" y="371" on="0"/>
        <pt x="275" y="402" on="0"/>
        <pt x="319" y="431" on="0"/>
        <pt x="380" y="451" on="0"/>
        <pt x="419" y="451" on="1"/>
        <pt x="452" y="451" on="0"/>
        <pt x="512" y="439" on="0"/>
        <pt x="557" y="406" on="0"/>
        <pt x="584" y="349" on="0"/>
        <pt x="584" y="303" on="1"/>
      </contour>
    </TTGlyph>
    <TTGlyph name="hungarumlaut" xMin="147" yMin="511" xMax="524" yMax="711">
      <contour>
        <pt x="193" y="511" on="1"/>
        <pt x="147" y="544" on="1"/>
        <pt x="194" y="665" on="1"/>
        <pt x="196" y="669" on="0"/>
        <pt x="203" y="685" on="0"/>
        <pt x="216" y="700" on="0"/>
        <pt x="236" y="711" on="0"/>
        <pt x="250" y="711" on="1"/>
        <pt x="262" y="711" on="0"/>
        <pt x="287" y="701" on="0"/>
        <pt x="307" y="683" on="0"/>
        <pt x="320" y="659" on="0"/>
        <pt x="320" y="645" on="1"/>
        <pt x="320" y="626" on="0"/>
        <pt x="301" y="604" on="0"/>
        <pt x="294" y="598" on="1"/>
      </contour>
      <contour>
        <pt x="398" y="665" on="1"/>
        <pt x="400" y="669" on="0"/>
        <pt x="407" y="685" on="0"/>
        <pt x="420" y="700" on="0"/>
        <pt x="440" y="711" on="0"/>
        <pt x="454" y="711" on="1"/>
        <pt x="466" y="711" on="0"/>
        <pt x="491" y="701" on="0"/>
        <pt x="511" y="683" on="0"/>
        <pt x="524" y="659" on="0"/>
        <pt x="524" y="645" on="1"/>
        <pt x="524" y="626" on="0"/>
        <pt x="505" y="604" on="0"/>
        <pt x="498" y="598" on="1"/>
        <pt x="397" y="511" on="1"/>
        <pt x="351" y="544" on="1"/>
      </contour>
    </TTGlyph>
    <TTGlyph name="hyphen" xMin="14" yMin="170" xMax="339" yMax="275">
      <contour>
        <pt x="14" y="170" on="1"/>
        <pt x="14" y="275" on="1"/>
        <pt x="339" y="275" on="1"/>
        <pt x="339" y="170" on="1"/>
      </contour>
    </TTGlyph>
    <TTGlyph name="i" xMin="59" yMin="0" xMax="300" yMax="695">
      <contour>
        <pt x="250" y="615" on="1"/>
        <pt x="250" y="599" on="0"/>
        <pt x="238" y="570" on="0"/>
        <pt x="216" y="548" on="0"/>
        <pt x="187" y="535" on="0"/>
        <pt x="170" y="535" on="1"/>
        <pt x="138" y="535" on="0"/>
        <pt x="90" y="580" on="0"/>
        <pt x="90" y="615" on="1"/>
        <pt x="90" y="650" on="0"/>
        <pt x="138" y="695" on="0"/>
        <pt x="170" y="695" on="1"/>
        <pt x="187" y="695" on="0"/>
        <pt x="216" y="682" on="0"/>
        <pt x="238" y="660" on="0"/>
        <pt x="250" y="631" on="0"/>
      </contour>
      <contour>
        <pt x="241" y="451" on="1"/>
        <pt x="241" y="52" on="1"/>
        <pt x="300" y="52" on="1"/>
        <pt x="300" y="0" on="1"/>
        <pt x="263" y="2" on="0"/>
        <pt x="212" y="3" on="0"/>
        <pt x="181" y="3" on="1"/>
        <pt x="161" y="3" on="0"/>
        <pt x="134" y="3" on="0"/>
        <pt x="109" y="2" on="0"/>
        <pt x="81" y="1" on="0"/>
        <pt x="59" y="0" on="1"/>
        <pt x="59" y="52" on="1"/>
        <pt x="125" y="52" on="1"/>
        <pt x="125" y="353" on="1"/>
        <pt x="125" y="367" on="0"/>
        <pt x="121" y="383" on="0"/>
        <pt x="108" y="390" on="0"/>
        <pt x="83" y="391" on="0"/>
        <pt x="62" y="391" on="1"/>
        <pt x="62" y="443" on="1"/>
      </contour>
    </TTGlyph>
    <TTGlyph name="j" xMin="-59" yMin="-201" xMax="287" yMax="695">
      <contour>
        <pt x="287" y="615" on="1"/>
        <pt x="287" y="582" on="0"/>
        <pt x="240" y="535" on="0"/>
        <pt x="207" y="535" on="1"/>
        <pt x="174" y="535" on="0"/>
        <pt x="127" y="582" on="0"/>
        <pt x="127" y="615" on="1"/>
        <pt x="127" y="648" on="0"/>
        <pt x="174" y="695" on="0"/>
        <pt x="207" y="695" on="1"/>
        <pt x="240" y="695" on="0"/>
        <pt x="287" y="648" on="0"/>
      </contour>
      <contour>
        <pt x="287" y="451" on="1"/>
        <pt x="287" y="-38" on="1"/>
        <pt x="287" y="-80" on="0"/>
        <pt x="251" y="-142" on="0"/>
        <pt x="196" y="-182" on="0"/>
        <pt x="127" y="-201" on="0"/>
        <pt x="94" y="-201" on="1"/>
        <pt x="61" y="-201" on="0"/>
        <pt x="5" y="-188" on="0"/>
        <pt x="-36" y="-164" on="0"/>
        <pt x="-59" y="-128" on="0"/>
        <pt x="-59" y="-104" on="1"/>
        <pt x="-59" y="-74" on="0"/>
        <pt x="-21" y="-36" on="0"/>
        <pt x="9" y="-36" on="1"/>
        <pt x="38" y="-36" on="0"/>
        <pt x="76" y="-74" on="0"/>
        <pt x="76" y="-103" on="1"/>
        <pt x="76" y="-118" on="0"/>
        <pt x="67" y="-140" on="0"/>
        <pt x="59" y="-149" on="1"/>
        <pt x="57" y="-153" on="0"/>
        <pt x="57" y="-153" on="1"/>
        <pt x="57" y="-155" on="0"/>
        <pt x="67" y="-157" on="0"/>
        <pt x="79" y="-158" on="0"/>
        <pt x="90" y="-159" on="0"/>
        <pt x="92" y="-159" on="1"/>
        <pt x="114" y="-159" on="0"/>
        <pt x="144" y="-137" on="0"/>
        <pt x="163" y="-102" on="0"/>
        <pt x="171" y="-60" on="0"/>
        <pt x="171" y="-39" on="1"/>
        <pt x="171" y="352" on="1"/>
        <pt x="171" y="368" on="0"/>
        <pt x="166" y="385" on="0"/>
        <pt x="151" y="388" on="1"/>
        <pt x="141" y="390" on="0"/>
        <pt x="112" y="391" on="0"/>
        <pt x="98" y="391" on="1"/>
        <pt x="98" y="443" on="1"/>
      </contour>
    </TTGlyph>
    <TTGlyph name="k" xMin="46" yMin="0" xMax="626" yMax="694">
      <contour>
        <pt x="550" y="69" on="1"/>
        <pt x="559" y="59" on="0"/>
        <pt x="578" y="52" on="0"/>
        <pt x="607" y="52" on="1"/>
        <pt x="626" y="52" on="1"/>
        <pt x="626" y="0" on="1"/>
        <pt x="614" y="1" on="0"/>
        <pt x="581" y="2" on="0"/>
        <pt x="549" y="3" on="0"/>
        <pt x="522" y="3" on="0"/>
        <pt x="517" y="3" on="1"/>
        <pt x="500" y="3" on="0"/>
        <pt x="475" y="3" on="0"/>
        <pt x="449" y="2" on="0"/>
        <pt x="419" y="1" on="0"/>
        <pt x="397" y="0" on="1"/>
        <pt x="397" y="52" on="1"/>
        <pt x="403" y="52" on="0"/>
        <pt x="420" y="54" on="0"/>
        <pt x="420" y="59" on="1"/>
        <pt x="420" y="60" on="0"/>
        <pt x="402" y="82" on="0"/>
        <pt x="375" y="113" on="0"/>
        <pt x="343" y="150" on="0"/>
        <pt x="313" y="183" on="0"/>
        <pt x="290" y="209" on="0"/>
        <pt x="286" y="213" on="1"/>
        <pt x="221" y="165" on="1"/>
        <pt x="221" y="52" on="1"/>
        <pt x="287" y="52" on="1"/>
        <pt x="287" y="0" on="1"/>
        <pt x="268" y="1" on="0"/>
        <pt x="237" y="2" on="0"/>
        <pt x="209" y="3" on="0"/>
        <pt x="182" y="3" on="0"/>
        <pt x="166" y="3" on="1"/>
        <pt x="137" y="3" on="0"/>
        <pt x="84" y="2" on="0"/>
        <pt x="46" y="0" on="1"/>
        <pt x="46" y="52" on="1"/>
        <pt x="112" y="52" on="1"/>
        <pt x="112" y="595" on="1"/>
        <pt x="112" y="610" on="0"/>
        <pt x="108" y="625" on="0"/>
        <pt x="94" y="633" on="0"/>
        <pt x="68" y="634" on="0"/>
        <pt x="46" y="634" on="1"/>
        <pt x="46" y="686" on="1"/>
        <pt x="228" y="694" on="1"/>
        <pt x="228" y="240" on="1"/>
        <pt x="423" y="383" on="1"/>
        <pt x="420" y="388" on="0"/>
        <pt x="412" y="392" on="0"/>
        <pt x="401" y="392" on="1"/>
        <pt x="401" y="444" on="1"/>
        <pt x="422" y="443" on="0"/>
        <pt x="451" y="442" on="0"/>
        <pt x="475" y="441" on="0"/>
        <pt x="497" y="441" on="0"/>
        <pt x="512" y="441" on="1"/>
        <pt x="531" y="441" on="0"/>
        <pt x="553" y="441" on="0"/>
        <pt x="569" y="442" on="0"/>
        <pt x="586" y="443" on="0"/>
        <pt x="599" y="444" on="1"/>
        <pt x="599" y="392" on="1"/>
        <pt x="574" y="392" on="0"/>
        <pt x="544" y="390" on="0"/>
        <pt x="526" y="386" on="0"/>
        <pt x="515" y="380" on="0"/>
        <pt x="510" y="376" on="1"/>
        <pt x="370" y="274" on="1"/>
      </contour>
    </TTGlyph>
    <TTGlyph name="l" xMin="59" yMin="0" xMax="307" yMax="694">
      <contour>
        <pt x="241" y="52" on="1"/>
        <pt x="307" y="52" on="1"/>
        <pt x="307" y="0" on="1"/>
        <pt x="285" y="1" on="0"/>
        <pt x="257" y="2" on="0"/>
        <pt x="232" y="3" on="0"/>
        <pt x="204" y="3" on="0"/>
        <pt x="183" y="3" on="1"/>
        <pt x="162" y="3" on="0"/>
        <pt x="134" y="3" on="0"/>
        <pt x="109" y="2" on="0"/>
        <pt x="81" y="1" on="0"/>
        <pt x="59" y="0" on="1"/>
        <pt x="59" y="52" on="1"/>
        <pt x="125" y="52" on="1"/>
        <pt x="125" y="595" on="1"/>
        <pt x="125" y="610" on="0"/>
        <pt x="121" y="625" on="0"/>
        <pt x="107" y="633" on="0"/>
        <pt x="81" y="634" on="0"/>
        <pt x="59" y="634" on="1"/>
        <pt x="59" y="686" on="1"/>
        <pt x="241" y="694" on="1"/>
      </contour>
    </TTGlyph>
    <TTGlyph name="m" xMin="56" yMin="0" xMax="990" yMax="451">
      <contour>
        <pt x="924" y="52" on="1"/>
        <pt x="990" y="52" on="1"/>
        <pt x="990" y="0" on="1"/>
        <pt x="949" y="2" on="0"/>
        <pt x="892" y="3" on="0"/>
        <pt x="863" y="3" on="1"/>
        <pt x="834" y="3" on="0"/>
        <pt x="777" y="2" on="0"/>
        <pt x="736" y="0" on="1"/>
        <pt x="736" y="52" on="1"/>
        <pt x="802" y="52" on="1"/>
        <pt x="802" y="314" on="1"/>
        <pt x="802" y="343" on="0"/>
        <pt x="794" y="380" on="0"/>
        <pt x="779" y="401" on="0"/>
        <pt x="757" y="409" on="0"/>
        <pt x="744" y="409" on="1"/>
        <pt x="720" y="409" on="0"/>
        <pt x="664" y="391" on="0"/>
        <pt x="616" y="354" on="0"/>
        <pt x="584" y="295" on="0"/>
        <pt x="584" y="253" on="1"/>
        <pt x="584" y="52" on="1"/>
        <pt x="650" y="52" on="1"/>
        <pt x="650" y="0" on="1"/>
        <pt x="609" y="2" on="0"/>
        <pt x="552" y="3" on="0"/>
        <pt x="523" y="3" on="1"/>
        <pt x="494" y="3" on="0"/>
        <pt x="437" y="2" on="0"/>
        <pt x="396" y="0" on="1"/>
        <pt x="396" y="52" on="1"/>
        <pt x="462" y="52" on="1"/>
        <pt x="462" y="314" on="1"/>
        <pt x="462" y="343" on="0"/>
        <pt x="454" y="380" on="0"/>
        <pt x="439" y="401" on="0"/>
        <pt x="417" y="409" on="0"/>
        <pt x="404" y="409" on="1"/>
        <pt x="380" y="409" on="0"/>
        <pt x="324" y="391" on="0"/>
        <pt x="276" y="354" on="0"/>
        <pt x="244" y="295" on="0"/>
        <pt x="244" y="253" on="1"/>
        <pt x="244" y="52" on="1"/>
        <pt x="310" y="52" on="1"/>
        <pt x="310" y="0" on="1"/>
        <pt x="269" y="2" on="0"/>
        <pt x="212" y="3" on="0"/>
        <pt x="183" y="3" on="1"/>
        <pt x="154" y="3" on="0"/>
        <pt x="97" y="2" on="0"/>
        <pt x="56" y="0" on="1"/>
        <pt x="56" y="52" on="1"/>
        <pt x="122" y="52" on="1"/>
        <pt x="122" y="352" on="1"/>
        <pt x="122" y="367" on="0"/>
        <pt x="118" y="382" on="0"/>
        <pt x="104" y="390" on="0"/>
        <pt x="78" y="391" on="0"/>
        <pt x="56" y="391" on="1"/>
        <pt x="56" y="443" on="1"/>
        <pt x="231" y="451" on="1"/>
        <pt x="231" y="349" on="1"/>
        <pt x="232" y="349" on="1"/>
        <pt x="237" y="357" on="0"/>
        <pt x="262" y="391" on="0"/>
        <pt x="307" y="425" on="0"/>
        <pt x="374" y="451" on="0"/>
        <pt x="419" y="451" on="1"/>
        <pt x="445" y="451" on="0"/>
        <pt x="494" y="444" on="0"/>
        <pt x="536" y="424" on="0"/>
        <pt x="569" y="388" on="0"/>
        <pt x="578" y="359" on="1"/>
        <pt x="586" y="371" on="0"/>
        <pt x="615" y="402" on="0"/>
        <pt x="659" y="431" on="0"/>
        <pt x="720" y="451" on="0"/>
        <pt x="759" y="451" on="1"/>
        <pt x="794" y="451" on="0"/>
        <pt x="854" y="439" on="0"/>
        <pt x="898" y="406" on="0"/>
        <pt x="924" y="348" on="0"/>
        <pt x="924" y="303" on="1"/>
      </contour>
    </TTGlyph>
    <TTGlyph name="macron" xMin="85" yMin="558" xMax="527" yMax="616">
      <contour>
        <pt x="85" y="558" on="1"/>
        <pt x="85" y="616" on="1"/>
        <pt x="527" y="616" on="1"/>
        <pt x="527" y="558" on="1"/>
      </contour>
    </TTGlyph>
    <TTGlyph name="n" xMin="56" yMin="0" xMax="650" yMax="451">
      <contour>
        <pt x="584" y="52" on="1"/>
        <pt x="650" y="52" on="1"/>
        <pt x="650" y="0" on="1"/>
        <pt x="609" y="2" on="0"/>
        <pt x="552" y="3" on="0"/>
        <pt x="523" y="3" on="1"/>
        <pt x="494" y="3" on="0"/>
        <pt x="437" y="2" on="0"/>
        <pt x="396" y="0" on="1"/>
        <pt x="396" y="52" on="1"/>
        <pt x="462" y="52" on="1"/>
        <pt x="462" y="314" on="1"/>
        <pt x="462" y="343" on="0"/>
        <pt x="454" y="380" on="0"/>
        <pt x="439" y="401" on="0"/>
        <pt x="417" y="409" on="0"/>
        <pt x="404" y="409" on="1"/>
        <pt x="380" y="409" on="0"/>
        <pt x="324" y="391" on="0"/>
        <pt x="276" y="354" on="0"/>
        <pt x="244" y="295" on="0"/>
        <pt x="244" y="253" on="1"/>
        <pt x="244" y="52" on="1"/>
        <pt x="310" y="52" on="1"/>
        <pt x="310" y="0" on="1"/>
        <pt x="269" y="2" on="0"/>
        <pt x="212" y="3" on="0"/>
        <pt x="183" y="3" on="1"/>
        <pt x="154" y="3" on="0"/>
        <pt x="97" y="2" on="0"/>
        <pt x="56" y="0" on="1"/>
        <pt x="56" y="52" on="1"/>
        <pt x="122" y="52" on="1"/>
        <pt x="122" y="352" on="1"/>
        <pt x="122" y="367" on="0"/>
        <pt x="118" y="382" on="0"/>
        <pt x="104" y="390" on="0"/>
        <pt x="78" y="391" on="0"/>
        <pt x="56" y="391" on="1"/>
        <pt x="56" y="443" on="1"/>
        <pt x="231" y="451" on="1"/>
        <pt x="231" y="349" on="1"/>
        <pt x="232" y="349" on="1"/>
        <pt x="237" y="357" on="0"/>
        <pt x="262" y="391" on="0"/>
        <pt x="307" y="425" on="0"/>
        <pt x="374" y="451" on="0"/>
        <pt x="419" y="451" on="1"/>
        <pt x="452" y="451" on="0"/>
        <pt x="512" y="439" on="0"/>
        <pt x="557" y="406" on="0"/>
        <pt x="584" y="349" on="0"/>
        <pt x="584" y="303" on="1"/>
      </contour>
    </TTGlyph>
    <TTGlyph name="nine" xMin="51" yMin="-14" xMax="561" yMax="658">
      <contour>
        <pt x="418" y="299" on="1"/>
        <pt x="412" y="289" on="0"/>
        <pt x="391" y="263" on="0"/>
        <pt x="360" y="240" on="0"/>
        <pt x="320" y="224" on="0"/>
        <pt x="294" y="224" on="1"/>
        <pt x="261" y="224" on="0"/>
        <pt x="210" y="232" on="0"/>
        <pt x="170" y="247" on="0"/>
        <pt x="136" y="268" on="0"/>
        <pt x="120" y="281" on="1"/>
        <pt x="96" y="301" on="0"/>
        <pt x="69" y="344" on="0"/>
        <pt x="55" y="386" on="0"/>
        <pt x="51" y="425" on="0"/>
        <pt x="51" y="440" on="1"/>
        <pt x="51" y="491" on="0"/>
        <pt x="89" y="572" on="0"/>
        <pt x="156" y="628" on="0"/>
        <pt x="251" y="658" on="0"/>
        <pt x="308" y="658" on="1"/>
        <pt x="383" y="658" on="0"/>
        <pt x="480" y="603" on="0"/>
        <pt x="538" y="511" on="0"/>
        <pt x="561" y="392" on="0"/>
        <pt x="561" y="328" on="1"/>
        <pt x="561" y="237" on="0"/>
        <pt x="508" y="107" on="0"/>
        <pt x="422" y="24" on="0"/>
        <pt x="312" y="-14" on="0"/>
        <pt x="255" y="-14" on="1"/>
        <pt x="210" y="-14" on="0"/>
        <pt x="145" y="7" on="0"/>
        <pt x="102" y="43" on="0"/>
        <pt x="82" y="90" on="0"/>
        <pt x="82" y="116" on="1"/>
        <pt x="82" y="148" on="0"/>
        <pt x="121" y="185" on="0"/>
        <pt x="150" y="185" on="1"/>
        <pt x="179" y="185" on="0"/>
        <pt x="217" y="147" on="0"/>
        <pt x="217" y="118" on="1"/>
        <pt x="217" y="102" on="0"/>
        <pt x="206" y="78" on="0"/>
        <pt x="191" y="63" on="0"/>
        <pt x="175" y="55" on="0"/>
        <pt x="171" y="53" on="1"/>
        <pt x="183" y="46" on="0"/>
        <pt x="208" y="37" on="0"/>
        <pt x="231" y="34" on="0"/>
        <pt x="249" y="33" on="0"/>
        <pt x="253" y="33" on="1"/>
        <pt x="280" y="33" on="0"/>
        <pt x="325" y="48" on="0"/>
        <pt x="359" y="72" on="0"/>
        <pt x="385" y="102" on="0"/>
        <pt x="392" y="117" on="1"/>
        <pt x="408" y="152" on="0"/>
        <pt x="418" y="242" on="0"/>
      </contour>
      <contour>
        <pt x="296" y="267" on="1"/>
        <pt x="353" y="267" on="0"/>
        <pt x="416" y="360" on="0"/>
        <pt x="416" y="437" on="1"/>
        <pt x="416" y="459" on="0"/>
        <pt x="413" y="520" on="0"/>
        <pt x="393" y="576" on="0"/>
        <pt x="349" y="615" on="0"/>
        <pt x="309" y="615" on="1"/>
        <pt x="266" y="615" on="0"/>
        <pt x="219" y="586" on="0"/>
        <pt x="198" y="537" on="0"/>
        <pt x="194" y="473" on="0"/>
        <pt x="194" y="439" on="1"/>
        <pt x="194" y="404" on="0"/>
        <pt x="197" y="341" on="0"/>
        <pt x="216" y="294" on="0"/>
        <pt x="258" y="267" on="0"/>
      </contour>
    </TTGlyph>
    <TTGlyph name="numbersign" xMin="68" yMin="-194" xMax="952" yMax="694">
      <contour>
        <pt x="654" y="163" on="1"/>
        <pt x="908" y="163" on="1"/>
        <pt x="913" y="163" on="0"/>
        <pt x="927" y="162" on="0"/>
        <pt x="942" y="156" on="0"/>
        <pt x="952" y="142" on="0"/>
        <pt x="952" y="129" on="1"/>
        <pt x="952" y="116" on="0"/>
        <pt x="940" y="102" on="0"/>
        <pt x="924" y="96" on="0"/>
        <pt x="907" y="95" on="0"/>
        <pt x="902" y="95" on="1"/>
        <pt x="630" y="95" on="1"/>
        <pt x="545" y="-164" on="1"/>
        <pt x="542" y="-174" on="0"/>
        <pt x="527" y="-194" on="0"/>
        <pt x="510" y="-194" on="1"/>
        <pt x="496" y="-194" on="0"/>
        <pt x="476" y="-174" on="0"/>
        <pt x="476" y="-160" on="1"/>
        <pt x="476" y="-158" on="0"/>
        <pt x="477" y="-152" on="0"/>
        <pt x="481" y="-141" on="1"/>
        <pt x="559" y="95" on="1"/>
        <pt x="358" y="95" on="1"/>
        <pt x="273" y="-164" on="1"/>
        <pt x="270" y="-174" on="0"/>
        <pt x="255" y="-194" on="0"/>
        <pt x="238" y="-194" on="1"/>
        <pt x="224" y="-194" on="0"/>
        <pt x="204" y="-174" on="0"/>
        <pt x="204" y="-160" on="1"/>
        <pt x="204" y="-158" on="0"/>
        <pt x="205" y="-152" on="0"/>
        <pt x="209" y="-141" on="1"/>
        <pt x="287" y="95" on="1"/>
        <pt x="118" y="95" on="1"/>
        <pt x="113" y="95" on="0"/>
        <pt x="96" y="96" on="0"/>
        <pt x="80" y="102" on="0"/>
        <pt x="68" y="116" on="0"/>
        <pt x="68" y="129" on="1"/>
        <pt x="68" y="142" on="0"/>
        <pt x="78" y="156" on="0"/>
        <pt x="93" y="162" on="0"/>
        <pt x="108" y="163" on="0"/>
        <pt x="112" y="163" on="1"/>
        <pt x="310" y="163" on="1"/>
        <pt x="366" y="337" on="1"/>
        <pt x="112" y="337" on="1"/>
        <pt x="108" y="337" on="0"/>
        <pt x="93" y="338" on="0"/>
        <pt x="78" y="344" on="0"/>
        <pt x="68" y="358" on="0"/>
        <pt x="68" y="371" on="1"/>
        <pt x="68" y="384" on="0"/>
        <pt x="80" y="398" on="0"/>
        <pt x="96" y="404" on="0"/>
        <pt x="113" y="405" on="0"/>
        <pt x="118" y="405" on="1"/>
        <pt x="390" y="405" on="1"/>
        <pt x="475" y="664" on="1"/>
        <pt x="478" y="674" on="0"/>
        <pt x="493" y="694" on="0"/>
        <pt x="510" y="694" on="1"/>
        <pt x="524" y="694" on="0"/>
        <pt x="544" y="674" on="0"/>
        <pt x="544" y="660" on="1"/>
        <pt x="544" y="658" on="0"/>
        <pt x="543" y="652" on="0"/>
        <pt x="539" y="641" on="1"/>
        <pt x="461" y="405" on="1"/>
        <pt x="662" y="405" on="1"/>
        <pt x="747" y="664" on="1"/>
        <pt x="750" y="674" on="0"/>
        <pt x="765" y="694" on="0"/>
        <pt x="782" y="694" on="1"/>
        <pt x="796" y="694" on="0"/>
        <pt x="816" y="674" on="0"/>
        <pt x="816" y="660" on="1"/>
        <pt x="816" y="658" on="0"/>
        <pt x="815" y="652" on="0"/>
        <pt x="811" y="641" on="1"/>
        <pt x="733" y="405" on="1"/>
        <pt x="902" y="405" on="1"/>
        <pt x="907" y="405" on="0"/>
        <pt x="924" y="404" on="0"/>
        <pt x="940" y="398" on="0"/>
        <pt x="952" y="384" on="0"/>
        <pt x="952" y="371" on="1"/>
        <pt x="952" y="358" on="0"/>
        <pt x="942" y="344" on="0"/>
        <pt x="927" y="338" on="0"/>
        <pt x="913" y="337" on="0"/>
        <pt x="908" y="337" on="1"/>
        <pt x="710" y="337" on="1"/>
      </contour>
      <contour>
        <pt x="382" y="163" on="1"/>
        <pt x="582" y="163" on="1"/>
        <pt x="638" y="337" on="1"/>
        <pt x="438" y="337" on="1"/>
      </contour>
    </TTGlyph>
    <TTGlyph name="o" xMin="34" yMin="-7" xMax="578" yMax="455">
      <contour>
        <pt x="578" y="218" on="1"/>
        <pt x="578" y="174" on="0"/>
        <pt x="545" y="92" on="0"/>
        <pt x="478" y="30" on="0"/>
        <pt x="376" y="-7" on="0"/>
        <pt x="306" y="-7" on="1"/>
        <pt x="237" y="-7" on="0"/>
        <pt x="135" y="30" on="0"/>
        <pt x="67" y="92" on="0"/>
        <pt x="34" y="173" on="0"/>
        <pt x="34" y="218" on="1"/>
        <pt x="34" y="265" on="0"/>
        <pt x="67" y="351" on="0"/>
        <pt x="135" y="416" on="0"/>
        <pt x="237" y="455" on="0"/>
        <pt x="306" y="455" on="1"/>
        <pt x="375" y="455" on="0"/>
        <pt x="477" y="416" on="0"/>
        <pt x="544" y="351" on="0"/>
        <pt x="578" y="265" on="0"/>
      </contour>
      <contour>
        <pt x="306" y="40" on="1"/>
        <pt x="357" y="40" on="0"/>
        <pt x="413" y="75" on="0"/>
        <pt x="439" y="130" on="0"/>
        <pt x="443" y="197" on="0"/>
        <pt x="443" y="230" on="1"/>
        <pt x="443" y="260" on="0"/>
        <pt x="439" y="325" on="0"/>
        <pt x="413" y="379" on="0"/>
        <pt x="357" y="413" on="0"/>
        <pt x="306" y="413" on="1"/>
        <pt x="255" y="413" on="0"/>
        <pt x="199" y="379" on="0"/>
        <pt x="173" y="326" on="0"/>
        <pt x="169" y="261" on="0"/>
        <pt x="169" y="230" on="1"/>
        <pt x="169" y="197" on="0"/>
        <pt x="173" y="130" on="0"/>
        <pt x="199" y="75" on="0"/>
        <pt x="255" y="40" on="0"/>
      </contour>
    </TTGlyph>
    <TTGlyph name="oe" xMin="34" yMin="-7" xMax="918" yMax="455">
      <contour>
        <pt x="571" y="212" on="1"/>
        <pt x="572" y="197" on="0"/>
        <pt x="579" y="139" on="0"/>
        <pt x="611" y="82" on="0"/>
        <pt x="675" y="40" on="0"/>
        <pt x="732" y="40" on="1"/>
        <pt x="748" y="40" on="0"/>
        <pt x="785" y="47" on="0"/>
        <pt x="821" y="64" on="0"/>
        <pt x="852" y="94" on="0"/>
        <pt x="861" y="117" on="1"/>
        <pt x="866" y="130" on="0"/>
        <pt x="877" y="136" on="0"/>
        <pt x="890" y="136" on="1"/>
        <pt x="895" y="136" on="0"/>
        <pt x="918" y="131" on="0"/>
        <pt x="918" y="115" on="1"/>
        <pt x="918" y="108" on="0"/>
        <pt x="900" y="68" on="0"/>
        <pt x="855" y="26" on="0"/>
        <pt x="780" y="-7" on="0"/>
        <pt x="722" y="-7" on="1"/>
        <pt x="680" y="-7" on="0"/>
        <pt x="612" y="8" on="0"/>
        <pt x="560" y="31" on="0"/>
        <pt x="523" y="57" on="0"/>
        <pt x="511" y="69" on="1"/>
        <pt x="466" y="25" on="0"/>
        <pt x="357" y="-7" on="0"/>
        <pt x="302" y="-7" on="1"/>
        <pt x="236" y="-7" on="0"/>
        <pt x="136" y="30" on="0"/>
        <pt x="68" y="93" on="0"/>
        <pt x="34" y="178" on="0"/>
        <pt x="34" y="225" on="1"/>
        <pt x="34" y="270" on="0"/>
        <pt x="67" y="353" on="0"/>
        <pt x="133" y="417" on="0"/>
        <pt x="234" y="455" on="0"/>
        <pt x="303" y="455" on="1"/>
        <pt x="348" y="455" on="0"/>
        <pt x="416" y="440" on="0"/>
        <pt x="465" y="417" on="0"/>
        <pt x="499" y="392" on="0"/>
        <pt x="509" y="382" on="1"/>
        <pt x="522" y="395" on="0"/>
        <pt x="558" y="421" on="0"/>
        <pt x="606" y="442" on="0"/>
        <pt x="668" y="455" on="0"/>
        <pt x="707" y="455" on="1"/>
        <pt x="809" y="455" on="0"/>
        <pt x="918" y="345" on="0"/>
        <pt x="918" y="242" on="1"/>
        <pt x="918" y="219" on="0"/>
        <pt x="901" y="212" on="0"/>
        <pt x="884" y="212" on="1"/>
      </contour>
      <contour>
        <pt x="821" y="251" on="1"/>
        <pt x="821" y="266" on="0"/>
        <pt x="815" y="320" on="0"/>
        <pt x="793" y="374" on="0"/>
        <pt x="748" y="413" on="0"/>
        <pt x="707" y="413" on="1"/>
        <pt x="658" y="413" on="0"/>
        <pt x="604" y="371" on="0"/>
        <pt x="577" y="316" on="0"/>
        <pt x="571" y="263" on="0"/>
        <pt x="571" y="251" on="1"/>
      </contour>
      <contour>
        <pt x="303" y="35" on="1"/>
        <pt x="358" y="35" on="0"/>
        <pt x="417" y="81" on="0"/>
        <pt x="444" y="144" on="0"/>
        <pt x="449" y="209" on="0"/>
        <pt x="449" y="229" on="1"/>
        <pt x="449" y="249" on="0"/>
        <pt x="444" y="312" on="0"/>
        <pt x="417" y="371" on="0"/>
        <pt x="357" y="413" on="0"/>
        <pt x="302" y="413" on="1"/>
        <pt x="247" y="413" on="0"/>
        <pt x="188" y="370" on="0"/>
        <pt x="161" y="311" on="0"/>
        <pt x="156" y="249" on="0"/>
        <pt x="156" y="229" on="1"/>
        <pt x="156" y="209" on="0"/>
        <pt x="161" y="143" on="0"/>
        <pt x="188" y="80" on="0"/>
        <pt x="248" y="35" on="0"/>
      </contour>
    </TTGlyph>
    <TTGlyph name="one" xMin="92" yMin="0" xMax="527" yMax="658">
      <contour>
        <pt x="379" y="52" on="1"/>
        <pt x="527" y="52" on="1"/>
        <pt x="527" y="0" on="1"/>
        <pt x="513" y="1" on="0"/>
        <pt x="456" y="2" on="0"/>
        <pt x="392" y="3" on="0"/>
        <pt x="332" y="3" on="0"/>
        <pt x="315" y="3" on="1"/>
        <pt x="298" y="3" on="0"/>
        <pt x="237" y="3" on="0"/>
        <pt x="173" y="2" on="0"/>
        <pt x="116" y="1" on="0"/>
        <pt x="102" y="0" on="1"/>
        <pt x="102" y="52" on="1"/>
        <pt x="252" y="52" on="1"/>
        <pt x="252" y="562" on="1"/>
        <pt x="208" y="549" on="0"/>
        <pt x="134" y="542" on="0"/>
        <pt x="114" y="542" on="1"/>
        <pt x="92" y="542" on="1"/>
        <pt x="92" y="594" on="1"/>
        <pt x="114" y="594" on="1"/>
        <pt x="173" y="594" on="0"/>
        <pt x="287" y="622" on="0"/>
        <pt x="333" y="658" on="1"/>
        <pt x="348" y="658" on="0"/>
        <pt x="366" y="657" on="0"/>
        <pt x="376" y="651" on="0"/>
        <pt x="379" y="637" on="0"/>
        <pt x="379" y="624" on="1"/>
      </contour>
    </TTGlyph>
    <TTGlyph name="oslash" xMin="34" yMin="-109" xMax="578" yMax="554">
      <contour>
        <pt x="462" y="419" on="1"/>
        <pt x="494" y="402" on="0"/>
        <pt x="538" y="356" on="0"/>
        <pt x="565" y="302" on="0"/>
        <pt x="578" y="245" on="0"/>
        <pt x="578" y="218" on="1"/>
        <pt x="578" y="174" on="0"/>
        <pt x="545" y="92" on="0"/>
        <pt x="478" y="30" on="0"/>
        <pt x="376" y="-7" on="0"/>
        <pt x="306" y="-7" on="1"/>
        <pt x="276" y="-7" on="0"/>
        <pt x="218" y="1" on="0"/>
        <pt x="190" y="10" on="1"/>
        <pt x="112" y="-109" on="1"/>
        <pt x="78" y="-85" on="1"/>
        <pt x="151" y="26" on="1"/>
        <pt x="118" y="43" on="0"/>
        <pt x="74" y="88" on="0"/>
        <pt x="46" y="139" on="0"/>
        <pt x="34" y="193" on="0"/>
        <pt x="34" y="218" on="1"/>
        <pt x="34" y="265" on="0"/>
        <pt x="67" y="351" on="0"/>
        <pt x="135" y="416" on="0"/>
        <pt x="237" y="455" on="0"/>
        <pt x="306" y="455" on="1"/>
        <pt x="316" y="455" on="0"/>
        <pt x="382" y="451" on="0"/>
        <pt x="423" y="437" on="1"/>
        <pt x="500" y="554" on="1"/>
        <pt x="534" y="530" on="1"/>
      </contour>
      <contour>
        <pt x="393" y="393" on="1"/>
        <pt x="391" y="395" on="0"/>
        <pt x="344" y="413" on="0"/>
        <pt x="306" y="413" on="1"/>
        <pt x="250" y="413" on="0"/>
        <pt x="189" y="374" on="0"/>
        <pt x="161" y="315" on="0"/>
        <pt x="156" y="248" on="0"/>
        <pt x="156" y="219" on="1"/>
        <pt x="156" y="183" on="0"/>
        <pt x="164" y="108" on="0"/>
        <pt x="186" y="80" on="1"/>
      </contour>
      <contour>
        <pt x="220" y="54" on="1"/>
        <pt x="232" y="47" on="0"/>
        <pt x="259" y="39" on="0"/>
        <pt x="283" y="36" on="0"/>
        <pt x="302" y="35" on="0"/>
        <pt x="306" y="35" on="1"/>
        <pt x="362" y="35" on="0"/>
        <pt x="423" y="71" on="0"/>
        <pt x="451" y="126" on="0"/>
        <pt x="456" y="191" on="0"/>
        <pt x="456" y="219" on="1"/>
        <pt x="456" y="263" on="0"/>
        <pt x="448" y="336" on="0"/>
        <pt x="425" y="364" on="1"/>
      </contour>
    </TTGlyph>
</ttFont>
